STARTFONT 2.3
FONT -FontForge-Source Code Pro-Book-R-Normal--11-110-72-72-M-70-ISO10646-1
SIZE 11 72 72  4
FONTBOUNDINGBOX 12 18 -3 -5
COMMENT "Generated by fontforge, http://fontforge.sourceforge.net"
COMMENT "Copyright 2010, 2012 Adobe Systems Incorporated (http://www.adobe.com/), with Reserved Font Name `Source'."
STARTPROPERTIES 41
FOUNDRY "FontForge"
FAMILY_NAME "Source Code Pro"
WEIGHT_NAME "Book"
SLANT "R"
SETWIDTH_NAME "Normal"
ADD_STYLE_NAME ""
PIXEL_SIZE 11
POINT_SIZE 110
RESOLUTION_X 72
RESOLUTION_Y 72
SPACING "M"
AVERAGE_WIDTH 70
CHARSET_REGISTRY "ISO10646"
CHARSET_ENCODING "1"
FONTNAME_REGISTRY ""
CHARSET_COLLECTIONS "ASCII ISOLatin1Encoding ISO8859-2 ISO8859-5 ISO8859-7 ISO8859-9 ISO8859-4 ISO10646-1"
BITS_PER_PIXEL 4
FONT_NAME "SourceCodePro-Regular"
FACE_NAME "Source Code Pro"
COPYRIGHT "Copyright 2010, 2012 Adobe Systems Incorporated (http://www.adobe.com/), with Reserved Font Name `Source'."
FONT_VERSION "2.030;PS 1.000;hotconv 16.6.51;makeotf.lib2.5.65220"
FONT_ASCENT 8
FONT_DESCENT 3
UNDERLINE_POSITION -1
UNDERLINE_THICKNESS 1
X_HEIGHT 4
CAP_HEIGHT 6
RAW_ASCENT 750
RAW_DESCENT 250
NORM_SPACE 7
RELATIVE_WEIGHT 40
RELATIVE_SETWIDTH 50
SUPERSCRIPT_X 0
SUPERSCRIPT_Y 3
SUPERSCRIPT_SIZE 6
SUBSCRIPT_X 0
SUBSCRIPT_Y 0
SUBSCRIPT_SIZE 6
FIGURE_WIDTH 7
AVG_LOWERCASE_WIDTH 70
AVG_UPPERCASE_WIDTH 70
ENDPROPERTIES
CHARS 1564
STARTCHAR space
ENCODING 32
SWIDTH 600 0
DWIDTH 7 0
BBX 1 1 0 0
BITMAP
00
ENDCHAR
STARTCHAR exclam
ENCODING 33
SWIDTH 600 0
DWIDTH 7 0
BBX 2 7 2 0
BITMAP
2B
2A
1A
09
00
5D
5D
ENDCHAR
STARTCHAR quotedbl
ENCODING 34
SWIDTH 600 0
DWIDTH 7 0
BBX 5 4 1 4
BITMAP
8A1F20
890F20
680D00
560B00
ENDCHAR
STARTCHAR numbersign
ENCODING 35
SWIDTH 600 0
DWIDTH 7 0
BBX 6 7 0 0
BITMAP
009090
009090
0CD7C6
008090
1FCAC4
035360
063540
ENDCHAR
STARTCHAR dollar
ENCODING 36
SWIDTH 600 0
DWIDTH 7 0
BBX 5 10 1 -2
BITMAP
00A000
3DFA10
A51520
8A1000
07D800
001A70
830780
5CFB10
00A000
00A000
ENDCHAR
STARTCHAR percent
ENCODING 37
SWIDTH 600 0
DWIDTH 7 0
BBX 7 8 0 0
BITMAP
3EB00000
A3740910
93847500
3EB04000
0004EB00
004A2830
092A2830
6404EB00
ENDCHAR
STARTCHAR ampersand
ENCODING 38
SWIDTH 600 0
DWIDTH 7 0
BBX 7 7 0 0
BITMAP
03EC1000
09484000
078C1000
09E30A10
58582B00
7917F500
1BEC6B30
ENDCHAR
STARTCHAR quotesingle
ENCODING 39
SWIDTH 600 0
DWIDTH 7 0
BBX 2 4 2 4
BITMAP
5E
4D
2B
1A
ENDCHAR
STARTCHAR parenleft
ENCODING 40
SWIDTH 600 0
DWIDTH 7 0
BBX 4 10 2 -2
BITMAP
01A1
0940
3A00
8500
A200
A200
8500
3A00
0940
01A1
ENDCHAR
STARTCHAR parenright
ENCODING 41
SWIDTH 600 0
DWIDTH 7 0
BBX 4 10 1 -2
BITMAP
6600
0A30
01B0
00B2
0084
0084
00B2
01B0
0A30
6600
ENDCHAR
STARTCHAR asterisk
ENCODING 42
SWIDTH 600 0
DWIDTH 7 0
BBX 5 6 1 1
BITMAP
003000
009000
96B860
1AF600
0B9500
450900
ENDCHAR
STARTCHAR plus
ENCODING 43
SWIDTH 600 0
DWIDTH 7 0
BBX 6 7 0 0
BITMAP
000100
001A00
001A00
1FFFFA
001A00
001A00
000100
ENDCHAR
STARTCHAR comma
ENCODING 44
SWIDTH 600 0
DWIDTH 7 0
BBX 3 5 2 -3
BITMAP
5E20
5F50
0930
5A00
3000
ENDCHAR
STARTCHAR hyphen
ENCODING 45
SWIDTH 600 0
DWIDTH 7 0
BBX 6 1 0 3
BITMAP
1FFFFA
ENDCHAR
STARTCHAR period
ENCODING 46
SWIDTH 600 0
DWIDTH 7 0
BBX 3 2 2 0
BITMAP
6E10
6E10
ENDCHAR
STARTCHAR slash
ENCODING 47
SWIDTH 600 0
DWIDTH 7 0
BBX 5 10 1 -2
BITMAP
000750
000C00
003900
008400
00C000
048000
0A3000
1B0000
670000
B10000
ENDCHAR
STARTCHAR zero
ENCODING 48
SWIDTH 600 0
DWIDTH 7 0
BBX 6 7 0 0
BITMAP
03CE90
0C41A6
2B152B
3A4C1C
2B002A
0C51A6
03CE90
ENDCHAR
STARTCHAR one
ENCODING 49
SWIDTH 600 0
DWIDTH 7 0
BBX 5 7 1 0
BITMAP
4AF000
11E000
00E000
00E000
00E000
00E000
EFFFC0
ENDCHAR
STARTCHAR two
ENCODING 50
SWIDTH 600 0
DWIDTH 7 0
BBX 6 7 0 0
BITMAP
05DE90
1921B4
0000A3
0004A0
004B10
05A100
3FFFFB
ENDCHAR
STARTCHAR three
ENCODING 51
SWIDTH 600 0
DWIDTH 7 0
BBX 6 7 0 0
BITMAP
05DEA1
0721A6
0002B3
00CF70
000297
282189
07EEB1
ENDCHAR
STARTCHAR four
ENCODING 52
SWIDTH 600 0
DWIDTH 7 0
BBX 6 7 0 0
BITMAP
0007E0
005AD0
03B0D0
2B10D0
9FFFFF
0000D0
0000D0
ENDCHAR
STARTCHAR five
ENCODING 53
SWIDTH 600 0
DWIDTH 7 0
BBX 6 7 0 0
BITMAP
09FFF6
0A2000
0BAEB1
063198
00003A
2711A7
08EE90
ENDCHAR
STARTCHAR six
ENCODING 54
SWIDTH 600 0
DWIDTH 7 0
BBX 6 7 0 0
BITMAP
01AED4
0A8134
1D0000
2DBED4
1E414C
0B405B
02BEC2
ENDCHAR
STARTCHAR seven
ENCODING 55
SWIDTH 600 0
DWIDTH 7 0
BBX 6 7 0 0
BITMAP
4FFFFD
000084
000490
000B10
002B00
005800
007700
ENDCHAR
STARTCHAR eight
ENCODING 56
SWIDTH 600 0
DWIDTH 7 0
BBX 6 7 0 0
BITMAP
04DEA0
0B4186
057297
07FFD1
2D2375
2C205C
06DFC4
ENDCHAR
STARTCHAR nine
ENCODING 57
SWIDTH 600 0
DWIDTH 7 0
BBX 6 7 0 0
BITMAP
06DE80
2C2196
3C117A
08EEAB
000059
0512C3
08ED60
ENDCHAR
STARTCHAR colon
ENCODING 58
SWIDTH 600 0
DWIDTH 7 0
BBX 3 6 2 0
BITMAP
6E10
6E10
0000
0000
6E10
6E10
ENDCHAR
STARTCHAR semicolon
ENCODING 59
SWIDTH 600 0
DWIDTH 7 0
BBX 3 9 2 -3
BITMAP
6E10
6E10
0000
0000
5E20
5F50
0930
5A00
3000
ENDCHAR
STARTCHAR less
ENCODING 60
SWIDTH 600 0
DWIDTH 7 0
BBX 5 7 1 0
BITMAP
000550
019A10
3C7000
A60000
3C6000
019A10
000550
ENDCHAR
STARTCHAR equal
ENCODING 61
SWIDTH 600 0
DWIDTH 7 0
BBX 6 3 0 2
BITMAP
1FFFFA
000000
1FFFFA
ENDCHAR
STARTCHAR greater
ENCODING 62
SWIDTH 600 0
DWIDTH 7 0
BBX 5 7 1 0
BITMAP
920000
4C4000
01B900
000C40
01B900
4C5000
920000
ENDCHAR
STARTCHAR question
ENCODING 63
SWIDTH 600 0
DWIDTH 7 0
BBX 5 8 1 0
BITMAP
3DE900
531C30
000B10
00A400
048000
000000
07B000
07B000
ENDCHAR
STARTCHAR at
ENCODING 64
SWIDTH 600 0
DWIDTH 7 0
BBX 6 9 0 -2
BITMAP
01AED3
0B712A
3A038D
654C6C
74752D
653DCB
2A0000
0A7123
01AEC3
ENDCHAR
STARTCHAR A
ENCODING 65
SWIDTH 600 0
DWIDTH 7 0
BBX 7 7 0 0
BITMAP
006E1000
00B85000
01A2A000
0660C100
0CFFF600
2C004B00
77000D10
ENDCHAR
STARTCHAR B
ENCODING 66
SWIDTH 600 0
DWIDTH 7 0
BBX 5 7 1 0
BITMAP
EFEB20
E01880
E01960
EFFC20
E003D0
E004D0
EFFC40
ENDCHAR
STARTCHAR C
ENCODING 67
SWIDTH 600 0
DWIDTH 7 0
BBX 6 7 0 0
BITMAP
019ED5
0B8126
2D0000
4A0000
2D0000
0B8128
01AED5
ENDCHAR
STARTCHAR D
ENCODING 68
SWIDTH 600 0
DWIDTH 7 0
BBX 7 7 0 0
BITMAP
1FFD8100
1D02A900
1D001E00
1D000D10
1D001E00
1D02A800
1FFD8000
ENDCHAR
STARTCHAR E
ENCODING 69
SWIDTH 600 0
DWIDTH 7 0
BBX 5 7 1 0
BITMAP
BFFFB0
B30000
B30000
BFFF30
B30000
B30000
BFFFC0
ENDCHAR
STARTCHAR F
ENCODING 70
SWIDTH 600 0
DWIDTH 7 0
BBX 5 7 1 0
BITMAP
8FFFD0
860000
860000
8FFF50
860000
860000
860000
ENDCHAR
STARTCHAR G
ENCODING 71
SWIDTH 600 0
DWIDTH 7 0
BBX 6 7 0 0
BITMAP
02AED4
0D7135
4B0000
6906FD
4B000D
0D612D
02BED6
ENDCHAR
STARTCHAR H
ENCODING 72
SWIDTH 600 0
DWIDTH 7 0
BBX 6 7 0 0
BITMAP
2C003B
2C003B
2C003B
2FFFFB
2C003B
2C003B
2C003B
ENDCHAR
STARTCHAR I
ENCODING 73
SWIDTH 600 0
DWIDTH 7 0
BBX 5 7 1 0
BITMAP
EFFF80
02C000
02C000
02C000
02C000
02C000
EFFF80
ENDCHAR
STARTCHAR J
ENCODING 74
SWIDTH 600 0
DWIDTH 7 0
BBX 5 7 1 0
BITMAP
8FFF60
000760
000760
000760
000860
A21C40
5DE900
ENDCHAR
STARTCHAR K
ENCODING 75
SWIDTH 600 0
DWIDTH 7 0
BBX 6 7 1 0
BITMAP
E005A0
E04B10
E2D100
ECB500
E42D00
E00870
E001D2
ENDCHAR
STARTCHAR L
ENCODING 76
SWIDTH 600 0
DWIDTH 7 0
BBX 5 7 1 0
BITMAP
860000
860000
860000
860000
860000
860000
8FFFE0
ENDCHAR
STARTCHAR M
ENCODING 77
SWIDTH 600 0
DWIDTH 7 0
BBX 6 7 0 0
BITMAP
3F107C
3D60BC
3AB39C
3AA94C
3A4D1C
3A011C
3A001C
ENDCHAR
STARTCHAR N
ENCODING 78
SWIDTH 600 0
DWIDTH 7 0
BBX 6 7 0 0
BITMAP
1F303B
1DA03B
1BA33B
1C3B3B
1C096B
1C02CB
1C009B
ENDCHAR
STARTCHAR O
ENCODING 79
SWIDTH 600 0
DWIDTH 7 0
BBX 7 7 0 0
BITMAP
04CEA100
1D419900
59001E00
77000E10
59001E00
1D419900
04CEA100
ENDCHAR
STARTCHAR P
ENCODING 80
SWIDTH 600 0
DWIDTH 7 0
BBX 5 7 1 0
BITMAP
DFFC40
D004D0
D004D0
DFFC40
D00000
D00000
D00000
ENDCHAR
STARTCHAR Q
ENCODING 81
SWIDTH 600 0
DWIDTH 7 0
BBX 6 9 0 -2
BITMAP
04CEA1
1D4199
59001D
68000E
5A001E
1E4199
04DFA1
000D41
0003DE
ENDCHAR
STARTCHAR R
ENCODING 82
SWIDTH 600 0
DWIDTH 7 0
BBX 5 7 1 0
BITMAP
EFFC30
E005C0
E005B0
EFFC30
E06900
E00C30
E004C0
ENDCHAR
STARTCHAR S
ENCODING 83
SWIDTH 600 0
DWIDTH 7 0
BBX 6 7 0 0
BITMAP
04CFB2
0D4145
0A8100
017DA1
00006B
1A305C
05DFC3
ENDCHAR
STARTCHAR T
ENCODING 84
SWIDTH 600 0
DWIDTH 7 0
BBX 7 7 0 0
BITMAP
8FFFFF20
002C0000
002C0000
002C0000
002C0000
002C0000
002C0000
ENDCHAR
STARTCHAR U
ENCODING 85
SWIDTH 600 0
DWIDTH 7 0
BBX 6 7 0 0
BITMAP
2C002B
2C002B
2C002B
2C002B
1D003A
0D4198
04DEB1
ENDCHAR
STARTCHAR V
ENCODING 86
SWIDTH 600 0
DWIDTH 7 0
BBX 6 7 0 0
BITMAP
69000D
1D004A
0B3095
0680D0
01C3A0
00BA50
006E10
ENDCHAR
STARTCHAR W
ENCODING 87
SWIDTH 600 0
DWIDTH 7 0
BBX 7 7 0 0
BITMAP
C3000860
A5020A40
874E0C20
588B3D00
3AB58C00
1CA1CA00
0D70C800
ENDCHAR
STARTCHAR X
ENCODING 88
SWIDTH 600 0
DWIDTH 7 0
BBX 6 7 0 0
BITMAP
1D1068
0691C1
00B960
006E10
01C770
0860C2
2C004A
ENDCHAR
STARTCHAR Y
ENCODING 89
SWIDTH 600 0
DWIDTH 7 0
BBX 6 7 0 0
BITMAP
5A001C
0B3086
04A1C0
00AB50
003C00
002C00
002C00
ENDCHAR
STARTCHAR Z
ENCODING 90
SWIDTH 600 0
DWIDTH 7 0
BBX 6 7 0 0
BITMAP
0EFFFD
0000A5
000680
003B00
01C100
0A4000
4FFFFE
ENDCHAR
STARTCHAR bracketleft
ENCODING 91
SWIDTH 600 0
DWIDTH 7 0
BBX 4 10 2 -2
BITMAP
8FF8
8300
8300
8300
8300
8300
8300
8300
8300
8FF8
ENDCHAR
STARTCHAR backslash
ENCODING 92
SWIDTH 600 0
DWIDTH 7 0
BBX 5 10 1 -2
BITMAP
B10000
670000
1B0000
0A2000
048000
00C000
008400
003900
000C00
000750
ENDCHAR
STARTCHAR bracketright
ENCODING 93
SWIDTH 600 0
DWIDTH 7 0
BBX 4 10 1 -2
BITMAP
EFF2
0092
0092
0092
0092
0092
0092
0092
0092
EFF2
ENDCHAR
STARTCHAR asciicircum
ENCODING 94
SWIDTH 600 0
DWIDTH 7 0
BBX 5 4 1 3
BITMAP
05D000
0A7500
291B00
930920
ENDCHAR
STARTCHAR underscore
ENCODING 95
SWIDTH 600 0
DWIDTH 7 0
BBX 6 1 0 -2
BITMAP
5FFFFE
ENDCHAR
STARTCHAR grave
ENCODING 96
SWIDTH 600 0
DWIDTH 7 0
BBX 2 2 2 6
BITMAP
B1
39
ENDCHAR
STARTCHAR a
ENCODING 97
SWIDTH 600 0
DWIDTH 7 0
BBX 6 5 0 0
BITMAP
04CEC2
063189
04ADFA
1E427A
0AED8A
ENDCHAR
STARTCHAR b
ENCODING 98
SWIDTH 600 0
DWIDTH 7 0
BBX 5 8 1 0
BITMAP
E00000
E00000
E00000
E9EC30
E516C0
E001D0
E417A0
DBEB20
ENDCHAR
STARTCHAR c
ENCODING 99
SWIDTH 600 0
DWIDTH 7 0
BBX 6 5 0 0
BITMAP
02BED4
0D6125
1D0000
0D6126
03BED4
ENDCHAR
STARTCHAR d
ENCODING 100
SWIDTH 600 0
DWIDTH 7 0
BBX 6 8 0 0
BITMAP
000059
000059
000059
05DEB9
2D3199
5A0059
2D21A9
07ED99
ENDCHAR
STARTCHAR e
ENCODING 101
SWIDTH 600 0
DWIDTH 7 0
BBX 6 5 0 0
BITMAP
03CEB2
1D304B
3FFFFD
1C4123
03CEC4
ENDCHAR
STARTCHAR f
ENCODING 102
SWIDTH 600 0
DWIDTH 7 0
BBX 6 8 1 0
BITMAP
008ED3
03C111
058000
CFFFC0
058000
058000
058000
058000
ENDCHAR
STARTCHAR g
ENCODING 103
SWIDTH 600 0
DWIDTH 7 0
BBX 7 7 0 -2
BITMAP
04DFFF30
0D31B200
09DBD100
0A441000
09FFFB10
2B102D20
0AEFC500
ENDCHAR
STARTCHAR h
ENCODING 104
SWIDTH 600 0
DWIDTH 7 0
BBX 5 8 1 0
BITMAP
E00000
E00000
E00000
D7ED40
F716A0
E002B0
E002B0
E002B0
ENDCHAR
STARTCHAR i
ENCODING 105
SWIDTH 600 0
DWIDTH 7 0
BBX 4 8 1 0
BITMAP
00A5
0000
0000
FFF6
0086
0086
0086
0086
ENDCHAR
STARTCHAR j
ENCODING 106
SWIDTH 600 0
DWIDTH 7 0
BBX 5 10 0 -2
BITMAP
000A50
000000
000000
0FFF60
000860
000860
000860
000860
121B40
3DEA00
ENDCHAR
STARTCHAR k
ENCODING 107
SWIDTH 600 0
DWIDTH 7 0
BBX 6 8 1 0
BITMAP
C10000
C10000
C10000
C10860
C2B400
CC9700
C30B30
C102C1
ENDCHAR
STARTCHAR l
ENCODING 108
SWIDTH 600 0
DWIDTH 7 0
BBX 6 8 0 0
BITMAP
3FF900
004900
004900
004900
004900
004900
003C12
000BEA
ENDCHAR
STARTCHAR m
ENCODING 109
SWIDTH 600 0
DWIDTH 7 0
BBX 7 5 0 0
BITMAP
5BE8DC00
5B3E2D20
580C0C20
580C0C20
580C0C20
ENDCHAR
STARTCHAR n
ENCODING 110
SWIDTH 600 0
DWIDTH 7 0
BBX 5 5 1 0
BITMAP
C7ED40
F716A0
E002B0
E002B0
E002B0
ENDCHAR
STARTCHAR o
ENCODING 111
SWIDTH 600 0
DWIDTH 7 0
BBX 6 5 0 0
BITMAP
05DEA1
2D317A
4A001D
2D317A
05DEB2
ENDCHAR
STARTCHAR p
ENCODING 112
SWIDTH 600 0
DWIDTH 7 0
BBX 5 7 1 -2
BITMAP
DAEC30
E516C0
E001D0
E417A0
EBEB20
E00000
E00000
ENDCHAR
STARTCHAR q
ENCODING 113
SWIDTH 600 0
DWIDTH 7 0
BBX 6 7 0 -2
BITMAP
05DEA9
2D3199
5A0059
2D21A9
07EDA9
000059
000059
ENDCHAR
STARTCHAR r
ENCODING 114
SWIDTH 600 0
DWIDTH 7 0
BBX 5 5 1 0
BITMAP
669EB0
6E5010
680000
680000
680000
ENDCHAR
STARTCHAR s
ENCODING 115
SWIDTH 600 0
DWIDTH 7 0
BBX 6 5 0 0
BITMAP
06DFA1
0C4152
028B93
18205B
05DFC4
ENDCHAR
STARTCHAR t
ENCODING 116
SWIDTH 600 0
DWIDTH 7 0
BBX 6 7 0 0
BITMAP
009300
00A300
3EFFFC
00B300
00B300
00A602
004DEB
ENDCHAR
STARTCHAR u
ENCODING 117
SWIDTH 600 0
DWIDTH 7 0
BBX 6 5 0 0
BITMAP
2C0058
2C0058
2C0058
1E22C8
09ED78
ENDCHAR
STARTCHAR v
ENCODING 118
SWIDTH 600 0
DWIDTH 7 0
BBX 6 5 0 0
BITMAP
3A001C
0B2076
0580C0
00C670
006E10
ENDCHAR
STARTCHAR w
ENCODING 119
SWIDTH 600 0
DWIDTH 7 0
BBX 7 5 0 0
BITMAP
C1290760
856D1A30
58A75C00
1BB3AB00
0D80D700
ENDCHAR
STARTCHAR x
ENCODING 120
SWIDTH 600 0
DWIDTH 7 0
BBX 6 5 0 0
BITMAP
0B4095
01C690
007E10
03B5A0
1C2087
ENDCHAR
STARTCHAR y
ENCODING 121
SWIDTH 600 0
DWIDTH 7 0
BBX 6 7 0 -2
BITMAP
3A001C
0B3076
04A0C0
00B680
004E10
016900
2EB100
ENDCHAR
STARTCHAR z
ENCODING 122
SWIDTH 600 0
DWIDTH 7 0
BBX 6 5 0 0
BITMAP
0CFFFA
0003B1
004A10
069000
3FFFFD
ENDCHAR
STARTCHAR braceleft
ENCODING 123
SWIDTH 600 0
DWIDTH 7 0
BBX 5 10 1 -2
BITMAP
00BF80
02B100
029000
049000
AE4000
059000
02A000
029000
02B100
00AF80
ENDCHAR
STARTCHAR bar
ENCODING 124
SWIDTH 600 0
DWIDTH 7 0
BBX 2 11 2 -3
BITMAP
2B
2B
2B
2B
2B
2B
2B
2B
2B
2B
2B
ENDCHAR
STARTCHAR braceright
ENCODING 125
SWIDTH 600 0
DWIDTH 7 0
BBX 5 10 1 -2
BITMAP
EE6000
02B000
00B000
00C100
009F40
00D200
00B000
00B000
03B000
EE5000
ENDCHAR
STARTCHAR asciitilde
ENCODING 126
SWIDTH 600 0
DWIDTH 7 0
BBX 6 2 0 3
BITMAP
08E628
192AE3
ENDCHAR
STARTCHAR uni00A0
ENCODING 160
SWIDTH 600 0
DWIDTH 7 0
BBX 1 1 0 0
BITMAP
00
ENDCHAR
STARTCHAR exclamdown
ENCODING 161
SWIDTH 600 0
DWIDTH 7 0
BBX 2 7 2 -2
BITMAP
5D
5D
00
09
1A
2A
2B
ENDCHAR
STARTCHAR cent
ENCODING 162
SWIDTH 600 0
DWIDTH 7 0
BBX 5 7 1 0
BITMAP
008000
1AFC20
899310
B38000
899320
1AFC30
008000
ENDCHAR
STARTCHAR sterling
ENCODING 163
SWIDTH 600 0
DWIDTH 7 0
BBX 6 7 0 0
BITMAP
00AED4
05A125
049000
2FFFD0
00C000
039000
2FFFFD
ENDCHAR
STARTCHAR currency
ENCODING 164
SWIDTH 600 0
DWIDTH 7 0
BBX 6 7 0 0
BITMAP
130005
1BCEB7
0A61C4
0C1076
0A61B3
1BBEB7
130004
ENDCHAR
STARTCHAR yen
ENCODING 165
SWIDTH 600 0
DWIDTH 7 0
BBX 6 7 0 0
BITMAP
2B003B
0850A2
01B480
18BE86
189D86
189D86
189D86
ENDCHAR
STARTCHAR brokenbar
ENCODING 166
SWIDTH 600 0
DWIDTH 7 0
BBX 2 11 2 -3
BITMAP
2B
2B
2B
2B
19
00
19
2B
2B
2B
2B
ENDCHAR
STARTCHAR section
ENCODING 167
SWIDTH 600 0
DWIDTH 7 0
BBX 5 9 1 -1
BITMAP
1BE800
4A1400
3D5000
B27B10
C10570
4C6760
007C00
522D00
4DE600
ENDCHAR
STARTCHAR dieresis
ENCODING 168
SWIDTH 600 0
DWIDTH 7 0
BBX 4 1 1 7
BITMAP
3A2B
ENDCHAR
STARTCHAR copyright
ENCODING 169
SWIDTH 600 0
DWIDTH 7 0
BBX 7 7 0 0
BITMAP
04CEA100
2B315A00
82AC3720
85944430
82BD4710
2B215A00
04CEA100
ENDCHAR
STARTCHAR ordfeminine
ENCODING 170
SWIDTH 600 0
DWIDTH 7 0
BBX 4 4 1 4
BITMAP
09E8
0ADD
2B2B
1DC5
ENDCHAR
STARTCHAR guillemotleft
ENCODING 171
SWIDTH 600 0
DWIDTH 7 0
BBX 5 4 1 1
BITMAP
190640
C26800
C26800
190640
ENDCHAR
STARTCHAR logicalnot
ENCODING 172
SWIDTH 600 0
DWIDTH 7 0
BBX 6 4 0 0
BITMAP
1FFFFA
00001A
00001A
000001
ENDCHAR
STARTCHAR uni00AD
ENCODING 173
SWIDTH 600 0
DWIDTH 7 0
BBX 6 1 0 3
BITMAP
1FFFFA
ENDCHAR
STARTCHAR registered
ENCODING 174
SWIDTH 600 0
DWIDTH 7 0
BBX 5 5 1 3
BITMAP
1BE700
861920
78E350
863920
1BE700
ENDCHAR
STARTCHAR macron
ENCODING 175
SWIDTH 600 0
DWIDTH 7 0
BBX 4 1 1 6
BITMAP
2FFC
ENDCHAR
STARTCHAR degree
ENCODING 176
SWIDTH 600 0
DWIDTH 7 0
BBX 3 4 2 4
BITMAP
8E30
A290
A290
8E30
ENDCHAR
STARTCHAR plusminus
ENCODING 177
SWIDTH 600 0
DWIDTH 7 0
BBX 6 6 0 0
BITMAP
001A00
001A00
1FFFFA
001A00
000000
1FFFFA
ENDCHAR
STARTCHAR two.sups
ENCODING 178
SWIDTH 600 0
DWIDTH 7 0
BBX 4 5 1 4
BITMAP
0BE5
243A
0054
0660
3FFE
ENDCHAR
STARTCHAR three.sups
ENCODING 179
SWIDTH 600 0
DWIDTH 7 0
BBX 4 5 1 4
BITMAP
0AE5
143A
04F4
242B
0BE7
ENDCHAR
STARTCHAR acute
ENCODING 180
SWIDTH 600 0
DWIDTH 7 0
BBX 3 2 2 6
BITMAP
0570
2900
ENDCHAR
STARTCHAR uni00B5
ENCODING 181
SWIDTH 600 0
DWIDTH 7 0
BBX 6 7 0 -2
BITMAP
1C0067
1C0067
1D0067
1E22C7
1EED6E
1C0000
1C0000
ENDCHAR
STARTCHAR paragraph
ENCODING 182
SWIDTH 600 0
DWIDTH 7 0
BBX 6 8 0 -1
BITMAP
05DD85
1FFD85
2FFD85
0DFD85
029985
000085
000085
000085
ENDCHAR
STARTCHAR periodcentered
ENCODING 183
SWIDTH 600 0
DWIDTH 7 0
BBX 3 2 2 3
BITMAP
6E10
6E10
ENDCHAR
STARTCHAR cedilla
ENCODING 184
SWIDTH 600 0
DWIDTH 7 0
BBX 3 4 2 -4
BITMAP
1700
4D00
1B20
A900
ENDCHAR
STARTCHAR one.sups
ENCODING 185
SWIDTH 600 0
DWIDTH 7 0
BBX 5 4 1 4
BITMAP
08E000
00B000
00B000
1FFF40
ENDCHAR
STARTCHAR ordmasculine
ENCODING 186
SWIDTH 600 0
DWIDTH 7 0
BBX 4 4 1 4
BITMAP
0BE6
571C
571C
1BE6
ENDCHAR
STARTCHAR guillemotright
ENCODING 187
SWIDTH 600 0
DWIDTH 7 0
BBX 5 4 1 1
BITMAP
822800
1C1780
1C1780
822800
ENDCHAR
STARTCHAR onequarter
ENCODING 188
SWIDTH 600 0
DWIDTH 7 0
BBX 7 7 0 0
BITMAP
2D500910
05507500
05504000
00000100
00426900
0929FF50
64000900
ENDCHAR
STARTCHAR onehalf
ENCODING 189
SWIDTH 600 0
DWIDTH 7 0
BBX 7 7 0 0
BITMAP
2D500910
05507500
05504000
0002DB00
00432B00
09206400
6406FF30
ENDCHAR
STARTCHAR threequarters
ENCODING 190
SWIDTH 600 0
DWIDTH 7 0
BBX 7 8 0 0
BITMAP
3E900000
22B00650
3BA03800
3EC04000
00000100
00426900
0669FF50
28000900
ENDCHAR
STARTCHAR questiondown
ENCODING 191
SWIDTH 600 0
DWIDTH 7 0
BBX 5 7 1 -2
BITMAP
02E100
03E100
000000
01B000
291000
961520
4DF900
ENDCHAR
STARTCHAR Agrave
ENCODING 192
SWIDTH 600 0
DWIDTH 7 0
BBX 7 10 0 0
BITMAP
00A20000
00290000
00000000
006E1000
00B85000
01A2A000
0660C100
0CFFF600
2C004B00
77000D10
ENDCHAR
STARTCHAR Aacute
ENCODING 193
SWIDTH 600 0
DWIDTH 7 0
BBX 7 10 0 0
BITMAP
00066000
00390000
00000000
006E1000
00B85000
01A2A000
0660C100
0CFFF600
2C004B00
77000D10
ENDCHAR
STARTCHAR Acircumflex
ENCODING 194
SWIDTH 600 0
DWIDTH 7 0
BBX 7 9 0 0
BITMAP
008D2000
02818000
006E1000
00B85000
01A2A000
0660C100
0CFFF600
2C004B00
77000D10
ENDCHAR
STARTCHAR Atilde
ENCODING 195
SWIDTH 600 0
DWIDTH 7 0
BBX 7 10 0 0
BITMAP
04E67300
083BC000
00000000
006E1000
00B85000
01A2A000
0660C100
0CFFF600
2C004B00
77000D10
ENDCHAR
STARTCHAR Adieresis
ENCODING 196
SWIDTH 600 0
DWIDTH 7 0
BBX 7 9 0 0
BITMAP
02A2A000
00000000
006E1000
00B85000
01A2A000
0660C100
0CFFF600
2C004B00
77000D10
ENDCHAR
STARTCHAR Aring
ENCODING 197
SWIDTH 600 0
DWIDTH 7 0
BBX 7 10 0 0
BITMAP
007E2000
00955000
007E2000
006E1000
00B85000
01A2A000
0660C100
0CFFF600
2C004B00
77000D10
ENDCHAR
STARTCHAR AE
ENCODING 198
SWIDTH 600 0
DWIDTH 7 0
BBX 7 7 0 0
BITMAP
005FFF60
00BA5000
02A85000
0848FE00
1EFF5000
68085000
C208FF80
ENDCHAR
STARTCHAR Ccedilla
ENCODING 199
SWIDTH 600 0
DWIDTH 7 0
BBX 6 11 0 -4
BITMAP
019ED5
0B8126
2D0000
4A0000
2D0000
0B8128
01AED5
000810
000B60
0004A0
002D40
ENDCHAR
STARTCHAR Egrave
ENCODING 200
SWIDTH 600 0
DWIDTH 7 0
BBX 5 10 1 0
BITMAP
075000
009200
000000
BFFFB0
B30000
B30000
BFFF30
B30000
B30000
BFFFC0
ENDCHAR
STARTCHAR Eacute
ENCODING 201
SWIDTH 600 0
DWIDTH 7 0
BBX 5 10 1 0
BITMAP
002A00
00A200
000000
BFFFB0
B30000
B30000
BFFF30
B30000
B30000
BFFFC0
ENDCHAR
STARTCHAR Ecircumflex
ENCODING 202
SWIDTH 600 0
DWIDTH 7 0
BBX 5 9 1 0
BITMAP
03D700
091810
BFFFB0
B30000
B30000
BFFF30
B30000
B30000
BFFFC0
ENDCHAR
STARTCHAR Edieresis
ENCODING 203
SWIDTH 600 0
DWIDTH 7 0
BBX 5 9 1 0
BITMAP
0B1B10
000000
BFFFB0
B30000
B30000
BFFF30
B30000
B30000
BFFFC0
ENDCHAR
STARTCHAR Igrave
ENCODING 204
SWIDTH 600 0
DWIDTH 7 0
BBX 5 10 1 0
BITMAP
0A2000
029000
000000
EFFF80
02C000
02C000
02C000
02C000
02C000
EFFF80
ENDCHAR
STARTCHAR Iacute
ENCODING 205
SWIDTH 600 0
DWIDTH 7 0
BBX 5 10 1 0
BITMAP
006600
039000
000000
EFFF80
02C000
02C000
02C000
02C000
02C000
EFFF80
ENDCHAR
STARTCHAR Icircumflex
ENCODING 206
SWIDTH 600 0
DWIDTH 7 0
BBX 5 9 1 0
BITMAP
08D200
281800
EFFF80
02C000
02C000
02C000
02C000
02C000
EFFF80
ENDCHAR
STARTCHAR Idieresis
ENCODING 207
SWIDTH 600 0
DWIDTH 7 0
BBX 5 9 1 0
BITMAP
2A2A00
000000
EFFF80
02C000
02C000
02C000
02C000
02C000
EFFF80
ENDCHAR
STARTCHAR Eth
ENCODING 208
SWIDTH 600 0
DWIDTH 7 0
BBX 7 7 0 0
BITMAP
1FFD8100
1D02A900
1D001E00
DFF70E10
1D001E00
1D02B800
1FFD8000
ENDCHAR
STARTCHAR Ntilde
ENCODING 209
SWIDTH 600 0
DWIDTH 7 0
BBX 6 10 0 0
BITMAP
03E764
064AD1
000000
1F303B
1DA03B
1BA33B
1C3B3B
1C096B
1C02CB
1C009B
ENDCHAR
STARTCHAR Ograve
ENCODING 210
SWIDTH 600 0
DWIDTH 7 0
BBX 7 10 0 0
BITMAP
00A20000
00290000
00000000
04CEA100
1D419900
59001E00
77000E10
59001E00
1D419900
04CEA100
ENDCHAR
STARTCHAR Oacute
ENCODING 211
SWIDTH 600 0
DWIDTH 7 0
BBX 7 10 0 0
BITMAP
00066000
00390000
00000000
04CEA100
1D419900
59001E00
77000E10
59001E00
1D419900
04CEA100
ENDCHAR
STARTCHAR Ocircumflex
ENCODING 212
SWIDTH 600 0
DWIDTH 7 0
BBX 7 9 0 0
BITMAP
008D2000
02818000
04CEA100
1D419900
59001E00
77000E10
59001E00
1D419900
04CEA100
ENDCHAR
STARTCHAR Otilde
ENCODING 213
SWIDTH 600 0
DWIDTH 7 0
BBX 7 10 0 0
BITMAP
04E67300
083BC000
00000000
04CEA100
1D419900
59001E00
77000E10
59001E00
1D419900
04CEA100
ENDCHAR
STARTCHAR Odieresis
ENCODING 214
SWIDTH 600 0
DWIDTH 7 0
BBX 7 9 0 0
BITMAP
02A2A000
00000000
04CEA100
1D419900
59001E00
77000E10
59001E00
1D419900
04CEA100
ENDCHAR
STARTCHAR multiply
ENCODING 215
SWIDTH 600 0
DWIDTH 7 0
BBX 5 5 1 2
BITMAP
100000
860830
09B500
0AA600
940830
ENDCHAR
STARTCHAR Oslash
ENCODING 216
SWIDTH 600 0
DWIDTH 7 0
BBX 7 9 0 -1
BITMAP
00000100
04CEAB00
1E41C900
59077E00
773A0E10
5AB11E00
1E619900
5ADEA100
10000000
ENDCHAR
STARTCHAR Ugrave
ENCODING 217
SWIDTH 600 0
DWIDTH 7 0
BBX 6 10 0 0
BITMAP
00A200
002900
000000
2C002B
2C002B
2C002B
2C002B
1D003A
0D4198
04DEB1
ENDCHAR
STARTCHAR Uacute
ENCODING 218
SWIDTH 600 0
DWIDTH 7 0
BBX 6 10 0 0
BITMAP
000660
003900
000000
2C002B
2C002B
2C002B
2C002B
1D003A
0D4198
04DEB1
ENDCHAR
STARTCHAR Ucircumflex
ENCODING 219
SWIDTH 600 0
DWIDTH 7 0
BBX 6 9 0 0
BITMAP
008D20
028180
2C002B
2C002B
2C002B
2C002B
1D003A
0D4198
04DEB1
ENDCHAR
STARTCHAR Udieresis
ENCODING 220
SWIDTH 600 0
DWIDTH 7 0
BBX 6 9 0 0
BITMAP
02A2A0
000000
2C002B
2C002B
2C002B
2C002B
1D003A
0D4198
04DEB1
ENDCHAR
STARTCHAR Yacute
ENCODING 221
SWIDTH 600 0
DWIDTH 7 0
BBX 6 10 0 0
BITMAP
000660
003900
000000
5A001C
0B3086
04A1C0
00AB50
003C00
002C00
002C00
ENDCHAR
STARTCHAR Thorn
ENCODING 222
SWIDTH 600 0
DWIDTH 7 0
BBX 5 7 1 0
BITMAP
D00000
DFFD40
D003D0
D004D0
DFFC40
D00000
D00000
ENDCHAR
STARTCHAR germandbls
ENCODING 223
SWIDTH 600 0
DWIDTH 7 0
BBX 6 8 1 0
BITMAP
4DE700
D42E00
D02900
D0A100
D0BA10
D018D0
D031C2
D1BE90
ENDCHAR
STARTCHAR agrave
ENCODING 224
SWIDTH 600 0
DWIDTH 7 0
BBX 6 8 0 0
BITMAP
009300
001A10
000000
04CEC2
063189
04ADFA
1E427A
0AED8A
ENDCHAR
STARTCHAR aacute
ENCODING 225
SWIDTH 600 0
DWIDTH 7 0
BBX 6 8 0 0
BITMAP
0003A0
000A10
000000
04CEC2
063189
04ADFA
1E427A
0AED8A
ENDCHAR
STARTCHAR acircumflex
ENCODING 226
SWIDTH 600 0
DWIDTH 7 0
BBX 6 8 0 0
BITMAP
005D50
019091
000000
04CEC2
063189
04ADFA
1E427A
0AED8A
ENDCHAR
STARTCHAR atilde
ENCODING 227
SWIDTH 600 0
DWIDTH 7 0
BBX 6 9 0 0
BITMAP
002011
02DA55
0547D1
000000
04CEC2
063189
04ADFA
1E427A
0AED8A
ENDCHAR
STARTCHAR adieresis
ENCODING 228
SWIDTH 600 0
DWIDTH 7 0
BBX 6 8 0 0
BITMAP
01C0C1
000000
000000
04CEC2
063189
04ADFA
1E427A
0AED8A
ENDCHAR
STARTCHAR aring
ENCODING 229
SWIDTH 600 0
DWIDTH 7 0
BBX 6 9 0 0
BITMAP
005E60
0093A0
005E60
000000
04CEC2
063189
04ADFA
1E427A
0AED8A
ENDCHAR
STARTCHAR ae
ENCODING 230
SWIDTH 600 0
DWIDTH 7 0
BBX 7 5 0 0
BITMAP
4DD6DC10
3ADD1570
982FFF80
C34C2210
6EB6DD30
ENDCHAR
STARTCHAR ccedilla
ENCODING 231
SWIDTH 600 0
DWIDTH 7 0
BBX 6 9 0 -4
BITMAP
02BED4
0D6125
1D0000
0D6126
03BED4
000810
000C60
000490
003D30
ENDCHAR
STARTCHAR egrave
ENCODING 232
SWIDTH 600 0
DWIDTH 7 0
BBX 6 8 0 0
BITMAP
00A300
001A00
000000
03CEB2
1D304B
3FFFFD
1C4123
03CEC4
ENDCHAR
STARTCHAR eacute
ENCODING 233
SWIDTH 600 0
DWIDTH 7 0
BBX 6 8 0 0
BITMAP
000390
001A10
000000
03CEB2
1D304B
3FFFFD
1C4123
03CEC4
ENDCHAR
STARTCHAR ecircumflex
ENCODING 234
SWIDTH 600 0
DWIDTH 7 0
BBX 6 8 0 0
BITMAP
006D50
019090
000000
03CEB2
1D304B
3FFFFD
1C4123
03CEC4
ENDCHAR
STARTCHAR edieresis
ENCODING 235
SWIDTH 600 0
DWIDTH 7 0
BBX 6 8 0 0
BITMAP
01C0C1
000000
000000
03CEB2
1D304B
3FFFFD
1C4123
03CEC4
ENDCHAR
STARTCHAR igrave
ENCODING 236
SWIDTH 600 0
DWIDTH 7 0
BBX 4 8 1 0
BITMAP
0670
0084
0000
FFF6
0086
0086
0086
0086
ENDCHAR
STARTCHAR iacute
ENCODING 237
SWIDTH 600 0
DWIDTH 7 0
BBX 5 8 1 0
BITMAP
001A10
008400
000000
FFF600
008600
008600
008600
008600
ENDCHAR
STARTCHAR icircumflex
ENCODING 238
SWIDTH 600 0
DWIDTH 7 0
BBX 5 8 1 0
BITMAP
01CA00
082540
000000
FFF600
008600
008600
008600
008600
ENDCHAR
STARTCHAR idieresis
ENCODING 239
SWIDTH 600 0
DWIDTH 7 0
BBX 5 8 1 0
BITMAP
0A3850
000000
000000
FFF600
008600
008600
008600
008600
ENDCHAR
STARTCHAR eth
ENCODING 240
SWIDTH 600 0
DWIDTH 7 0
BBX 6 8 0 0
BITMAP
00A565
007DA0
0140B4
06DEAA
2D217D
48000C
2D3178
05DEA1
ENDCHAR
STARTCHAR ntilde
ENCODING 241
SWIDTH 600 0
DWIDTH 7 0
BBX 5 9 1 0
BITMAP
020110
2DA650
547D10
000000
C7ED40
F716A0
E002B0
E002B0
E002B0
ENDCHAR
STARTCHAR ograve
ENCODING 242
SWIDTH 600 0
DWIDTH 7 0
BBX 6 8 0 0
BITMAP
00B100
003900
000000
05DEA1
2D317A
4A001D
2D317A
05DEB2
ENDCHAR
STARTCHAR oacute
ENCODING 243
SWIDTH 600 0
DWIDTH 7 0
BBX 6 8 0 0
BITMAP
000570
002900
000000
05DEA1
2D317A
4A001D
2D317A
05DEB2
ENDCHAR
STARTCHAR ocircumflex
ENCODING 244
SWIDTH 600 0
DWIDTH 7 0
BBX 6 8 0 0
BITMAP
008D30
037190
000000
05DEA1
2D317A
4A001D
2D317A
05DEB2
ENDCHAR
STARTCHAR otilde
ENCODING 245
SWIDTH 600 0
DWIDTH 7 0
BBX 6 9 0 0
BITMAP
003010
05D882
081AB0
000000
05DEA1
2D317A
4A001D
2D317A
05DEB2
ENDCHAR
STARTCHAR odieresis
ENCODING 246
SWIDTH 600 0
DWIDTH 7 0
BBX 6 8 0 0
BITMAP
03A2B0
000000
000000
05DEA1
2D317A
4A001D
2D317A
05DEB2
ENDCHAR
STARTCHAR divide
ENCODING 247
SWIDTH 600 0
DWIDTH 7 0
BBX 6 5 0 1
BITMAP
002A00
000000
1FFFFA
000000
002A00
ENDCHAR
STARTCHAR oslash
ENCODING 248
SWIDTH 600 0
DWIDTH 7 0
BBX 6 7 0 -1
BITMAP
000001
05DEB9
2E34CA
4A3A1D
2DA18A
1BDEB2
010000
ENDCHAR
STARTCHAR ugrave
ENCODING 249
SWIDTH 600 0
DWIDTH 7 0
BBX 6 8 0 0
BITMAP
01B100
003900
000000
2C0058
2C0058
2C0058
1E22C8
09ED78
ENDCHAR
STARTCHAR uacute
ENCODING 250
SWIDTH 600 0
DWIDTH 7 0
BBX 6 8 0 0
BITMAP
000670
003900
000000
2C0058
2C0058
2C0058
1E22C8
09ED78
ENDCHAR
STARTCHAR ucircumflex
ENCODING 251
SWIDTH 600 0
DWIDTH 7 0
BBX 6 8 0 0
BITMAP
009D20
036180
000000
2C0058
2C0058
2C0058
1E22C8
09ED78
ENDCHAR
STARTCHAR udieresis
ENCODING 252
SWIDTH 600 0
DWIDTH 7 0
BBX 6 8 0 0
BITMAP
0492B0
000000
000000
2C0058
2C0058
2C0058
1E22C8
09ED78
ENDCHAR
STARTCHAR yacute
ENCODING 253
SWIDTH 600 0
DWIDTH 7 0
BBX 6 10 0 -2
BITMAP
000580
002910
000000
3A001C
0B3076
04A0C0
00B680
004E10
016900
2EB100
ENDCHAR
STARTCHAR thorn
ENCODING 254
SWIDTH 600 0
DWIDTH 7 0
BBX 5 10 1 -2
BITMAP
E00000
E00000
E00000
E9EC30
E516B0
E001D0
E417A0
EAEB20
E00000
E00000
ENDCHAR
STARTCHAR ydieresis
ENCODING 255
SWIDTH 600 0
DWIDTH 7 0
BBX 6 10 0 -2
BITMAP
03A1C0
000000
000000
3A001C
0B3076
04A0C0
00B680
004E10
016900
2EB100
ENDCHAR
STARTCHAR Amacron
ENCODING 256
SWIDTH 600 0
DWIDTH 7 0
BBX 7 9 0 0
BITMAP
03FFC000
00000000
006E1000
00B85000
01A2A000
0660C100
0CFFF600
2C004B00
77000D10
ENDCHAR
STARTCHAR amacron
ENCODING 257
SWIDTH 600 0
DWIDTH 7 0
BBX 6 7 0 0
BITMAP
00EFF0
000000
04CEC2
063189
04ADFA
1E427A
0AED8A
ENDCHAR
STARTCHAR Abreve
ENCODING 258
SWIDTH 600 0
DWIDTH 7 0
BBX 7 10 0 0
BITMAP
0381A000
00AE5000
00000000
006E1000
00B85000
01A2A000
0660C100
0CFFF600
2C004B00
77000D10
ENDCHAR
STARTCHAR abreve
ENCODING 259
SWIDTH 600 0
DWIDTH 7 0
BBX 6 8 0 0
BITMAP
02A192
008E90
000000
04CEC2
063189
04ADFA
1E427A
0AED8A
ENDCHAR
STARTCHAR Aogonek
ENCODING 260
SWIDTH 600 0
DWIDTH 7 0
BBX 7 10 0 -3
BITMAP
006E1000
00B85000
01A2A000
0660C100
0CFFF600
2C004B00
77000D10
00001800
00006510
00004E60
ENDCHAR
STARTCHAR aogonek
ENCODING 261
SWIDTH 600 0
DWIDTH 7 0
BBX 6 8 0 -3
BITMAP
04CEC2
063189
04ADFA
1E427A
0AFD9A
000062
0001A1
0000CC
ENDCHAR
STARTCHAR Cacute
ENCODING 262
SWIDTH 600 0
DWIDTH 7 0
BBX 6 10 0 0
BITMAP
0001A0
000930
000000
019ED5
0B8126
2D0000
4A0000
2D0000
0B8128
01AED5
ENDCHAR
STARTCHAR cacute
ENCODING 263
SWIDTH 600 0
DWIDTH 7 0
BBX 6 8 0 0
BITMAP
0001B1
000840
000000
02BED4
0D6125
1D0000
0D6126
03BED4
ENDCHAR
STARTCHAR Ccircumflex
ENCODING 264
SWIDTH 600 0
DWIDTH 7 0
BBX 6 9 0 0
BITMAP
002C90
008263
019ED5
0B8126
2D0000
4A0000
2D0000
0B8128
01AED5
ENDCHAR
STARTCHAR ccircumflex
ENCODING 265
SWIDTH 600 0
DWIDTH 7 0
BBX 6 8 0 0
BITMAP
002C90
008264
000000
02BED4
0D6125
1D0000
0D6126
03BED4
ENDCHAR
STARTCHAR Cdotaccent
ENCODING 266
SWIDTH 600 0
DWIDTH 7 0
BBX 6 9 0 0
BITMAP
000A40
000000
019ED5
0B8126
2D0000
4A0000
2D0000
0B8128
01AED5
ENDCHAR
STARTCHAR cdotaccent
ENCODING 267
SWIDTH 600 0
DWIDTH 7 0
BBX 6 8 0 0
BITMAP
000B50
000000
000000
02BED4
0D6125
1D0000
0D6126
03BED4
ENDCHAR
STARTCHAR Ccaron
ENCODING 268
SWIDTH 600 0
DWIDTH 7 0
BBX 6 10 0 0
BITMAP
008263
002C90
000000
019ED5
0B8126
2D0000
4A0000
2D0000
0B8128
01AED5
ENDCHAR
STARTCHAR ccaron
ENCODING 269
SWIDTH 600 0
DWIDTH 7 0
BBX 6 8 0 0
BITMAP
008264
002C90
000000
02BED4
0D6125
1D0000
0D6126
03BED4
ENDCHAR
STARTCHAR Dcaron
ENCODING 270
SWIDTH 600 0
DWIDTH 7 0
BBX 7 10 0 0
BITMAP
02818000
008D2000
00000000
1FFD8100
1D02A900
1D001E00
1D000D10
1D001E00
1D02A800
1FFD8000
ENDCHAR
STARTCHAR dcaron
ENCODING 271
SWIDTH 600 0
DWIDTH 7 0
BBX 7 9 0 0
BITMAP
000000C0
000094B0
000094A0
00009400
06EDC400
3D22C400
58009400
3C22D400
08ECA400
ENDCHAR
STARTCHAR Dcroat
ENCODING 272
SWIDTH 600 0
DWIDTH 7 0
BBX 7 7 0 0
BITMAP
1FFD8100
1D02A900
1D001E00
DFF70E10
1D001E00
1D02B800
1FFD8000
ENDCHAR
STARTCHAR dcroat
ENCODING 273
SWIDTH 600 0
DWIDTH 7 0
BBX 7 8 0 0
BITMAP
00005900
004FFF50
00005900
05DEA900
2D318900
5A005900
2D21A900
07ED8900
ENDCHAR
STARTCHAR Emacron
ENCODING 274
SWIDTH 600 0
DWIDTH 7 0
BBX 5 9 1 0
BITMAP
0CFF20
000000
BFFFB0
B30000
B30000
BFFF30
B30000
B30000
BFFFC0
ENDCHAR
STARTCHAR emacron
ENCODING 275
SWIDTH 600 0
DWIDTH 7 0
BBX 6 7 0 0
BITMAP
00FFE0
000000
03CEB2
1D304B
3FFFFD
1C4123
03CEC4
ENDCHAR
STARTCHAR Ebreve
ENCODING 276
SWIDTH 600 0
DWIDTH 7 0
BBX 5 10 1 0
BITMAP
0A1820
06EA00
000000
BFFFB0
B30000
B30000
BFFF30
B30000
B30000
BFFFC0
ENDCHAR
STARTCHAR ebreve
ENCODING 277
SWIDTH 600 0
DWIDTH 7 0
BBX 6 8 0 0
BITMAP
0291A1
009E80
000000
03CEB2
1D304B
3FFFFD
1C4123
03CEC4
ENDCHAR
STARTCHAR Edotaccent
ENCODING 278
SWIDTH 600 0
DWIDTH 7 0
BBX 5 9 1 0
BITMAP
00C200
000000
BFFFB0
B30000
B30000
BFFF30
B30000
B30000
BFFFC0
ENDCHAR
STARTCHAR edotaccent
ENCODING 279
SWIDTH 600 0
DWIDTH 7 0
BBX 6 8 0 0
BITMAP
002D10
000000
000000
03CEB2
1D304B
3FFFFD
1C4123
03CEC4
ENDCHAR
STARTCHAR Eogonek
ENCODING 280
SWIDTH 600 0
DWIDTH 7 0
BBX 5 10 1 -3
BITMAP
BFFFB0
B30000
B30000
BFFF30
B30000
B30000
BFFFC0
000720
000B10
000CC0
ENDCHAR
STARTCHAR eogonek
ENCODING 281
SWIDTH 600 0
DWIDTH 7 0
BBX 6 8 0 -3
BITMAP
03CEB2
1D304B
3FFFFD
1C4123
03CFE4
000260
000651
0004E6
ENDCHAR
STARTCHAR Ecaron
ENCODING 282
SWIDTH 600 0
DWIDTH 7 0
BBX 5 10 1 0
BITMAP
091810
03D700
000000
BFFFB0
B30000
B30000
BFFF30
B30000
B30000
BFFFC0
ENDCHAR
STARTCHAR ecaron
ENCODING 283
SWIDTH 600 0
DWIDTH 7 0
BBX 6 8 0 0
BITMAP
019090
006D50
000000
03CEB2
1D304B
3FFFFD
1C4123
03CEC4
ENDCHAR
STARTCHAR Gcircumflex
ENCODING 284
SWIDTH 600 0
DWIDTH 7 0
BBX 6 9 0 0
BITMAP
003D70
009181
02AED4
0D7135
4B0000
6906FD
4B000D
0D612D
02BED6
ENDCHAR
STARTCHAR gcircumflex
ENCODING 285
SWIDTH 600 0
DWIDTH 7 0
BBX 7 10 0 -2
BITMAP
007D3000
02819000
00000000
04DFFF30
0D31B200
09DBD100
0A441000
09FFFB10
2B102D20
0AEFC500
ENDCHAR
STARTCHAR Gbreve
ENCODING 286
SWIDTH 600 0
DWIDTH 7 0
BBX 6 10 0 0
BITMAP
00A192
006E90
000000
02AED4
0D7135
4B0000
6906FD
4B000D
0D612D
02BED6
ENDCHAR
STARTCHAR gbreve
ENCODING 287
SWIDTH 600 0
DWIDTH 7 0
BBX 7 10 0 -2
BITMAP
0481B000
00AE7000
00000000
04DFFF30
0D31B200
09DBD100
0A441000
09FFFB10
2B102D20
0AEFC500
ENDCHAR
STARTCHAR Gdotaccent
ENCODING 288
SWIDTH 600 0
DWIDTH 7 0
BBX 6 9 0 0
BITMAP
000C20
000000
02AED4
0D7135
4B0000
6906FD
4B000D
0D612D
02BED6
ENDCHAR
STARTCHAR gdotaccent
ENCODING 289
SWIDTH 600 0
DWIDTH 7 0
BBX 7 10 0 -2
BITMAP
003D0000
00000000
00000000
04DFFF30
0D31B200
09DBD100
0A441000
09FFFB10
2B102D20
0AEFC500
ENDCHAR
STARTCHAR uni0122
ENCODING 290
SWIDTH 600 0
DWIDTH 7 0
BBX 6 10 0 -3
BITMAP
02AED4
0D7135
4B0000
6906FD
4B000D
0D612D
02BED6
000C30
000770
005C20
ENDCHAR
STARTCHAR uni0123
ENCODING 291
SWIDTH 600 0
DWIDTH 7 0
BBX 7 10 0 -2
BITMAP
003D6000
004D0000
00000000
04DFFF30
0D31B200
09DBD100
0A441000
09FFFB10
2B102D20
0AEFC500
ENDCHAR
STARTCHAR Hcircumflex
ENCODING 292
SWIDTH 600 0
DWIDTH 7 0
BBX 6 9 0 0
BITMAP
008D20
028180
2C003B
2C003B
2C003B
2FFFFB
2C003B
2C003B
2C003B
ENDCHAR
STARTCHAR hcircumflex
ENCODING 293
SWIDTH 600 0
DWIDTH 7 0
BBX 7 10 -1 0
BITMAP
06D40000
19090000
00E00000
00E00000
00E00000
00D7ED40
00F716A0
00E002B0
00E002B0
00E002B0
ENDCHAR
STARTCHAR Hbar
ENCODING 294
SWIDTH 600 0
DWIDTH 7 0
BBX 7 7 0 0
BITMAP
2C003B00
DFFFFF70
2C003B00
2FFFFB00
2C003B00
2C003B00
2C003B00
ENDCHAR
STARTCHAR hbar
ENCODING 295
SWIDTH 600 0
DWIDTH 7 0
BBX 6 8 0 0
BITMAP
0E0000
BFFF40
0E0000
0D7ED4
0F616A
0E002B
0E002B
0E002B
ENDCHAR
STARTCHAR Itilde
ENCODING 296
SWIDTH 600 0
DWIDTH 7 0
BBX 5 10 1 0
BITMAP
4E6730
83BC00
000000
EFFF80
02C000
02C000
02C000
02C000
02C000
EFFF80
ENDCHAR
STARTCHAR itilde
ENCODING 297
SWIDTH 600 0
DWIDTH 7 0
BBX 5 9 1 0
BITMAP
011020
0BD390
083E50
000000
FFF600
008600
008600
008600
008600
ENDCHAR
STARTCHAR Imacron
ENCODING 298
SWIDTH 600 0
DWIDTH 7 0
BBX 5 9 1 0
BITMAP
3FFC00
000000
EFFF80
02C000
02C000
02C000
02C000
02C000
EFFF80
ENDCHAR
STARTCHAR imacron
ENCODING 299
SWIDTH 600 0
DWIDTH 7 0
BBX 5 7 1 0
BITMAP
09FF40
000000
FFF600
008600
008600
008600
008600
ENDCHAR
STARTCHAR Ibreve
ENCODING 300
SWIDTH 600 0
DWIDTH 7 0
BBX 5 10 1 0
BITMAP
381A00
0AE500
000000
EFFF80
02C000
02C000
02C000
02C000
02C000
EFFF80
ENDCHAR
STARTCHAR ibreve
ENCODING 301
SWIDTH 600 0
DWIDTH 7 0
BBX 5 8 1 0
BITMAP
0A2570
04EC10
000000
FFF600
008600
008600
008600
008600
ENDCHAR
STARTCHAR Iogonek
ENCODING 302
SWIDTH 600 0
DWIDTH 7 0
BBX 5 10 1 -3
BITMAP
EFFF80
02C000
02C000
02C000
02C000
02C000
EFFF80
046000
0A2100
07E300
ENDCHAR
STARTCHAR iogonek
ENCODING 303
SWIDTH 600 0
DWIDTH 7 0
BBX 4 11 1 -3
BITMAP
00A5
0000
0000
FFF6
0086
0086
0086
0086
0081
0381
01DA
ENDCHAR
STARTCHAR Idotaccent
ENCODING 304
SWIDTH 600 0
DWIDTH 7 0
BBX 5 9 1 0
BITMAP
03B000
000000
EFFF80
02C000
02C000
02C000
02C000
02C000
EFFF80
ENDCHAR
STARTCHAR dotlessi
ENCODING 305
SWIDTH 600 0
DWIDTH 7 0
BBX 4 5 1 0
BITMAP
FFF6
0086
0086
0086
0086
ENDCHAR
STARTCHAR IJ
ENCODING 306
SWIDTH 600 0
DWIDTH 7 0
BBX 5 9 1 -2
BITMAP
C20860
C20860
C20860
C20860
C20860
C20860
C20860
000A50
00DC10
ENDCHAR
STARTCHAR ij
ENCODING 307
SWIDTH 600 0
DWIDTH 7 0
BBX 5 10 1 -2
BITMAP
C30690
000000
000000
C20580
C20580
C20580
C20580
C20580
000780
009E30
ENDCHAR
STARTCHAR Jcircumflex
ENCODING 308
SWIDTH 600 0
DWIDTH 7 0
BBX 5 9 1 0
BITMAP
04D600
091910
8FFF60
000760
000760
000760
000860
A21C40
5DE900
ENDCHAR
STARTCHAR jcircumflex
ENCODING 309
SWIDTH 600 0
DWIDTH 7 0
BBX 6 10 0 -2
BITMAP
001CA0
008254
000000
0FFF60
000860
000860
000860
000860
121B40
3DEA00
ENDCHAR
STARTCHAR uni0136
ENCODING 310
SWIDTH 600 0
DWIDTH 7 0
BBX 6 10 1 -3
BITMAP
E005A0
E04B10
E2D100
ECB500
E42D00
E00870
E001D2
00B400
006800
04C300
ENDCHAR
STARTCHAR uni0137
ENCODING 311
SWIDTH 600 0
DWIDTH 7 0
BBX 6 11 1 -3
BITMAP
C10000
C10000
C10000
C10860
C2B400
CC9700
C30B30
C102C1
00B400
006800
05C200
ENDCHAR
STARTCHAR kgreenlandic
ENCODING 312
SWIDTH 600 0
DWIDTH 7 0
BBX 6 5 1 0
BITMAP
C10870
C19600
CBC500
C51C20
C102C1
ENDCHAR
STARTCHAR Lacute
ENCODING 313
SWIDTH 600 0
DWIDTH 7 0
BBX 5 10 1 0
BITMAP
093000
660000
000000
860000
860000
860000
860000
860000
860000
8FFFE0
ENDCHAR
STARTCHAR lacute
ENCODING 314
SWIDTH 600 0
DWIDTH 7 0
BBX 6 11 0 0
BITMAP
000840
005700
000000
3FF900
004900
004900
004900
004900
004900
003C12
000BEA
ENDCHAR
STARTCHAR uni013B
ENCODING 315
SWIDTH 600 0
DWIDTH 7 0
BBX 5 10 1 -3
BITMAP
860000
860000
860000
860000
860000
860000
8FFFE0
00A500
004A00
03D400
ENDCHAR
STARTCHAR uni013C
ENCODING 316
SWIDTH 600 0
DWIDTH 7 0
BBX 6 11 0 -3
BITMAP
3FF900
004900
004900
004900
004900
004900
003C12
000BEA
0004B0
0001C1
000B80
ENDCHAR
STARTCHAR Lcaron
ENCODING 317
SWIDTH 600 0
DWIDTH 7 0
BBX 5 9 1 0
BITMAP
000C00
000B00
860A00
860000
860000
860000
860000
860000
8FFFE0
ENDCHAR
STARTCHAR lcaron
ENCODING 318
SWIDTH 600 0
DWIDTH 7 0
BBX 6 9 0 0
BITMAP
000093
3FF983
004982
004900
004900
004900
004900
003C12
000BEA
ENDCHAR
STARTCHAR Ldot
ENCODING 319
SWIDTH 600 0
DWIDTH 7 0
BBX 5 7 1 0
BITMAP
860000
860000
8606A0
860000
860000
860000
8FFFE0
ENDCHAR
STARTCHAR ldot
ENCODING 320
SWIDTH 600 0
DWIDTH 7 0
BBX 7 8 0 0
BITMAP
9FF30000
00B30000
00B30000
00B304B0
00B30000
00B30000
00A61100
004DE400
ENDCHAR
STARTCHAR Lslash
ENCODING 321
SWIDTH 600 0
DWIDTH 7 0
BBX 6 7 0 0
BITMAP
086000
086000
086490
09C600
8C6000
086000
08FFFE
ENDCHAR
STARTCHAR lslash
ENCODING 322
SWIDTH 600 0
DWIDTH 7 0
BBX 6 8 0 0
BITMAP
3FF900
004900
004B95
007C20
07A900
004900
003C12
000BEA
ENDCHAR
STARTCHAR Nacute
ENCODING 323
SWIDTH 600 0
DWIDTH 7 0
BBX 6 10 0 0
BITMAP
000470
002A10
000000
1F303B
1DA03B
1BA33B
1C3B3B
1C096B
1C02CB
1C009B
ENDCHAR
STARTCHAR nacute
ENCODING 324
SWIDTH 600 0
DWIDTH 7 0
BBX 5 8 1 0
BITMAP
003A00
01A100
000000
C7ED40
F716A0
E002B0
E002B0
E002B0
ENDCHAR
STARTCHAR uni0145
ENCODING 325
SWIDTH 600 0
DWIDTH 7 0
BBX 6 10 0 -3
BITMAP
1F303B
1DA03B
1BA33B
1C3B3B
1C096B
1C02CB
1C009B
003B00
001B20
00A900
ENDCHAR
STARTCHAR uni0146
ENCODING 326
SWIDTH 600 0
DWIDTH 7 0
BBX 5 8 1 -3
BITMAP
C7ED40
F716A0
E002B0
E002B0
E002B0
01C100
00A400
08A000
ENDCHAR
STARTCHAR Ncaron
ENCODING 327
SWIDTH 600 0
DWIDTH 7 0
BBX 6 10 0 0
BITMAP
019190
006D40
000000
1F303B
1DA03B
1BA33B
1C3B3B
1C096B
1C02CB
1C009B
ENDCHAR
STARTCHAR ncaron
ENCODING 328
SWIDTH 600 0
DWIDTH 7 0
BBX 5 8 1 0
BITMAP
190910
05D500
000000
C7ED40
F716A0
E002B0
E002B0
E002B0
ENDCHAR
STARTCHAR napostrophe
ENCODING 329
SWIDTH 600 0
DWIDTH 7 0
BBX 8 8 -1 0
BITMAP
1D500000
1E900000
04700000
1B1C7ED2
010D8188
000D1059
000D1059
000D1059
ENDCHAR
STARTCHAR Eng
ENCODING 330
SWIDTH 600 0
DWIDTH 7 0
BBX 6 7 0 0
BITMAP
1D9EC2
1F617A
1D000E
1D000E
1D000E
1D004B
1D08E4
ENDCHAR
STARTCHAR eng
ENCODING 331
SWIDTH 600 0
DWIDTH 7 0
BBX 5 7 1 -2
BITMAP
C7ED40
F716A0
E002B0
E002B0
E002B0
0004B0
007E50
ENDCHAR
STARTCHAR Omacron
ENCODING 332
SWIDTH 600 0
DWIDTH 7 0
BBX 7 9 0 0
BITMAP
03FFC000
00000000
04CEA100
1D419900
59001E00
77000E10
59001E00
1D419900
04CEA100
ENDCHAR
STARTCHAR omacron
ENCODING 333
SWIDTH 600 0
DWIDTH 7 0
BBX 6 7 0 0
BITMAP
02FFC0
000000
05DEA1
2D317A
4A001D
2D317A
05DEB2
ENDCHAR
STARTCHAR Obreve
ENCODING 334
SWIDTH 600 0
DWIDTH 7 0
BBX 7 10 0 0
BITMAP
0381A000
00AE5000
00000000
04CEA100
1D419900
59001E00
77000E10
59001E00
1D419900
04CEA100
ENDCHAR
STARTCHAR obreve
ENCODING 335
SWIDTH 600 0
DWIDTH 7 0
BBX 6 8 0 0
BITMAP
0571B0
00BE60
000000
05DEA1
2D317A
4A001D
2D317A
05DEB2
ENDCHAR
STARTCHAR Ohungarumlaut
ENCODING 336
SWIDTH 600 0
DWIDTH 7 0
BBX 7 10 0 0
BITMAP
00467300
00918000
00000000
04CEA100
1D419900
59001E00
77000E10
59001E00
1D419900
04CEA100
ENDCHAR
STARTCHAR ohungarumlaut
ENCODING 337
SWIDTH 600 0
DWIDTH 7 0
BBX 6 8 0 0
BITMAP
002773
008290
000000
05DEA1
2D317A
4A001D
2D317A
05DEB2
ENDCHAR
STARTCHAR OE
ENCODING 338
SWIDTH 600 0
DWIDTH 7 0
BBX 7 7 0 0
BITMAP
05DFFF60
3D394000
87094000
9509FD00
87094000
3D394000
06DFFF80
ENDCHAR
STARTCHAR oe
ENCODING 339
SWIDTH 600 0
DWIDTH 7 0
BBX 7 5 0 0
BITMAP
3DD3DC10
B43D2570
D00EFF80
B43E3110
3DD4DD30
ENDCHAR
STARTCHAR Racute
ENCODING 340
SWIDTH 600 0
DWIDTH 7 0
BBX 5 10 1 0
BITMAP
005700
029000
000000
EFFC30
E005C0
E005B0
EFFC30
E06900
E00C30
E004C0
ENDCHAR
STARTCHAR racute
ENCODING 341
SWIDTH 600 0
DWIDTH 7 0
BBX 5 8 1 0
BITMAP
001B10
008400
000000
669EB0
6E5010
680000
680000
680000
ENDCHAR
STARTCHAR uni0156
ENCODING 342
SWIDTH 600 0
DWIDTH 7 0
BBX 5 10 1 -3
BITMAP
EFFC30
E005C0
E005B0
EFFC30
E06900
E00C30
E004C0
00D200
009500
07B100
ENDCHAR
STARTCHAR uni0157
ENCODING 343
SWIDTH 600 0
DWIDTH 7 0
BBX 5 8 1 -3
BITMAP
669EB0
6E5010
680000
680000
680000
5A0000
1D0000
C70000
ENDCHAR
STARTCHAR Rcaron
ENCODING 344
SWIDTH 600 0
DWIDTH 7 0
BBX 5 10 1 0
BITMAP
181900
07D300
000000
EFFC30
E005C0
E005B0
EFFC30
E06900
E00C30
E004C0
ENDCHAR
STARTCHAR rcaron
ENCODING 345
SWIDTH 600 0
DWIDTH 7 0
BBX 5 8 1 0
BITMAP
082640
02C900
000000
669EB0
6E5010
680000
680000
680000
ENDCHAR
STARTCHAR Sacute
ENCODING 346
SWIDTH 600 0
DWIDTH 7 0
BBX 6 10 0 0
BITMAP
000480
001A10
000000
04CFB2
0D4145
0A8100
017DA1
00006B
1A305C
05DFC3
ENDCHAR
STARTCHAR sacute
ENCODING 347
SWIDTH 600 0
DWIDTH 7 0
BBX 6 8 0 0
BITMAP
000580
002900
000000
06DFA1
0C4152
028B93
18205B
05DFC4
ENDCHAR
STARTCHAR Scircumflex
ENCODING 348
SWIDTH 600 0
DWIDTH 7 0
BBX 6 9 0 0
BITMAP
005D40
009090
04CFB2
0D4145
0A8100
017DA1
00006B
1A305C
05DFC3
ENDCHAR
STARTCHAR scircumflex
ENCODING 349
SWIDTH 600 0
DWIDTH 7 0
BBX 6 8 0 0
BITMAP
008D30
028190
000000
06DFA1
0C4152
028B93
18205B
05DFC4
ENDCHAR
STARTCHAR uni015E
ENCODING 350
SWIDTH 600 0
DWIDTH 7 0
BBX 6 11 0 -4
BITMAP
04CFB2
0D4145
0A8100
017DA1
00006B
1A305C
05DFC3
000800
001E20
000950
007B10
ENDCHAR
STARTCHAR uni015F
ENCODING 351
SWIDTH 600 0
DWIDTH 7 0
BBX 6 9 0 -4
BITMAP
06DFA1
0C4152
028B93
18205B
05DFC4
000800
002E20
000940
008A00
ENDCHAR
STARTCHAR Scaron
ENCODING 352
SWIDTH 600 0
DWIDTH 7 0
BBX 6 10 0 0
BITMAP
009090
005D40
000000
04CFB2
0D4145
0A8100
017DA1
00006B
1A305C
05DFC3
ENDCHAR
STARTCHAR scaron
ENCODING 353
SWIDTH 600 0
DWIDTH 7 0
BBX 6 8 0 0
BITMAP
028190
008D30
000000
06DFA1
0C4152
028B93
18205B
05DFC4
ENDCHAR
STARTCHAR uni0162
ENCODING 354
SWIDTH 600 0
DWIDTH 7 0
BBX 7 11 0 -4
BITMAP
8FFFFF20
002C0000
002C0000
002C0000
002C0000
002C0000
002C0000
00170000
004D0000
001B2000
00A90000
ENDCHAR
STARTCHAR uni0163
ENCODING 355
SWIDTH 600 0
DWIDTH 7 0
BBX 6 11 0 -4
BITMAP
009300
00A300
3EFFFC
00B300
00B300
00A602
004DEB
000170
0004D0
0001B1
000A90
ENDCHAR
STARTCHAR Tcaron
ENCODING 356
SWIDTH 600 0
DWIDTH 7 0
BBX 7 10 0 0
BITMAP
02818000
008D2000
00000000
8FFFFF20
002C0000
002C0000
002C0000
002C0000
002C0000
002C0000
ENDCHAR
STARTCHAR tcaron
ENCODING 357
SWIDTH 600 0
DWIDTH 7 0
BBX 6 9 0 0
BITMAP
0000A3
000092
009391
00A300
3EFFFC
00B300
00B300
00A602
004DEB
ENDCHAR
STARTCHAR Tbar
ENCODING 358
SWIDTH 600 0
DWIDTH 7 0
BBX 7 7 0 0
BITMAP
8FFFFF20
002C0000
002C0000
0AFFF500
002C0000
002C0000
002C0000
ENDCHAR
STARTCHAR tbar
ENCODING 359
SWIDTH 600 0
DWIDTH 7 0
BBX 6 7 0 0
BITMAP
007200
00A300
3EFFFC
00B300
3EFFF9
00A502
004DEB
ENDCHAR
STARTCHAR Utilde
ENCODING 360
SWIDTH 600 0
DWIDTH 7 0
BBX 6 10 0 0
BITMAP
04E673
083BC0
000000
2C002B
2C002B
2C002B
2C002B
1D003A
0D4198
04DEB1
ENDCHAR
STARTCHAR utilde
ENCODING 361
SWIDTH 600 0
DWIDTH 7 0
BBX 6 9 0 0
BITMAP
003010
06D791
081AB0
000000
2C0058
2C0058
2C0058
1E22C8
09ED78
ENDCHAR
STARTCHAR Umacron
ENCODING 362
SWIDTH 600 0
DWIDTH 7 0
BBX 6 9 0 0
BITMAP
03FFC0
000000
2C002B
2C002B
2C002B
2C002B
1D003A
0D4198
04DEB1
ENDCHAR
STARTCHAR umacron
ENCODING 363
SWIDTH 600 0
DWIDTH 7 0
BBX 6 7 0 0
BITMAP
03FFB0
000000
2C0058
2C0058
2C0058
1E22C8
09ED78
ENDCHAR
STARTCHAR Ubreve
ENCODING 364
SWIDTH 600 0
DWIDTH 7 0
BBX 6 10 0 0
BITMAP
0381A0
00AE50
000000
2C002B
2C002B
2C002B
2C002B
1D003A
0D4198
04DEB1
ENDCHAR
STARTCHAR ubreve
ENCODING 365
SWIDTH 600 0
DWIDTH 7 0
BBX 6 8 0 0
BITMAP
0661B0
01BE50
000000
2C0058
2C0058
2C0058
1E22C8
09ED78
ENDCHAR
STARTCHAR Uring
ENCODING 366
SWIDTH 600 0
DWIDTH 7 0
BBX 6 10 0 0
BITMAP
007E20
009550
007E20
2C002B
2C002B
2C002B
2C002B
1D003A
0D4198
04DEB1
ENDCHAR
STARTCHAR uring
ENCODING 367
SWIDTH 600 0
DWIDTH 7 0
BBX 6 9 0 0
BITMAP
009E20
00B570
009E30
000000
2C0058
2C0058
2C0058
1E22C8
09ED78
ENDCHAR
STARTCHAR Uhungarumlaut
ENCODING 368
SWIDTH 600 0
DWIDTH 7 0
BBX 6 10 0 0
BITMAP
004673
009180
000000
2C002B
2C002B
2C002B
2C002B
1D003A
0D4198
04DEB1
ENDCHAR
STARTCHAR uhungarumlaut
ENCODING 369
SWIDTH 600 0
DWIDTH 7 0
BBX 6 8 0 0
BITMAP
003782
008280
000000
2C0058
2C0058
2C0058
1E22C8
09ED78
ENDCHAR
STARTCHAR Uogonek
ENCODING 370
SWIDTH 600 0
DWIDTH 7 0
BBX 6 10 0 -3
BITMAP
2C002B
2C002B
2C002B
2C002B
1D003B
0D4198
04DFB1
004700
009310
006E40
ENDCHAR
STARTCHAR uogonek
ENCODING 371
SWIDTH 600 0
DWIDTH 7 0
BBX 6 8 0 -3
BITMAP
2C0058
2C0058
2C0058
1E22C8
09ED78
000072
000381
0001DA
ENDCHAR
STARTCHAR Wcircumflex
ENCODING 372
SWIDTH 600 0
DWIDTH 7 0
BBX 7 9 0 0
BITMAP
008D2000
02818000
C3000860
A5020A40
874E0C20
588B3D00
3AB58C00
1CA1CA00
0D70C800
ENDCHAR
STARTCHAR wcircumflex
ENCODING 373
SWIDTH 600 0
DWIDTH 7 0
BBX 7 8 0 0
BITMAP
008D3000
03719000
00000000
C1290760
856D1A30
58A75C00
1BB3AB00
0D80D700
ENDCHAR
STARTCHAR Ycircumflex
ENCODING 374
SWIDTH 600 0
DWIDTH 7 0
BBX 6 9 0 0
BITMAP
008D20
028180
5A001C
0B3086
04A1C0
00AB50
003C00
002C00
002C00
ENDCHAR
STARTCHAR ycircumflex
ENCODING 375
SWIDTH 600 0
DWIDTH 7 0
BBX 6 10 0 -2
BITMAP
007D30
028190
000000
3A001C
0B3076
04A0C0
00B680
004E10
016900
2EB100
ENDCHAR
STARTCHAR Ydieresis
ENCODING 376
SWIDTH 600 0
DWIDTH 7 0
BBX 6 9 0 0
BITMAP
02A2A0
000000
5A001C
0B3086
04A1C0
00AB50
003C00
002C00
002C00
ENDCHAR
STARTCHAR Zacute
ENCODING 377
SWIDTH 600 0
DWIDTH 7 0
BBX 6 10 0 0
BITMAP
000480
001A10
000000
0EFFFD
0000A5
000680
003B00
01C100
0A4000
4FFFFE
ENDCHAR
STARTCHAR zacute
ENCODING 378
SWIDTH 600 0
DWIDTH 7 0
BBX 6 8 0 0
BITMAP
0003A0
000A10
000000
0CFFFA
0003B1
004A10
069000
3FFFFD
ENDCHAR
STARTCHAR Zdotaccent
ENCODING 379
SWIDTH 600 0
DWIDTH 7 0
BBX 6 9 0 0
BITMAP
001D10
000000
0EFFFD
0000A5
000680
003B00
01C100
0A4000
4FFFFE
ENDCHAR
STARTCHAR zdotaccent
ENCODING 380
SWIDTH 600 0
DWIDTH 7 0
BBX 6 8 0 0
BITMAP
001D20
000000
000000
0CFFFA
0003B1
004A10
069000
3FFFFD
ENDCHAR
STARTCHAR Zcaron
ENCODING 381
SWIDTH 600 0
DWIDTH 7 0
BBX 6 10 0 0
BITMAP
009090
005D50
000000
0EFFFD
0000A5
000680
003B00
01C100
0A4000
4FFFFE
ENDCHAR
STARTCHAR zcaron
ENCODING 382
SWIDTH 600 0
DWIDTH 7 0
BBX 6 8 0 0
BITMAP
009091
005D60
000000
0CFFFA
0003B1
004A10
069000
3FFFFD
ENDCHAR
STARTCHAR longs
ENCODING 383
SWIDTH 600 0
DWIDTH 7 0
BBX 6 8 1 0
BITMAP
008ED3
03C111
058000
CF8000
058000
058000
058000
058000
ENDCHAR
STARTCHAR uni0180
ENCODING 384
SWIDTH 600 0
DWIDTH 7 0
BBX 6 8 0 0
BITMAP
0E0000
BFFF40
0E0000
0E9EC3
0E516C
0E001D
0E517A
0DAEB2
ENDCHAR
STARTCHAR uni018A
ENCODING 394
SWIDTH 600 0
DWIDTH 7 0
BBX 7 7 0 0
BITMAP
08EEA100
78B47B00
B1B30D10
95B30B30
16B30D20
00B46C00
00BEB200
ENDCHAR
STARTCHAR uni018F
ENCODING 399
SWIDTH 600 0
DWIDTH 7 0
BBX 6 7 0 0
BITMAP
02CEA1
043189
00000D
5FFFFF
3A000D
0C4188
02CE91
ENDCHAR
STARTCHAR uni0192
ENCODING 402
SWIDTH 600 0
DWIDTH 7 0
BBX 6 8 0 -1
BITMAP
0007EB
001D11
05FFF5
004900
005800
007600
01C300
5E9000
ENDCHAR
STARTCHAR uni0193
ENCODING 403
SWIDTH 600 0
DWIDTH 7 0
BBX 7 9 0 0
BITMAP
00002E50
00006700
02AEE800
0D713500
4B000000
6906FD00
4B000D00
0D612D00
02BED600
ENDCHAR
STARTCHAR Ohorn
ENCODING 416
SWIDTH 600 0
DWIDTH 7 0
BBX 7 9 0 0
BITMAP
00000910
00000B20
04CEC800
1D419800
59001E00
77000E10
59001E00
1D419900
04CEA100
ENDCHAR
STARTCHAR ohorn
ENCODING 417
SWIDTH 600 0
DWIDTH 7 0
BBX 7 7 0 0
BITMAP
00000910
00000C10
05DED700
2D317900
4A001E00
2D317B00
05DEB200
ENDCHAR
STARTCHAR Uhorn
ENCODING 431
SWIDTH 600 0
DWIDTH 7 0
BBX 7 9 0 0
BITMAP
000000A0
000002D0
2C002F60
2C002B00
2C002B00
2C002B00
1D003B00
0D419800
04DEB100
ENDCHAR
STARTCHAR uhorn
ENCODING 432
SWIDTH 600 0
DWIDTH 7 0
BBX 7 7 0 0
BITMAP
00000370
00000780
2C005E30
2C005800
2C005800
1E22C800
09ED7800
ENDCHAR
STARTCHAR uni01C2
ENCODING 450
SWIDTH 600 0
DWIDTH 7 0
BBX 6 10 0 -2
BITMAP
002B00
002B00
002B00
002B00
1EFFFA
002B00
1EFFFA
002B00
002B00
002B00
ENDCHAR
STARTCHAR uni01CD
ENCODING 461
SWIDTH 600 0
DWIDTH 7 0
BBX 7 10 0 0
BITMAP
02818000
008D2000
00000000
006E1000
00B85000
01A2A000
0660C100
0CFFF600
2C004B00
77000D10
ENDCHAR
STARTCHAR uni01CE
ENCODING 462
SWIDTH 600 0
DWIDTH 7 0
BBX 6 8 0 0
BITMAP
019091
005D50
000000
04CEC2
063189
04ADFA
1E427A
0AED8A
ENDCHAR
STARTCHAR uni01CF
ENCODING 463
SWIDTH 600 0
DWIDTH 7 0
BBX 5 10 1 0
BITMAP
281800
08D200
000000
EFFF80
02C000
02C000
02C000
02C000
02C000
EFFF80
ENDCHAR
STARTCHAR uni01D0
ENCODING 464
SWIDTH 600 0
DWIDTH 7 0
BBX 5 8 1 0
BITMAP
082540
02CA00
000000
FFF600
008600
008600
008600
008600
ENDCHAR
STARTCHAR uni01D1
ENCODING 465
SWIDTH 600 0
DWIDTH 7 0
BBX 7 10 0 0
BITMAP
02818000
008D2000
00000000
04CEA100
1D419900
59001E00
77000E10
59001E00
1D419900
04CEA100
ENDCHAR
STARTCHAR uni01D2
ENCODING 466
SWIDTH 600 0
DWIDTH 7 0
BBX 6 8 0 0
BITMAP
037190
008D30
000000
05DEA1
2D317A
4A001D
2D317A
05DEB2
ENDCHAR
STARTCHAR uni01D3
ENCODING 467
SWIDTH 600 0
DWIDTH 7 0
BBX 6 10 0 0
BITMAP
028180
008D20
000000
2C002B
2C002B
2C002B
2C002B
1D003A
0D4198
04DEB1
ENDCHAR
STARTCHAR uni01D4
ENCODING 468
SWIDTH 600 0
DWIDTH 7 0
BBX 6 8 0 0
BITMAP
036180
009D20
000000
2C0058
2C0058
2C0058
1E22C8
09ED78
ENDCHAR
STARTCHAR uni01D5
ENCODING 469
SWIDTH 600 0
DWIDTH 7 0
BBX 6 11 0 0
BITMAP
03FFC0
000000
0380B0
000000
2C002B
2C002B
2C002B
2C002B
1D003A
0D4198
04DEB1
ENDCHAR
STARTCHAR uni01D6
ENCODING 470
SWIDTH 600 0
DWIDTH 7 0
BBX 6 9 0 0
BITMAP
03FFB0
000000
0381A0
000000
2C0058
2C0058
2C0058
1E22C8
09ED78
ENDCHAR
STARTCHAR uni01D7
ENCODING 471
SWIDTH 600 0
DWIDTH 7 0
BBX 6 11 0 0
BITMAP
000640
000900
0380B0
000000
2C002B
2C002B
2C002B
2C002B
1D003A
0D4198
04DEB1
ENDCHAR
STARTCHAR uni01D8
ENCODING 472
SWIDTH 600 0
DWIDTH 7 0
BBX 6 10 0 0
BITMAP
000810
001700
000000
0381A0
000000
2C0058
2C0058
2C0058
1E22C8
09ED78
ENDCHAR
STARTCHAR uni01D9
ENCODING 473
SWIDTH 600 0
DWIDTH 7 0
BBX 6 10 0 0
BITMAP
008850
0380B0
000000
2C002B
2C002B
2C002B
2C002B
1D003A
0D4198
04DEB1
ENDCHAR
STARTCHAR uni01DA
ENCODING 474
SWIDTH 600 0
DWIDTH 7 0
BBX 6 9 0 0
BITMAP
008840
000000
0381A0
000000
2C0058
2C0058
2C0058
1E22C8
09ED78
ENDCHAR
STARTCHAR uni01DB
ENCODING 475
SWIDTH 600 0
DWIDTH 7 0
BBX 6 11 0 0
BITMAP
009100
002700
0380B0
000000
2C002B
2C002B
2C002B
2C002B
1D003A
0D4198
04DEB1
ENDCHAR
STARTCHAR uni01DC
ENCODING 476
SWIDTH 600 0
DWIDTH 7 0
BBX 6 10 0 0
BITMAP
007200
001700
000000
0381A0
000000
2C0058
2C0058
2C0058
1E22C8
09ED78
ENDCHAR
STARTCHAR uni01E2
ENCODING 482
SWIDTH 600 0
DWIDTH 7 0
BBX 7 9 0 0
BITMAP
000DFF10
00000000
005FFF60
00BA5000
02A85000
0848FE00
1EFF5000
68085000
C208FF80
ENDCHAR
STARTCHAR uni01E3
ENCODING 483
SWIDTH 600 0
DWIDTH 7 0
BBX 7 7 0 0
BITMAP
00FFE000
00000000
4DD6DC10
3ADD1570
982FFF80
C34C2210
6EB6DD30
ENDCHAR
STARTCHAR Gcaron
ENCODING 486
SWIDTH 600 0
DWIDTH 7 0
BBX 6 10 0 0
BITMAP
009181
003D70
000000
02AED4
0D7135
4B0000
6906FD
4B000D
0D612D
02BED6
ENDCHAR
STARTCHAR gcaron
ENCODING 487
SWIDTH 600 0
DWIDTH 7 0
BBX 7 10 0 -2
BITMAP
02819000
007D3000
00000000
04DFFF30
0D31B200
09DBD100
0A441000
09FFFB10
2B102D20
0AEFC500
ENDCHAR
STARTCHAR uni01EA
ENCODING 490
SWIDTH 600 0
DWIDTH 7 0
BBX 7 10 0 -3
BITMAP
04CE9100
1D419900
59001E00
77000E10
59001E00
1D419900
04CFA100
00370000
00931000
006E4000
ENDCHAR
STARTCHAR uni01EB
ENCODING 491
SWIDTH 600 0
DWIDTH 7 0
BBX 6 8 0 -3
BITMAP
05DEA1
2D317A
4A001D
2D317A
05DFA1
002700
007410
004E50
ENDCHAR
STARTCHAR uni01F4
ENCODING 500
SWIDTH 600 0
DWIDTH 7 0
BBX 6 10 0 0
BITMAP
0002A0
000A20
000000
02AED4
0D7135
4B0000
6906FD
4B000D
0D612D
02BED6
ENDCHAR
STARTCHAR uni01F5
ENCODING 501
SWIDTH 600 0
DWIDTH 7 0
BBX 7 10 0 -2
BITMAP
00048000
001A1000
00000000
04DFFF30
0D31B200
09DBD100
0A441000
09FFFB10
2B102D20
0AEFC500
ENDCHAR
STARTCHAR uni01F8
ENCODING 504
SWIDTH 600 0
DWIDTH 7 0
BBX 6 10 0 0
BITMAP
009300
001A00
000000
1F303B
1DA03B
1BA33B
1C3B3B
1C096B
1C02CB
1C009B
ENDCHAR
STARTCHAR uni01F9
ENCODING 505
SWIDTH 600 0
DWIDTH 7 0
BBX 5 8 1 0
BITMAP
0A3000
01A100
000000
C7ED40
F716A0
E002B0
E002B0
E002B0
ENDCHAR
STARTCHAR Aringacute
ENCODING 506
SWIDTH 600 0
DWIDTH 7 0
BBX 7 10 0 0
BITMAP
00063000
00632000
008E3000
006E1000
00B95000
01B3A000
0660C100
0CFFF600
2C004B00
77000D10
ENDCHAR
STARTCHAR aringacute
ENCODING 507
SWIDTH 600 0
DWIDTH 7 0
BBX 6 9 0 0
BITMAP
000350
007270
007E70
000000
04CEC2
063069
02232A
1D12AA
0AED8A
ENDCHAR
STARTCHAR AEacute
ENCODING 508
SWIDTH 600 0
DWIDTH 7 0
BBX 7 10 0 0
BITMAP
00002900
0000A200
00000000
005FFF60
00BA5000
02A85000
0848FE00
1EFF5000
68085000
C208FF80
ENDCHAR
STARTCHAR aeacute
ENCODING 509
SWIDTH 600 0
DWIDTH 7 0
BBX 7 8 0 0
BITMAP
00039000
001A1000
00000000
4DD6DC10
3ADD1570
982FFF80
C34C2210
6EB6DD30
ENDCHAR
STARTCHAR Oslashacute
ENCODING 510
SWIDTH 600 0
DWIDTH 7 0
BBX 7 11 0 -1
BITMAP
00066000
00390000
00000100
04CEAB00
1E41C900
59077E00
773A0E10
5AB11E00
1E619900
5ADEA100
10000000
ENDCHAR
STARTCHAR oslashacute
ENCODING 511
SWIDTH 600 0
DWIDTH 7 0
BBX 6 9 0 -1
BITMAP
000570
002900
000001
05DEB9
2E34CA
4A3A1D
2DA18A
1BDEB2
010000
ENDCHAR
STARTCHAR uni0218
ENCODING 536
SWIDTH 600 0
DWIDTH 7 0
BBX 6 10 0 -3
BITMAP
04CFB2
0D4145
0A8100
017DA1
00006B
1A305C
05DFC3
001C10
000A40
008A00
ENDCHAR
STARTCHAR uni0219
ENCODING 537
SWIDTH 600 0
DWIDTH 7 0
BBX 6 8 0 -3
BITMAP
06DFA1
0C4152
028B93
18205B
05DFC4
002C10
001A30
009A00
ENDCHAR
STARTCHAR uni021A
ENCODING 538
SWIDTH 600 0
DWIDTH 7 0
BBX 7 10 0 -3
BITMAP
8FFFFF20
002C0000
002C0000
002C0000
002C0000
002C0000
002C0000
003B0000
001B2000
00A90000
ENDCHAR
STARTCHAR uni021B
ENCODING 539
SWIDTH 600 0
DWIDTH 7 0
BBX 6 10 0 -3
BITMAP
009300
00A300
3EFFFC
00B300
00B300
00A602
004DEB
0005A0
0001D0
000C70
ENDCHAR
STARTCHAR uni0237
ENCODING 567
SWIDTH 600 0
DWIDTH 7 0
BBX 5 7 0 -2
BITMAP
0FFF60
000860
000860
000860
000860
121B40
3DEA00
ENDCHAR
STARTCHAR uni0243
ENCODING 579
SWIDTH 600 0
DWIDTH 7 0
BBX 7 7 0 0
BITMAP
0DFFD400
0D117900
0DFFD200
0D104C00
AFF90D10
0D105D00
0DFFC300
ENDCHAR
STARTCHAR uni0250
ENCODING 592
SWIDTH 600 0
DWIDTH 7 0
BBX 5 5 1 0
BITMAP
D8DE60
E737B0
FED920
D31440
5DEA20
ENDCHAR
STARTCHAR uni0251
ENCODING 593
SWIDTH 600 0
DWIDTH 7 0
BBX 6 5 0 0
BITMAP
05DEA9
2D3199
5A0059
2D21A9
07ED99
ENDCHAR
STARTCHAR uni0252
ENCODING 594
SWIDTH 600 0
DWIDTH 7 0
BBX 5 5 1 0
BITMAP
DAEC30
E516C0
E001D0
E417A0
DBEB20
ENDCHAR
STARTCHAR uni0253
ENCODING 595
SWIDTH 600 0
DWIDTH 7 0
BBX 5 8 1 0
BITMAP
5ED000
D31000
E00000
E9EC30
E516C0
E001D0
E417A0
DBEB20
ENDCHAR
STARTCHAR uni0254
ENCODING 596
SWIDTH 600 0
DWIDTH 7 0
BBX 6 5 0 0
BITMAP
08EE80
1612B7
00004A
2612B7
08EE80
ENDCHAR
STARTCHAR uni0255
ENCODING 597
SWIDTH 600 0
DWIDTH 7 0
BBX 6 6 0 -1
BITMAP
03BED4
0D6125
1D09E9
0BC92C
04DEE5
073000
ENDCHAR
STARTCHAR uni0256
ENCODING 598
SWIDTH 600 0
DWIDTH 7 0
BBX 7 10 0 -2
BITMAP
00005800
00005800
00005800
05DEB800
2D319800
5A005800
2D21A800
07EDA800
00005A00
00001D80
ENDCHAR
STARTCHAR uni0257
ENCODING 599
SWIDTH 600 0
DWIDTH 7 0
BBX 7 8 0 0
BITMAP
00001C90
00005A00
00005800
05DEB800
2D319800
5A005800
2D21A800
07ED9800
ENDCHAR
STARTCHAR uni0258
ENCODING 600
SWIDTH 600 0
DWIDTH 7 0
BBX 6 5 0 0
BITMAP
05DEA1
2B2179
4FFFFC
051179
08EE91
ENDCHAR
STARTCHAR uni0259
ENCODING 601
SWIDTH 600 0
DWIDTH 7 0
BBX 6 5 0 0
BITMAP
06DEA1
04116A
3FFFFD
1C216A
05DEB1
ENDCHAR
STARTCHAR uni025A
ENCODING 602
SWIDTH 600 0
DWIDTH 7 0
BBX 7 5 0 0
BITMAP
2CEA0000
121CBA00
289898A0
96196000
2CEA0000
ENDCHAR
STARTCHAR uni025B
ENCODING 603
SWIDTH 600 0
DWIDTH 7 0
BBX 5 5 1 0
BITMAP
4DFC30
971340
4EF600
E30260
7DFC40
ENDCHAR
STARTCHAR uni025C
ENCODING 604
SWIDTH 600 0
DWIDTH 7 0
BBX 6 5 0 0
BITMAP
07EEB1
0611B4
00CFC1
161189
08DEC3
ENDCHAR
STARTCHAR uni025E
ENCODING 606
SWIDTH 600 0
DWIDTH 7 0
BBX 6 5 0 0
BITMAP
04CFD3
1D4178
4A0BE3
2D304D
05CFD6
ENDCHAR
STARTCHAR uni025F
ENCODING 607
SWIDTH 600 0
DWIDTH 7 0
BBX 7 7 0 -2
BITMAP
0FFF6000
00086000
09EFFF30
00086000
00086000
121B5000
3DEA0000
ENDCHAR
STARTCHAR uni0260
ENCODING 608
SWIDTH 600 0
DWIDTH 7 0
BBX 7 9 0 -2
BITMAP
00001C90
00004A00
05DEB800
2D319800
5A005800
2E54B800
05BB9800
0411A700
07DEA100
ENDCHAR
STARTCHAR uni0261
ENCODING 609
SWIDTH 600 0
DWIDTH 7 0
BBX 6 7 0 -2
BITMAP
05DE99
2D3199
590059
2D21A9
07EDA9
041197
07EEA1
ENDCHAR
STARTCHAR uni0262
ENCODING 610
SWIDTH 600 0
DWIDTH 7 0
BBX 6 5 0 0
BITMAP
02BED3
0D6135
1D07FC
0D512C
03BED6
ENDCHAR
STARTCHAR uni0263
ENCODING 611
SWIDTH 600 0
DWIDTH 7 0
BBX 6 7 0 -2
BITMAP
3B002B
0A3084
03A1B0
00AA50
007E10
00C580
00AE50
ENDCHAR
STARTCHAR uni0264
ENCODING 612
SWIDTH 600 0
DWIDTH 7 0
BBX 6 5 0 0
BITMAP
3EA5DB
01AD41
056191
0A61B4
04DFB1
ENDCHAR
STARTCHAR uni0265
ENCODING 613
SWIDTH 600 0
DWIDTH 7 0
BBX 6 7 0 -2
BITMAP
2B0059
2B0059
2B0059
1E22B9
09ED89
000059
000059
ENDCHAR
STARTCHAR uni0266
ENCODING 614
SWIDTH 600 0
DWIDTH 7 0
BBX 5 8 1 0
BITMAP
5ED000
D31000
E00000
D7ED40
F716A0
E002B0
E002B0
E002B0
ENDCHAR
STARTCHAR uni0267
ENCODING 615
SWIDTH 600 0
DWIDTH 7 0
BBX 5 10 1 -2
BITMAP
5ED000
D31000
E00000
D7ED40
F716A0
E002B0
E002B0
E002B0
0004B0
008E50
ENDCHAR
STARTCHAR uni0268
ENCODING 616
SWIDTH 600 0
DWIDTH 7 0
BBX 6 8 1 0
BITMAP
00A500
000000
000000
FFF600
008600
8EFFF3
008600
008600
ENDCHAR
STARTCHAR uni026A
ENCODING 618
SWIDTH 600 0
DWIDTH 7 0
BBX 6 5 0 0
BITMAP
1FFFFA
002B00
002B00
002B00
1FFFFA
ENDCHAR
STARTCHAR uni026B
ENCODING 619
SWIDTH 600 0
DWIDTH 7 0
BBX 6 8 0 0
BITMAP
3FF900
016910
0AFF83
085FC0
004900
004900
003C12
000BEA
ENDCHAR
STARTCHAR uni026C
ENCODING 620
SWIDTH 600 0
DWIDTH 7 0
BBX 6 8 0 0
BITMAP
3FF900
004900
0DD900
2B7900
0AFFF2
004900
004B12
000BEA
ENDCHAR
STARTCHAR uni026D
ENCODING 621
SWIDTH 600 0
DWIDTH 7 0
BBX 6 10 0 -2
BITMAP
3FF900
004900
004900
004900
004900
004900
004900
004900
003C11
000BEA
ENDCHAR
STARTCHAR uni026E
ENCODING 622
SWIDTH 600 0
DWIDTH 7 0
BBX 7 10 0 -2
BITMAP
2C000000
2C000000
2C000000
2FFFFD00
2C007300
2C045000
2C1EE800
2C011C30
01612D20
008EE600
ENDCHAR
STARTCHAR uni026F
ENCODING 623
SWIDTH 600 0
DWIDTH 7 0
BBX 6 5 0 0
BITMAP
85390E
85390E
85390E
877B3E
4E9CCC
ENDCHAR
STARTCHAR uni0270
ENCODING 624
SWIDTH 600 0
DWIDTH 7 0
BBX 6 7 0 -2
BITMAP
85390E
85390E
85390E
877B3E
4E9CCD
00000D
00000D
ENDCHAR
STARTCHAR uni0271
ENCODING 625
SWIDTH 600 0
DWIDTH 7 0
BBX 7 7 0 -2
BITMAP
5BE8DC00
5B3E2D20
580C0C20
580C0C20
580C0C20
00001D20
0000CB00
ENDCHAR
STARTCHAR uni0272
ENCODING 626
SWIDTH 600 0
DWIDTH 7 0
BBX 6 7 0 -2
BITMAP
0C7ED4
0E716A
0E002B
0E002B
0E002B
1E0000
EA0000
ENDCHAR
STARTCHAR uni0273
ENCODING 627
SWIDTH 600 0
DWIDTH 7 0
BBX 6 7 1 -2
BITMAP
C7ED30
F717A0
E003B0
E003B0
E003B0
0003C0
0000CB
ENDCHAR
STARTCHAR uni0274
ENCODING 628
SWIDTH 600 0
DWIDTH 7 0
BBX 5 5 1 0
BITMAP
E40580
CB2580
C3B580
D06A80
D00A80
ENDCHAR
STARTCHAR uni0275
ENCODING 629
SWIDTH 600 0
DWIDTH 7 0
BBX 6 5 0 0
BITMAP
05DEB2
2C205A
4FFFFD
2C205A
05DEB2
ENDCHAR
STARTCHAR uni0276
ENCODING 630
SWIDTH 600 0
DWIDTH 7 0
BBX 7 5 0 0
BITMAP
0AEFFF50
7A194000
9509FE00
7A194000
1AFFFF70
ENDCHAR
STARTCHAR uni0278
ENCODING 632
SWIDTH 600 0
DWIDTH 7 0
BBX 7 10 0 -2
BITMAP
002B0000
002B0000
002B0000
07EFC300
4C4B5D00
772B0D10
4C4B5D00
07EFC300
002B0000
002B0000
ENDCHAR
STARTCHAR uni0279
ENCODING 633
SWIDTH 600 0
DWIDTH 7 0
BBX 5 5 0 0
BITMAP
0000E0
0000E0
0000E0
0129E0
3ED5C0
ENDCHAR
STARTCHAR uni027A
ENCODING 634
SWIDTH 600 0
DWIDTH 7 0
BBX 5 8 0 0
BITMAP
0000E0
0000E0
0000E0
0000E0
0000E0
0000E0
012AE0
3ED5C0
ENDCHAR
STARTCHAR uni027B
ENCODING 635
SWIDTH 600 0
DWIDTH 7 0
BBX 6 7 0 -2
BITMAP
000B20
000B20
000B20
014E20
3EBB20
000A41
0004E8
ENDCHAR
STARTCHAR uni027D
ENCODING 637
SWIDTH 600 0
DWIDTH 7 0
BBX 5 7 1 -2
BITMAP
669EB0
6E6110
680000
680000
680000
5B1110
0BED30
ENDCHAR
STARTCHAR uni027E
ENCODING 638
SWIDTH 600 0
DWIDTH 7 0
BBX 5 5 1 0
BITMAP
06DFB0
3E4010
690000
680000
680000
ENDCHAR
STARTCHAR uni0280
ENCODING 640
SWIDTH 600 0
DWIDTH 7 0
BBX 5 5 1 0
BITMAP
EFFD50
E006B0
EFFD40
E03C10
E00690
ENDCHAR
STARTCHAR uni0281
ENCODING 641
SWIDTH 600 0
DWIDTH 7 0
BBX 6 5 0 0
BITMAP
1C1068
04B068
08FFF8
2D2068
0AEFF8
ENDCHAR
STARTCHAR uni0282
ENCODING 642
SWIDTH 600 0
DWIDTH 7 0
BBX 6 7 0 -2
BITMAP
06DFA1
0C4152
028B93
18205B
3DDFC4
2B0000
0BC000
ENDCHAR
STARTCHAR uni0283
ENCODING 643
SWIDTH 600 0
DWIDTH 7 0
BBX 6 10 0 -2
BITMAP
0009EB
001D12
002C00
002C00
002C00
002C00
002C00
002C00
115B00
3EE400
ENDCHAR
STARTCHAR uni0284
ENCODING 644
SWIDTH 600 0
DWIDTH 7 0
BBX 6 10 0 -2
BITMAP
0008EB
001D12
002C00
002C00
002C00
1EFFFA
002C00
002C00
114B00
3EE500
ENDCHAR
STARTCHAR uni0287
ENCODING 647
SWIDTH 600 0
DWIDTH 7 0
BBX 6 7 0 -2
BITMAP
3DEA00
111B40
000850
000850
3FFFFC
000840
000830
ENDCHAR
STARTCHAR uni0288
ENCODING 648
SWIDTH 600 0
DWIDTH 7 0
BBX 6 9 0 -2
BITMAP
009300
00A300
3EFFFC
00B300
00B300
00B300
00B300
00A602
003DEB
ENDCHAR
STARTCHAR uni0289
ENCODING 649
SWIDTH 600 0
DWIDTH 7 0
BBX 7 5 0 0
BITMAP
0E009500
EFFFFF70
0E009500
0D32D500
06ECA500
ENDCHAR
STARTCHAR uni028A
ENCODING 650
SWIDTH 600 0
DWIDTH 7 0
BBX 7 5 0 0
BITMAP
7FA1FF10
0A206500
3A001D00
3D317C00
06DEB200
ENDCHAR
STARTCHAR uni028B
ENCODING 651
SWIDTH 600 0
DWIDTH 7 0
BBX 6 5 0 0
BITMAP
2C06E6
2C003D
2C001D
1E3189
05DEA1
ENDCHAR
STARTCHAR uni028C
ENCODING 652
SWIDTH 600 0
DWIDTH 7 0
BBX 6 5 0 0
BITMAP
007D10
00C670
0581C0
0B1085
3A002C
ENDCHAR
STARTCHAR uni028D
ENCODING 653
SWIDTH 600 0
DWIDTH 7 0
BBX 7 5 0 0
BITMAP
0D80E700
2AB3AA00
57B74D00
947C1B20
C1380860
ENDCHAR
STARTCHAR uni028E
ENCODING 654
SWIDTH 600 0
DWIDTH 7 0
BBX 6 8 0 0
BITMAP
0003CC
000C40
003A00
009C10
01B670
0760C0
0C1086
49001C
ENDCHAR
STARTCHAR uni028F
ENCODING 655
SWIDTH 600 0
DWIDTH 7 0
BBX 6 5 0 0
BITMAP
2C104A
0591C1
00AB50
003C00
002C00
ENDCHAR
STARTCHAR uni0290
ENCODING 656
SWIDTH 600 0
DWIDTH 7 0
BBX 7 7 0 -2
BITMAP
0CFFFA00
0004B100
005A1000
06900000
3FFFFA00
00003C00
00000CB0
ENDCHAR
STARTCHAR uni0291
ENCODING 657
SWIDTH 600 0
DWIDTH 7 0
BBX 7 7 0 -2
BITMAP
0CFFF800
0004C200
005A8E30
0681A750
3FFFFC10
00091000
00020000
ENDCHAR
STARTCHAR uni0292
ENCODING 658
SWIDTH 600 0
DWIDTH 7 0
BBX 6 7 0 -2
BITMAP
0EFFF8
001540
03EEB2
001189
00003B
2811A7
07DE90
ENDCHAR
STARTCHAR uni0294
ENCODING 660
SWIDTH 600 0
DWIDTH 7 0
BBX 6 8 0 0
BITMAP
06DE90
1921A7
000058
0000B3
002B40
006800
006800
006800
ENDCHAR
STARTCHAR uni0295
ENCODING 661
SWIDTH 600 0
DWIDTH 7 0
BBX 5 8 1 0
BITMAP
3CEB20
D50470
D00000
950000
089000
00D000
00D000
00D000
ENDCHAR
STARTCHAR uni0298
ENCODING 664
SWIDTH 600 0
DWIDTH 7 0
BBX 6 8 0 0
BITMAP
02CE90
0C51A7
3B002C
48280D
58270D
3B002C
0D41A7
03CE90
ENDCHAR
STARTCHAR uni0299
ENCODING 665
SWIDTH 600 0
DWIDTH 7 0
BBX 5 5 1 0
BITMAP
BFFE60
B204B0
BFFF60
B202E0
BFFE80
ENDCHAR
STARTCHAR uni029C
ENCODING 668
SWIDTH 600 0
DWIDTH 7 0
BBX 5 5 1 0
BITMAP
E00590
E00590
FFFF90
E00590
E00590
ENDCHAR
STARTCHAR uni029D
ENCODING 669
SWIDTH 600 0
DWIDTH 7 0
BBX 6 11 0 -3
BITMAP
000A50
000000
000000
0FFF60
000860
000860
000860
2DED50
583E70
1CE8C0
000082
ENDCHAR
STARTCHAR uni029E
ENCODING 670
SWIDTH 600 0
DWIDTH 7 0
BBX 6 7 0 -2
BITMAP
2C1077
0590A7
009CB7
02B377
3B2077
000077
000077
ENDCHAR
STARTCHAR uni029F
ENCODING 671
SWIDTH 600 0
DWIDTH 7 0
BBX 5 5 1 0
BITMAP
680000
680000
680000
680000
6FFFD0
ENDCHAR
STARTCHAR uni02A1
ENCODING 673
SWIDTH 600 0
DWIDTH 7 0
BBX 6 8 0 0
BITMAP
05DEA1
192197
000067
000690
3FFFFB
006800
006800
006800
ENDCHAR
STARTCHAR uni02A2
ENCODING 674
SWIDTH 600 0
DWIDTH 7 0
BBX 6 8 0 0
BITMAP
04DEB2
0E4047
0D1000
03A300
1FFFFC
000E00
000E00
000E00
ENDCHAR
STARTCHAR uni02A4
ENCODING 676
SWIDTH 600 0
DWIDTH 7 0
BBX 7 10 0 -2
BITMAP
00490000
00490000
00390000
4ECFFF80
C4690A20
E0497500
D369DE40
5EA915B0
000225A0
0004DD30
ENDCHAR
STARTCHAR uni02A6
ENCODING 678
SWIDTH 600 0
DWIDTH 7 0
BBX 7 7 0 0
BITMAP
07000000
0D000000
AFFFFB10
0E097300
0E018A00
0D301B30
05DFEA00
ENDCHAR
STARTCHAR uni02A7
ENCODING 679
SWIDTH 600 0
DWIDTH 7 0
BBX 7 10 0 -2
BITMAP
00002D80
08408700
09409500
7FFFF500
0A409500
0A409500
0A609500
05EA9500
0000A400
000CD100
ENDCHAR
STARTCHAR h.sups
ENCODING 688
SWIDTH 600 0
DWIDTH 7 0
BBX 5 6 1 4
BITMAP
150000
190000
1ADA00
1C1B00
190A10
190A10
ENDCHAR
STARTCHAR j.sups
ENCODING 690
SWIDTH 600 0
DWIDTH 7 0
BBX 4 7 1 3
BITMAP
00A1
0000
3FF1
00A1
00A1
10B1
4EA0
ENDCHAR
STARTCHAR r.sups
ENCODING 691
SWIDTH 600 0
DWIDTH 7 0
BBX 4 4 2 4
BITMAP
5AE6
5B10
5600
5600
ENDCHAR
STARTCHAR w.sups
ENCODING 695
SWIDTH 600 0
DWIDTH 7 0
BBX 6 4 0 4
BITMAP
565837
1A9A63
0A99B0
0975B0
ENDCHAR
STARTCHAR y.sups
ENCODING 696
SWIDTH 600 0
DWIDTH 7 0
BBX 4 5 1 3
BITMAP
370A
0927
04B2
03B0
3E30
ENDCHAR
STARTCHAR uni02B9
ENCODING 697
SWIDTH 600 0
DWIDTH 7 0
BBX 2 3 2 5
BITMAP
0D
1B
28
ENDCHAR
STARTCHAR uni02BB
ENCODING 699
SWIDTH 600 0
DWIDTH 7 0
BBX 3 5 2 4
BITMAP
0100
1B10
8300
AD00
6D00
ENDCHAR
STARTCHAR uni02BC
ENCODING 700
SWIDTH 600 0
DWIDTH 7 0
BBX 3 5 2 3
BITMAP
5D10
5F40
0920
5800
1000
ENDCHAR
STARTCHAR uni02BE
ENCODING 702
SWIDTH 600 0
DWIDTH 7 0
BBX 3 4 2 5
BITMAP
7C10
0770
0770
7C10
ENDCHAR
STARTCHAR uni02BF
ENCODING 703
SWIDTH 600 0
DWIDTH 7 0
BBX 3 4 2 5
BITMAP
5E20
B200
B200
5E20
ENDCHAR
STARTCHAR uni02C1
ENCODING 705
SWIDTH 600 0
DWIDTH 7 0
BBX 4 5 1 4
BITMAP
08E7
2A14
1A00
0490
0070
ENDCHAR
STARTCHAR circumflex
ENCODING 710
SWIDTH 600 0
DWIDTH 7 0
BBX 4 2 1 6
BITMAP
08D3
3719
ENDCHAR
STARTCHAR caron
ENCODING 711
SWIDTH 600 0
DWIDTH 7 0
BBX 4 2 1 6
BITMAP
3719
08D3
ENDCHAR
STARTCHAR uni02C8
ENCODING 712
SWIDTH 600 0
DWIDTH 7 0
BBX 2 4 2 4
BITMAP
3C
2B
1A
05
ENDCHAR
STARTCHAR uni02C9
ENCODING 713
SWIDTH 600 0
DWIDTH 7 0
BBX 4 1 1 6
BITMAP
2FFC
ENDCHAR
STARTCHAR uni02CA
ENCODING 714
SWIDTH 600 0
DWIDTH 7 0
BBX 3 2 2 6
BITMAP
0570
2900
ENDCHAR
STARTCHAR uni02CB
ENCODING 715
SWIDTH 600 0
DWIDTH 7 0
BBX 2 2 2 6
BITMAP
B1
39
ENDCHAR
STARTCHAR uni02CC
ENCODING 716
SWIDTH 600 0
DWIDTH 7 0
BBX 2 4 2 -3
BITMAP
1A
2B
3C
4C
ENDCHAR
STARTCHAR uni02D0
ENCODING 720
SWIDTH 600 0
DWIDTH 7 0
BBX 3 6 2 0
BITMAP
8F20
1800
0000
0000
1800
8F20
ENDCHAR
STARTCHAR uni02D1
ENCODING 721
SWIDTH 600 0
DWIDTH 7 0
BBX 3 2 2 4
BITMAP
8F20
1800
ENDCHAR
STARTCHAR breve
ENCODING 728
SWIDTH 600 0
DWIDTH 7 0
BBX 4 2 1 6
BITMAP
571B
0BE6
ENDCHAR
STARTCHAR dotaccent
ENCODING 729
SWIDTH 600 0
DWIDTH 7 0
BBX 2 1 2 7
BITMAP
4C
ENDCHAR
STARTCHAR ring
ENCODING 730
SWIDTH 600 0
DWIDTH 7 0
BBX 3 3 2 6
BITMAP
8E30
A470
8E30
ENDCHAR
STARTCHAR ogonek
ENCODING 731
SWIDTH 600 0
DWIDTH 7 0
BBX 3 3 2 -3
BITMAP
3600
9210
7E40
ENDCHAR
STARTCHAR tilde
ENCODING 732
SWIDTH 600 0
DWIDTH 7 0
BBX 5 3 1 6
BITMAP
030100
5D8820
81AB00
ENDCHAR
STARTCHAR hungarumlaut
ENCODING 733
SWIDTH 600 0
DWIDTH 7 0
BBX 4 2 2 6
BITMAP
2773
8290
ENDCHAR
STARTCHAR uni02DE
ENCODING 734
SWIDTH 600 0
DWIDTH 7 0
BBX 4 3 1 2
BITMAP
0200
6B40
01D3
ENDCHAR
STARTCHAR uni02E0
ENCODING 736
SWIDTH 600 0
DWIDTH 7 0
BBX 4 6 1 2
BITMAP
380B
0B37
08C2
04C0
0781
06E1
ENDCHAR
STARTCHAR l.sups
ENCODING 737
SWIDTH 600 0
DWIDTH 7 0
BBX 3 6 2 4
BITMAP
DB00
0B00
0B00
0B00
0C10
0AE0
ENDCHAR
STARTCHAR s.sups
ENCODING 738
SWIDTH 600 0
DWIDTH 7 0
BBX 3 4 2 4
BITMAP
BE70
7120
3170
AFA0
ENDCHAR
STARTCHAR x.sups
ENCODING 739
SWIDTH 600 0
DWIDTH 7 0
BBX 4 4 1 4
BITMAP
0A29
03D1
0885
1506
ENDCHAR
STARTCHAR uni02E4
ENCODING 740
SWIDTH 600 0
DWIDTH 7 0
BBX 4 6 1 4
BITMAP
08E7
2A14
1A00
0490
00A0
0070
ENDCHAR
STARTCHAR uni0300
ENCODING 768
SWIDTH 600 0
DWIDTH 7 0
BBX 2 2 2 6
BITMAP
B1
39
ENDCHAR
STARTCHAR uni0301
ENCODING 769
SWIDTH 600 0
DWIDTH 7 0
BBX 3 2 2 6
BITMAP
0570
2900
ENDCHAR
STARTCHAR uni0302
ENCODING 770
SWIDTH 600 0
DWIDTH 7 0
BBX 4 2 1 6
BITMAP
08D3
3719
ENDCHAR
STARTCHAR uni0303
ENCODING 771
SWIDTH 600 0
DWIDTH 7 0
BBX 5 3 1 6
BITMAP
030100
5D8820
81AB00
ENDCHAR
STARTCHAR uni0304
ENCODING 772
SWIDTH 600 0
DWIDTH 7 0
BBX 4 1 1 6
BITMAP
2FFC
ENDCHAR
STARTCHAR uni0305
ENCODING 773
SWIDTH 600 0
DWIDTH 7 0
BBX 4 1 1 6
BITMAP
2FFC
ENDCHAR
STARTCHAR uni0306
ENCODING 774
SWIDTH 600 0
DWIDTH 7 0
BBX 4 2 1 6
BITMAP
571B
0BE6
ENDCHAR
STARTCHAR uni0307
ENCODING 775
SWIDTH 600 0
DWIDTH 7 0
BBX 2 1 2 7
BITMAP
4C
ENDCHAR
STARTCHAR uni0308
ENCODING 776
SWIDTH 600 0
DWIDTH 7 0
BBX 4 1 1 7
BITMAP
3A2B
ENDCHAR
STARTCHAR uni0309
ENCODING 777
SWIDTH 600 0
DWIDTH 7 0
BBX 3 3 2 6
BITMAP
6B00
0B20
1B00
ENDCHAR
STARTCHAR uni030A
ENCODING 778
SWIDTH 600 0
DWIDTH 7 0
BBX 3 3 2 6
BITMAP
8E30
A470
8E30
ENDCHAR
STARTCHAR uni030B
ENCODING 779
SWIDTH 600 0
DWIDTH 7 0
BBX 4 2 2 6
BITMAP
2773
8290
ENDCHAR
STARTCHAR uni030C
ENCODING 780
SWIDTH 600 0
DWIDTH 7 0
BBX 4 2 1 6
BITMAP
3719
08D3
ENDCHAR
STARTCHAR uni030F
ENCODING 783
SWIDTH 600 0
DWIDTH 7 0
BBX 4 2 1 6
BITMAP
8290
2763
ENDCHAR
STARTCHAR uni0310
ENCODING 784
SWIDTH 600 0
DWIDTH 7 0
BBX 4 3 1 6
BITMAP
0290
663A
1BE6
ENDCHAR
STARTCHAR uni0311
ENCODING 785
SWIDTH 600 0
DWIDTH 7 0
BBX 4 2 1 6
BITMAP
0BE6
571B
ENDCHAR
STARTCHAR uni0312
ENCODING 786
SWIDTH 600 0
DWIDTH 7 0
BBX 2 2 2 6
BITMAP
16
3A
ENDCHAR
STARTCHAR uni0313
ENCODING 787
SWIDTH 600 0
DWIDTH 7 0
BBX 2 2 2 6
BITMAP
2B
16
ENDCHAR
STARTCHAR uni0318
ENCODING 792
SWIDTH 600 0
DWIDTH 7 0
BBX 3 3 2 -3
BITMAP
0340
8F50
0340
ENDCHAR
STARTCHAR uni0319
ENCODING 793
SWIDTH 600 0
DWIDTH 7 0
BBX 3 3 2 -3
BITMAP
7000
BF20
7000
ENDCHAR
STARTCHAR uni031A
ENCODING 794
SWIDTH 600 0
DWIDTH 7 0
BBX 3 2 2 6
BITMAP
8F40
0540
ENDCHAR
STARTCHAR uni031B
ENCODING 795
SWIDTH 600 0
DWIDTH 7 0
BBX 2 2 3 5
BITMAP
0B
67
ENDCHAR
STARTCHAR uni031C
ENCODING 796
SWIDTH 600 0
DWIDTH 7 0
BBX 2 3 2 -3
BITMAP
3D
75
3D
ENDCHAR
STARTCHAR uni031D
ENCODING 797
SWIDTH 600 0
DWIDTH 7 0
BBX 3 2 2 -2
BITMAP
0900
FF90
ENDCHAR
STARTCHAR uni031E
ENCODING 798
SWIDTH 600 0
DWIDTH 7 0
BBX 3 2 2 -3
BITMAP
FF90
0900
ENDCHAR
STARTCHAR uni031F
ENCODING 799
SWIDTH 600 0
DWIDTH 7 0
BBX 3 3 2 -3
BITMAP
0700
FF90
0700
ENDCHAR
STARTCHAR uni0320
ENCODING 800
SWIDTH 600 0
DWIDTH 7 0
BBX 3 1 2 -2
BITMAP
FF90
ENDCHAR
STARTCHAR uni0323
ENCODING 803
SWIDTH 600 0
DWIDTH 7 0
BBX 2 1 2 -2
BITMAP
4C
ENDCHAR
STARTCHAR uni0324
ENCODING 804
SWIDTH 600 0
DWIDTH 7 0
BBX 4 1 1 -2
BITMAP
3A2B
ENDCHAR
STARTCHAR uni0325
ENCODING 805
SWIDTH 600 0
DWIDTH 7 0
BBX 3 3 2 -3
BITMAP
8E30
A470
8E30
ENDCHAR
STARTCHAR uni0326
ENCODING 806
SWIDTH 600 0
DWIDTH 7 0
BBX 3 3 2 -3
BITMAP
3B00
1B20
A900
ENDCHAR
STARTCHAR uni0327
ENCODING 807
SWIDTH 600 0
DWIDTH 7 0
BBX 3 4 2 -4
BITMAP
1700
4D00
1B20
A900
ENDCHAR
STARTCHAR uni0328
ENCODING 808
SWIDTH 600 0
DWIDTH 7 0
BBX 3 3 2 -3
BITMAP
3600
9210
7E40
ENDCHAR
STARTCHAR uni0329
ENCODING 809
SWIDTH 600 0
DWIDTH 7 0
BBX 2 2 2 -3
BITMAP
0A
1A
ENDCHAR
STARTCHAR uni032A
ENCODING 810
SWIDTH 600 0
DWIDTH 7 0
BBX 4 2 1 -3
BITMAP
1FFA
1708
ENDCHAR
STARTCHAR uni032C
ENCODING 812
SWIDTH 600 0
DWIDTH 7 0
BBX 4 2 1 -3
BITMAP
3719
08D3
ENDCHAR
STARTCHAR uni032E
ENCODING 814
SWIDTH 600 0
DWIDTH 7 0
BBX 4 2 1 -3
BITMAP
571B
0BE6
ENDCHAR
STARTCHAR uni032F
ENCODING 815
SWIDTH 600 0
DWIDTH 7 0
BBX 4 2 1 -3
BITMAP
0BE6
571B
ENDCHAR
STARTCHAR uni0330
ENCODING 816
SWIDTH 600 0
DWIDTH 7 0
BBX 5 3 1 -3
BITMAP
030100
5D8820
81AB00
ENDCHAR
STARTCHAR uni0331
ENCODING 817
SWIDTH 600 0
DWIDTH 7 0
BBX 4 1 1 -2
BITMAP
2FFC
ENDCHAR
STARTCHAR uni0334
ENCODING 820
SWIDTH 600 0
DWIDTH 7 0
BBX 5 3 1 2
BITMAP
020110
8D8650
809D10
ENDCHAR
STARTCHAR uni0339
ENCODING 825
SWIDTH 600 0
DWIDTH 7 0
BBX 3 3 2 -3
BITMAP
5B00
0B20
5B00
ENDCHAR
STARTCHAR uni033A
ENCODING 826
SWIDTH 600 0
DWIDTH 7 0
BBX 4 2 1 -3
BITMAP
1708
1FFA
ENDCHAR
STARTCHAR uni033B
ENCODING 827
SWIDTH 600 0
DWIDTH 7 0
BBX 4 2 1 -3
BITMAP
1FFA
1FFA
ENDCHAR
STARTCHAR uni033C
ENCODING 828
SWIDTH 600 0
DWIDTH 7 0
BBX 5 2 1 -3
BITMAP
4E9C00
83A820
ENDCHAR
STARTCHAR uni033D
ENCODING 829
SWIDTH 600 0
DWIDTH 7 0
BBX 3 2 2 6
BITMAP
6820
6820
ENDCHAR
STARTCHAR uni0342
ENCODING 834
SWIDTH 600 0
DWIDTH 7 0
BBX 5 3 1 6
BITMAP
030100
5D8820
81AB00
ENDCHAR
STARTCHAR uni0345
ENCODING 837
SWIDTH 600 0
DWIDTH 7 0
BBX 3 2 2 -2
BITMAP
1A00
0D30
ENDCHAR
STARTCHAR uni035F
ENCODING 863
SWIDTH 600 0
DWIDTH 7 0
BBX 12 1 -3 -2
BITMAP
2FFFFFFFFFFB
ENDCHAR
STARTCHAR uni0361
ENCODING 865
SWIDTH 600 0
DWIDTH 7 0
BBX 11 2 -2 7
BITMAP
028CEFEB6100
695310237A20
ENDCHAR
STARTCHAR uni0374
ENCODING 884
SWIDTH 600 0
DWIDTH 7 0
BBX 2 3 2 5
BITMAP
0D
1B
28
ENDCHAR
STARTCHAR uni0375
ENCODING 885
SWIDTH 600 0
DWIDTH 7 0
BBX 2 3 2 0
BITMAP
0A
2A
49
ENDCHAR
STARTCHAR uni037A
ENCODING 890
SWIDTH 600 0
DWIDTH 7 0
BBX 3 2 2 -2
BITMAP
1A00
0D30
ENDCHAR
STARTCHAR uni037E
ENCODING 894
SWIDTH 600 0
DWIDTH 7 0
BBX 3 9 2 -3
BITMAP
6E10
6E10
0000
0000
5E20
5F50
0930
5A00
3000
ENDCHAR
STARTCHAR tonos
ENCODING 900
SWIDTH 600 0
DWIDTH 7 0
BBX 2 3 3 6
BITMAP
93
C0
A0
ENDCHAR
STARTCHAR dieresistonos
ENCODING 901
SWIDTH 600 0
DWIDTH 7 0
BBX 4 3 1 6
BITMAP
00A0
56AB
0160
ENDCHAR
STARTCHAR Alphatonos
ENCODING 902
SWIDTH 600 0
DWIDTH 7 0
BBX 7 7 0 0
BITMAP
484F2000
65986000
82C1B000
0480B100
09FFF600
0D103B00
4A000D10
ENDCHAR
STARTCHAR anoteleia
ENCODING 903
SWIDTH 600 0
DWIDTH 7 0
BBX 3 2 2 4
BITMAP
6E10
6E10
ENDCHAR
STARTCHAR Epsilontonos
ENCODING 904
SWIDTH 600 0
DWIDTH 7 0
BBX 6 7 0 0
BITMAP
66CFFB
83C000
90C000
00CFF3
00C000
00C000
00CFFC
ENDCHAR
STARTCHAR Etatonos
ENCODING 905
SWIDTH 600 0
DWIDTH 7 0
BBX 6 7 0 0
BITMAP
66C00C
83C00C
90C00C
00DFFC
00C00C
00C00C
00C00C
ENDCHAR
STARTCHAR Iotatonos
ENCODING 906
SWIDTH 600 0
DWIDTH 7 0
BBX 6 7 0 0
BITMAP
66FFF8
830A40
900A40
000A40
000A40
000A40
00FFF8
ENDCHAR
STARTCHAR Omicrontonos
ENCODING 908
SWIDTH 600 0
DWIDTH 7 0
BBX 7 7 0 0
BITMAP
666EC200
84D25A00
95900D00
06800D10
04900D00
01D26A00
005EC200
ENDCHAR
STARTCHAR Upsilontonos
ENCODING 910
SWIDTH 600 0
DWIDTH 7 0
BBX 7 7 0 0
BITMAP
39B20660
66570B10
730B3900
0007C300
0002C000
0001C000
0001C000
ENDCHAR
STARTCHAR Omegatonos
ENCODING 911
SWIDTH 600 0
DWIDTH 7 0
BBX 7 7 0 0
BITMAP
666EC200
85D26B00
95900E00
05800D00
02A01C00
00A16500
08F5BF20
ENDCHAR
STARTCHAR iotadieresistonos
ENCODING 912
SWIDTH 600 0
DWIDTH 7 0
BBX 6 9 0 0
BITMAP
000A00
0859A0
004400
000000
2FF900
004900
004800
004B11
001CE8
ENDCHAR
STARTCHAR Alpha
ENCODING 913
SWIDTH 600 0
DWIDTH 7 0
BBX 7 7 0 0
BITMAP
006E1000
00B85000
01A2A000
0660C100
0CFFF600
2C004B00
77000D10
ENDCHAR
STARTCHAR Beta
ENCODING 914
SWIDTH 600 0
DWIDTH 7 0
BBX 5 7 1 0
BITMAP
EFEB20
E01880
E01960
EFFC20
E003D0
E004D0
EFFC40
ENDCHAR
STARTCHAR Gamma
ENCODING 915
SWIDTH 600 0
DWIDTH 7 0
BBX 5 7 1 0
BITMAP
8FFFD0
860000
860000
860000
860000
860000
860000
ENDCHAR
STARTCHAR uni0394
ENCODING 916
SWIDTH 600 0
DWIDTH 7 0
BBX 7 7 0 0
BITMAP
006E1000
00B85000
02A2B000
0750B100
0C106600
3A001B00
7FFFFF10
ENDCHAR
STARTCHAR Epsilon
ENCODING 917
SWIDTH 600 0
DWIDTH 7 0
BBX 5 7 1 0
BITMAP
BFFFB0
B30000
B30000
BFFF30
B30000
B30000
BFFFC0
ENDCHAR
STARTCHAR Zeta
ENCODING 918
SWIDTH 600 0
DWIDTH 7 0
BBX 6 7 0 0
BITMAP
0EFFFD
0000A5
000680
003B00
01C100
0A4000
4FFFFE
ENDCHAR
STARTCHAR Eta
ENCODING 919
SWIDTH 600 0
DWIDTH 7 0
BBX 6 7 0 0
BITMAP
2C003B
2C003B
2C003B
2FFFFB
2C003B
2C003B
2C003B
ENDCHAR
STARTCHAR Theta
ENCODING 920
SWIDTH 600 0
DWIDTH 7 0
BBX 7 7 0 0
BITMAP
04CE9100
1E419900
59001E00
77CF6E10
59001E00
1D419900
03CE9100
ENDCHAR
STARTCHAR Iota
ENCODING 921
SWIDTH 600 0
DWIDTH 7 0
BBX 5 7 1 0
BITMAP
EFFF80
02C000
02C000
02C000
02C000
02C000
EFFF80
ENDCHAR
STARTCHAR Kappa
ENCODING 922
SWIDTH 600 0
DWIDTH 7 0
BBX 6 7 1 0
BITMAP
E005A0
E04B10
E2D100
ECB500
E42D00
E00870
E001D2
ENDCHAR
STARTCHAR Lambda
ENCODING 923
SWIDTH 600 0
DWIDTH 7 0
BBX 6 7 0 0
BITMAP
006E10
00B950
01B3A0
0670D0
0B2095
1D005A
68001D
ENDCHAR
STARTCHAR Mu
ENCODING 924
SWIDTH 600 0
DWIDTH 7 0
BBX 6 7 0 0
BITMAP
3F107C
3D60BC
3AB39C
3AA94C
3A4D1C
3A011C
3A001C
ENDCHAR
STARTCHAR Nu
ENCODING 925
SWIDTH 600 0
DWIDTH 7 0
BBX 6 7 0 0
BITMAP
1F303B
1DA03B
1BA33B
1C3B3B
1C096B
1C02CB
1C009B
ENDCHAR
STARTCHAR Xi
ENCODING 926
SWIDTH 600 0
DWIDTH 7 0
BBX 6 7 0 0
BITMAP
2FFFFB
000000
000000
06FFF0
000000
000000
4FFFFC
ENDCHAR
STARTCHAR Omicron
ENCODING 927
SWIDTH 600 0
DWIDTH 7 0
BBX 7 7 0 0
BITMAP
04CEA100
1D419900
59001E00
77000E10
59001E00
1D419900
04CEA100
ENDCHAR
STARTCHAR Pi
ENCODING 928
SWIDTH 600 0
DWIDTH 7 0
BBX 6 7 0 0
BITMAP
2FFFFB
2C003B
2C003B
2C003B
2C003B
2C003B
2C003B
ENDCHAR
STARTCHAR Rho
ENCODING 929
SWIDTH 600 0
DWIDTH 7 0
BBX 5 7 1 0
BITMAP
DFFC40
D004D0
D004D0
DFFC40
D00000
D00000
D00000
ENDCHAR
STARTCHAR Sigma
ENCODING 931
SWIDTH 600 0
DWIDTH 7 0
BBX 6 7 0 0
BITMAP
2FFFF8
077000
008600
000D10
009500
086000
2FFFFD
ENDCHAR
STARTCHAR Tau
ENCODING 932
SWIDTH 600 0
DWIDTH 7 0
BBX 7 7 0 0
BITMAP
8FFFFF20
002C0000
002C0000
002C0000
002C0000
002C0000
002C0000
ENDCHAR
STARTCHAR Upsilon
ENCODING 933
SWIDTH 600 0
DWIDTH 7 0
BBX 6 7 0 0
BITMAP
5A001C
0B3086
04A1C0
00AB50
003C00
002C00
002C00
ENDCHAR
STARTCHAR Phi
ENCODING 934
SWIDTH 600 0
DWIDTH 7 0
BBX 7 7 0 0
BITMAP
002B0000
09EFC500
7A3B3D20
A32B0940
7A3B3D10
09EFC400
002B0000
ENDCHAR
STARTCHAR Chi
ENCODING 935
SWIDTH 600 0
DWIDTH 7 0
BBX 6 7 0 0
BITMAP
1D1068
0691C1
00B960
006E10
01C770
0860C2
2C004A
ENDCHAR
STARTCHAR Psi
ENCODING 936
SWIDTH 600 0
DWIDTH 7 0
BBX 7 7 0 0
BITMAP
852C0C20
852C0C20
762C0C10
4C4C5D00
08EFC300
002C0000
002C0000
ENDCHAR
STARTCHAR uni03A9
ENCODING 937
SWIDTH 600 0
DWIDTH 7 0
BBX 7 7 0 0
BITMAP
04DEA100
1E419A00
69001E00
67000E10
3A001C00
09309400
9FB2FF30
ENDCHAR
STARTCHAR Iotadieresis
ENCODING 938
SWIDTH 600 0
DWIDTH 7 0
BBX 5 9 1 0
BITMAP
2A2A00
000000
EFFF80
02C000
02C000
02C000
02C000
02C000
EFFF80
ENDCHAR
STARTCHAR Upsilondieresis
ENCODING 939
SWIDTH 600 0
DWIDTH 7 0
BBX 6 9 0 0
BITMAP
02A2A0
000000
5A001C
0B3086
04A1C0
00AB50
003C00
002C00
002C00
ENDCHAR
STARTCHAR alphatonos
ENCODING 940
SWIDTH 600 0
DWIDTH 7 0
BBX 7 9 0 0
BITMAP
00067000
00094000
000A0000
00000000
06DE5D00
2D31C900
59007600
3D22C500
08EC7E40
ENDCHAR
STARTCHAR epsilontonos
ENCODING 941
SWIDTH 600 0
DWIDTH 7 0
BBX 5 9 1 0
BITMAP
004900
007600
009100
000000
4DFC30
A60340
4EF600
E30250
7DFD40
ENDCHAR
STARTCHAR etatonos
ENCODING 942
SWIDTH 600 0
DWIDTH 7 0
BBX 5 11 1 -2
BITMAP
005700
008400
00A000
000000
C6EE30
E91690
E003A0
E003A0
E003A0
0003A0
0004A0
ENDCHAR
STARTCHAR iotatonos
ENCODING 943
SWIDTH 600 0
DWIDTH 7 0
BBX 6 9 0 0
BITMAP
000C10
000C00
003700
000000
2FF900
004900
004800
004B11
001CE8
ENDCHAR
STARTCHAR upsilondieresistonos
ENCODING 944
SWIDTH 600 0
DWIDTH 7 0
BBX 6 9 0 0
BITMAP
000A00
056AB0
001600
000000
1C0067
1C003A
1C003B
0E3198
06DEA1
ENDCHAR
STARTCHAR alpha
ENCODING 945
SWIDTH 600 0
DWIDTH 7 0
BBX 7 5 0 0
BITMAP
06DE5D00
2D31C900
59007600
3D22C500
08EC7E40
ENDCHAR
STARTCHAR beta
ENCODING 946
SWIDTH 600 0
DWIDTH 7 0
BBX 5 10 1 -2
BITMAP
3CEA00
C51B40
E03B10
D1FB20
D005C0
D000E0
E516B0
D9EC30
D00000
E00000
ENDCHAR
STARTCHAR gamma
ENCODING 947
SWIDTH 600 0
DWIDTH 7 0
BBX 6 8 0 -2
BITMAP
010000
2D101C
087058
01C0B2
00A790
005E10
003A00
002B00
ENDCHAR
STARTCHAR delta
ENCODING 948
SWIDTH 600 0
DWIDTH 7 0
BBX 6 8 0 0
BITMAP
05EEC5
095134
02A300
02AA80
1C1058
3A001D
1D317A
05DEB2
ENDCHAR
STARTCHAR epsilon
ENCODING 949
SWIDTH 600 0
DWIDTH 7 0
BBX 5 5 1 0
BITMAP
4DFC30
A60340
4EF600
E30250
7DFD40
ENDCHAR
STARTCHAR zeta
ENCODING 950
SWIDTH 600 0
DWIDTH 7 0
BBX 5 10 1 -2
BITMAP
6FFFB0
012A30
03A100
1C1000
760000
A40000
8B2000
1AFD50
0005B0
000560
ENDCHAR
STARTCHAR eta
ENCODING 951
SWIDTH 600 0
DWIDTH 7 0
BBX 5 7 1 -2
BITMAP
C6EE30
E91690
E003A0
E003A0
E003A0
0003A0
0004A0
ENDCHAR
STARTCHAR theta
ENCODING 952
SWIDTH 600 0
DWIDTH 7 0
BBX 6 8 0 0
BITMAP
02CE90
0B41A5
1B003A
2FFFFB
3B002C
1D004A
0B61B5
02CE90
ENDCHAR
STARTCHAR iota
ENCODING 953
SWIDTH 600 0
DWIDTH 7 0
BBX 6 5 0 0
BITMAP
2FF900
004900
004800
004B11
001CE8
ENDCHAR
STARTCHAR kappa
ENCODING 954
SWIDTH 600 0
DWIDTH 7 0
BBX 6 6 1 -1
BITMAP
D106C0
C2B820
CBB400
C52C20
C104C1
000010
ENDCHAR
STARTCHAR lambda
ENCODING 955
SWIDTH 600 0
DWIDTH 7 0
BBX 6 9 0 -1
BITMAP
3EB100
017900
001E10
006E60
00C4B0
04A0C2
0B4068
3C001D
010000
ENDCHAR
STARTCHAR uni03BC
ENCODING 956
SWIDTH 600 0
DWIDTH 7 0
BBX 6 7 0 -2
BITMAP
1C0067
1C0067
1D0067
1E22C7
1EED6E
1C0000
1C0000
ENDCHAR
STARTCHAR nu
ENCODING 957
SWIDTH 600 0
DWIDTH 7 0
BBX 6 6 0 0
BITMAP
010000
3D001C
087058
01D0B2
009790
005E10
ENDCHAR
STARTCHAR xi
ENCODING 958
SWIDTH 600 0
DWIDTH 7 0
BBX 5 10 1 -2
BITMAP
FFFFB0
1B2000
2D2000
07FF10
6A2000
B30000
9A2000
1AED50
0005B0
000460
ENDCHAR
STARTCHAR omicron
ENCODING 959
SWIDTH 600 0
DWIDTH 7 0
BBX 6 5 0 0
BITMAP
05DEA1
1D318A
4A001D
1D317A
05DEB1
ENDCHAR
STARTCHAR pi
ENCODING 960
SWIDTH 600 0
DWIDTH 7 0
BBX 7 5 0 0
BITMAP
AFFFFF40
09409400
09309300
0A30A400
0C206F10
ENDCHAR
STARTCHAR rho
ENCODING 961
SWIDTH 600 0
DWIDTH 7 0
BBX 5 7 1 -2
BITMAP
2BEC30
B516B0
D001D0
E307A0
EBEB20
D00000
E00000
ENDCHAR
STARTCHAR uni03C2
ENCODING 962
SWIDTH 600 0
DWIDTH 7 0
BBX 5 7 1 -2
BITMAP
2AED40
B71240
E00000
C81000
2AFC30
001860
000920
ENDCHAR
STARTCHAR sigma
ENCODING 963
SWIDTH 600 0
DWIDTH 7 0
BBX 7 5 0 0
BITMAP
05DFFF40
2D319300
4A004900
2D31A700
05DEA100
ENDCHAR
STARTCHAR tau
ENCODING 964
SWIDTH 600 0
DWIDTH 7 0
BBX 6 5 0 0
BITMAP
4FFFFD
002B00
002B00
002C10
000DE1
ENDCHAR
STARTCHAR upsilon
ENCODING 965
SWIDTH 600 0
DWIDTH 7 0
BBX 6 5 0 0
BITMAP
1C0067
1C003A
1C003B
0E3198
06DEA1
ENDCHAR
STARTCHAR phi
ENCODING 966
SWIDTH 600 0
DWIDTH 7 0
BBX 7 8 0 -2
BITMAP
002B0000
07EFC300
4C4B5D00
772B0D10
4C4B5D00
07EFC300
002B0000
002B0000
ENDCHAR
STARTCHAR chi
ENCODING 967
SWIDTH 600 0
DWIDTH 7 0
BBX 6 9 0 -3
BITMAP
010000
1C1067
0591B0
009B30
005E10
00C790
0770B3
2C002C
010001
ENDCHAR
STARTCHAR psi
ENCODING 968
SWIDTH 600 0
DWIDTH 7 0
BBX 7 9 0 -2
BITMAP
002C0000
002C0000
682C1B00
582C0C00
582C0C10
3C3C5D00
08EFC300
002C0000
002C0000
ENDCHAR
STARTCHAR omega
ENCODING 969
SWIDTH 600 0
DWIDTH 7 0
BBX 7 5 0 0
BITMAP
1B004900
67280D10
942A0B30
874D1D10
2CD8E800
ENDCHAR
STARTCHAR iotadieresis
ENCODING 970
SWIDTH 600 0
DWIDTH 7 0
BBX 6 8 0 0
BITMAP
067490
000000
000000
2FF900
004900
004800
004B11
001CE8
ENDCHAR
STARTCHAR upsilondieresis
ENCODING 971
SWIDTH 600 0
DWIDTH 7 0
BBX 6 8 0 0
BITMAP
0492B0
000000
000000
1C0067
1C003A
1C003B
0E3198
06DEA1
ENDCHAR
STARTCHAR omicrontonos
ENCODING 972
SWIDTH 600 0
DWIDTH 7 0
BBX 6 9 0 0
BITMAP
000930
000C00
000A00
000000
05DEA1
1D318A
4A001D
1D317A
05DEB1
ENDCHAR
STARTCHAR upsilontonos
ENCODING 973
SWIDTH 600 0
DWIDTH 7 0
BBX 6 9 0 0
BITMAP
000A30
000C00
000900
000000
1C0067
1C003A
1C003B
0E3198
06DEA1
ENDCHAR
STARTCHAR omegatonos
ENCODING 974
SWIDTH 600 0
DWIDTH 7 0
BBX 7 9 0 0
BITMAP
00093000
000C0000
000A0000
00000000
1B004900
67280D10
942A0B30
874D1D10
2CD8E800
ENDCHAR
STARTCHAR uni03D0
ENCODING 976
SWIDTH 600 0
DWIDTH 7 0
BBX 5 8 1 0
BITMAP
3CE900
C51B40
D00B20
E8D900
D21590
E000D0
B716C0
2BEC30
ENDCHAR
STARTCHAR uni03D1
ENCODING 977
SWIDTH 600 0
DWIDTH 7 0
BBX 6 8 0 0
BITMAP
06EE80
1D21A5
0D303A
05DEEC
06012C
0D004A
0C51B6
04DE90
ENDCHAR
STARTCHAR uni03D5
ENCODING 981
SWIDTH 600 0
DWIDTH 7 0
BBX 7 8 0 -2
BITMAP
002B0000
07EFC300
4C4B5D00
772B0D10
4C4B5D00
07EFC300
002B0000
002B0000
ENDCHAR
STARTCHAR uni03D7
ENCODING 983
SWIDTH 600 0
DWIDTH 7 0
BBX 6 7 1 -2
BITMAP
D106C0
C2B820
CBB400
C51C20
C103C1
0002C1
000B40
ENDCHAR
STARTCHAR uni03D9
ENCODING 985
SWIDTH 600 0
DWIDTH 7 0
BBX 6 7 0 -2
BITMAP
05DEA1
1D317A
4A001D
2D317A
05DFB2
002B00
002C00
ENDCHAR
STARTCHAR uni03DB
ENCODING 987
SWIDTH 600 0
DWIDTH 7 0
BBX 5 7 1 -2
BITMAP
2AEFA0
B71000
E00000
B81000
2AFC20
000860
000920
ENDCHAR
STARTCHAR uni03DD
ENCODING 989
SWIDTH 600 0
DWIDTH 7 0
BBX 5 7 1 -2
BITMAP
6FFFB0
670000
6C9930
682210
670000
670000
680000
ENDCHAR
STARTCHAR uni03E1
ENCODING 993
SWIDTH 600 0
DWIDTH 7 0
BBX 6 10 0 -2
BITMAP
076000
01B700
000C30
0019C0
18D7B3
0601A8
018C9A
01602B
00002B
000039
ENDCHAR
STARTCHAR uni0400
ENCODING 1024
SWIDTH 600 0
DWIDTH 7 0
BBX 5 10 1 0
BITMAP
075000
009200
000000
BFFFB0
B30000
B30000
BFFF30
B30000
B30000
BFFFC0
ENDCHAR
STARTCHAR uni0401
ENCODING 1025
SWIDTH 600 0
DWIDTH 7 0
BBX 5 9 1 0
BITMAP
0B1B10
000000
BFFFB0
B30000
B30000
BFFF30
B30000
B30000
BFFFC0
ENDCHAR
STARTCHAR uni0402
ENCODING 1026
SWIDTH 600 0
DWIDTH 7 0
BBX 7 7 0 0
BITMAP
EFFFF200
01C00000
01FFE700
01D02D20
01C00950
01C01C30
01C1E900
ENDCHAR
STARTCHAR uni0403
ENCODING 1027
SWIDTH 600 0
DWIDTH 7 0
BBX 5 10 1 0
BITMAP
006600
039000
000000
8FFFD0
860000
860000
860000
860000
860000
860000
ENDCHAR
STARTCHAR uni0404
ENCODING 1028
SWIDTH 600 0
DWIDTH 7 0
BBX 6 7 0 0
BITMAP
01AED4
0B7126
2C0000
4FFFA0
2B0000
0B6128
01AED5
ENDCHAR
STARTCHAR uni0405
ENCODING 1029
SWIDTH 600 0
DWIDTH 7 0
BBX 6 7 0 0
BITMAP
04CFB2
0D4145
0A8100
017DA1
00006B
1A305C
05DFC3
ENDCHAR
STARTCHAR uni0406
ENCODING 1030
SWIDTH 600 0
DWIDTH 7 0
BBX 5 7 1 0
BITMAP
EFFF80
02C000
02C000
02C000
02C000
02C000
EFFF80
ENDCHAR
STARTCHAR uni0407
ENCODING 1031
SWIDTH 600 0
DWIDTH 7 0
BBX 5 9 1 0
BITMAP
2A2A00
000000
EFFF80
02C000
02C000
02C000
02C000
02C000
EFFF80
ENDCHAR
STARTCHAR uni0408
ENCODING 1032
SWIDTH 600 0
DWIDTH 7 0
BBX 5 7 1 0
BITMAP
8FFF60
000760
000760
000760
000860
A21C40
5DE900
ENDCHAR
STARTCHAR uni0409
ENCODING 1033
SWIDTH 600 0
DWIDTH 7 0
BBX 7 7 0 0
BITMAP
0BFE0000
0B0D0000
0C0D0000
0C0EE900
1C0D1A40
590D1B30
E40EE900
ENDCHAR
STARTCHAR uni040A
ENCODING 1034
SWIDTH 600 0
DWIDTH 7 0
BBX 7 7 0 0
BITMAP
941C0000
941C0000
941C0000
9FFFE900
941C1B30
941C1B30
941FE900
ENDCHAR
STARTCHAR uni040B
ENCODING 1035
SWIDTH 600 0
DWIDTH 7 0
BBX 7 7 0 0
BITMAP
EFFFF200
01C00000
01FFE700
01D02D10
01C00A30
01C00A40
01C00A40
ENDCHAR
STARTCHAR uni040C
ENCODING 1036
SWIDTH 600 0
DWIDTH 7 0
BBX 6 10 1 0
BITMAP
004800
01A100
000000
D004E2
D01D20
D08700
DFF200
D06A00
D00B60
D001D2
ENDCHAR
STARTCHAR uni040D
ENCODING 1037
SWIDTH 600 0
DWIDTH 7 0
BBX 6 10 0 0
BITMAP
00A200
002A00
000000
2B008B
2B02CB
2B0A6B
2B3C2B
2AB42B
2CA02B
2F202B
ENDCHAR
STARTCHAR uni040E
ENCODING 1038
SWIDTH 600 0
DWIDTH 7 0
BBX 6 10 0 0
BITMAP
03A1C0
00BE70
000000
4B001D
0C2067
0590C1
00C4A0
006E30
004C00
0AD300
ENDCHAR
STARTCHAR uni040F
ENCODING 1039
SWIDTH 600 0
DWIDTH 7 0
BBX 6 9 0 -2
BITMAP
3B002C
3B002C
3B002C
3B002C
3B002C
3B002C
3FFFFC
001B00
001B00
ENDCHAR
STARTCHAR uni0410
ENCODING 1040
SWIDTH 600 0
DWIDTH 7 0
BBX 7 7 0 0
BITMAP
006E1000
00B85000
01A2A000
0660C100
0CFFF600
2C004B00
77000D10
ENDCHAR
STARTCHAR uni0411
ENCODING 1041
SWIDTH 600 0
DWIDTH 7 0
BBX 5 7 1 0
BITMAP
EFFF80
E00000
E00000
EFFD50
E003D0
E003D0
EFFD40
ENDCHAR
STARTCHAR uni0412
ENCODING 1042
SWIDTH 600 0
DWIDTH 7 0
BBX 5 7 1 0
BITMAP
EFEB20
E01880
E01960
EFFC20
E003D0
E004D0
EFFC40
ENDCHAR
STARTCHAR uni0413
ENCODING 1043
SWIDTH 600 0
DWIDTH 7 0
BBX 5 7 1 0
BITMAP
8FFFD0
860000
860000
860000
860000
860000
860000
ENDCHAR
STARTCHAR uni0414
ENCODING 1044
SWIDTH 600 0
DWIDTH 7 0
BBX 7 9 0 -2
BITMAP
00EFF800
02B05800
05805800
08605800
0B205800
1C005800
BFFFFF50
B2000850
A2000840
ENDCHAR
STARTCHAR uni0415
ENCODING 1045
SWIDTH 600 0
DWIDTH 7 0
BBX 5 7 1 0
BITMAP
BFFFB0
B30000
B30000
BFFF30
B30000
B30000
BFFFC0
ENDCHAR
STARTCHAR uni0416
ENCODING 1046
SWIDTH 600 0
DWIDTH 7 0
BBX 7 7 0 0
BITMAP
D52B0B80
2C2B4A00
0B4B8500
08FFF200
0D3B6800
592B1D00
C32B0950
ENDCHAR
STARTCHAR uni0417
ENCODING 1047
SWIDTH 600 0
DWIDTH 7 0
BBX 6 7 0 0
BITMAP
05DEB1
072197
000196
00BFD2
00005C
29205C
06DFC3
ENDCHAR
STARTCHAR uni0418
ENCODING 1048
SWIDTH 600 0
DWIDTH 7 0
BBX 6 7 0 0
BITMAP
2B008B
2B02CB
2B0A6B
2B3C2B
2AB42B
2CA02B
2F202B
ENDCHAR
STARTCHAR uni0419
ENCODING 1049
SWIDTH 600 0
DWIDTH 7 0
BBX 6 10 0 0
BITMAP
03A1C0
00BE70
000000
2B008B
2B02CB
2B0A6B
2B3C2B
2AB42B
2CA02B
2F202B
ENDCHAR
STARTCHAR uni041A
ENCODING 1050
SWIDTH 600 0
DWIDTH 7 0
BBX 6 7 1 0
BITMAP
D004E2
D01D20
D08700
DFF200
D06A00
D00B60
D001D2
ENDCHAR
STARTCHAR uni041B
ENCODING 1051
SWIDTH 600 0
DWIDTH 7 0
BBX 6 7 0 0
BITMAP
00CFFB
00D03B
03B03B
06803B
09503B
1D103B
D8003B
ENDCHAR
STARTCHAR uni041C
ENCODING 1052
SWIDTH 600 0
DWIDTH 7 0
BBX 6 7 0 0
BITMAP
3F107C
3D60BC
3AB39C
3AA94C
3A4D1C
3A011C
3A001C
ENDCHAR
STARTCHAR uni041D
ENCODING 1053
SWIDTH 600 0
DWIDTH 7 0
BBX 6 7 0 0
BITMAP
2C003B
2C003B
2C003B
2FFFFB
2C003B
2C003B
2C003B
ENDCHAR
STARTCHAR uni041E
ENCODING 1054
SWIDTH 600 0
DWIDTH 7 0
BBX 7 7 0 0
BITMAP
04CEA100
1D419900
59001E00
77000E10
59001E00
1D419900
04CEA100
ENDCHAR
STARTCHAR uni041F
ENCODING 1055
SWIDTH 600 0
DWIDTH 7 0
BBX 6 7 0 0
BITMAP
2FFFFB
2C003B
2C003B
2C003B
2C003B
2C003B
2C003B
ENDCHAR
STARTCHAR uni0420
ENCODING 1056
SWIDTH 600 0
DWIDTH 7 0
BBX 5 7 1 0
BITMAP
DFFC40
D004D0
D004D0
DFFC40
D00000
D00000
D00000
ENDCHAR
STARTCHAR uni0421
ENCODING 1057
SWIDTH 600 0
DWIDTH 7 0
BBX 6 7 0 0
BITMAP
019ED5
0B8126
2D0000
4A0000
2D0000
0B8128
01AED5
ENDCHAR
STARTCHAR uni0422
ENCODING 1058
SWIDTH 600 0
DWIDTH 7 0
BBX 7 7 0 0
BITMAP
8FFFFF20
002C0000
002C0000
002C0000
002C0000
002C0000
002C0000
ENDCHAR
STARTCHAR uni0423
ENCODING 1059
SWIDTH 600 0
DWIDTH 7 0
BBX 6 7 0 0
BITMAP
4B001D
0C2067
0590C1
00C4A0
006E30
004C00
0AD300
ENDCHAR
STARTCHAR uni0424
ENCODING 1060
SWIDTH 600 0
DWIDTH 7 0
BBX 7 7 0 0
BITMAP
002B0000
19EFD500
893B3D20
A32B0940
793B3D20
19EFD500
002B0000
ENDCHAR
STARTCHAR uni0425
ENCODING 1061
SWIDTH 600 0
DWIDTH 7 0
BBX 6 7 0 0
BITMAP
1D1068
0691C1
00B960
006E10
01C770
0860C2
2C004A
ENDCHAR
STARTCHAR uni0426
ENCODING 1062
SWIDTH 600 0
DWIDTH 7 0
BBX 7 9 0 -2
BITMAP
2C003B00
2C003B00
2C003B00
2C003B00
2C003B00
2C003B00
2FFFFF70
00000670
00000660
ENDCHAR
STARTCHAR uni0427
ENCODING 1063
SWIDTH 600 0
DWIDTH 7 0
BBX 6 7 0 0
BITMAP
49004A
49004A
2D204A
07EFEA
00004A
00004A
00004A
ENDCHAR
STARTCHAR uni0428
ENCODING 1064
SWIDTH 600 0
DWIDTH 7 0
BBX 7 7 0 0
BITMAP
842B0A20
842B0A20
842B0A20
842B0A20
842B0A20
842B0A20
8FFFFF20
ENDCHAR
STARTCHAR uni0429
ENCODING 1065
SWIDTH 600 0
DWIDTH 7 0
BBX 7 9 0 -2
BITMAP
94480C00
94480C00
94480C00
94480C00
94480C00
94480C00
9FFFFF80
00000570
00000560
ENDCHAR
STARTCHAR uni042A
ENCODING 1066
SWIDTH 600 0
DWIDTH 7 0
BBX 7 7 0 0
BITMAP
CFF20000
00C20000
00C20000
00CFD800
00C22C30
00C21C30
00CFE800
ENDCHAR
STARTCHAR uni042B
ENCODING 1067
SWIDTH 600 0
DWIDTH 7 0
BBX 6 7 0 0
BITMAP
67000D
67000D
67000D
6FE80D
672C2D
67092D
69460D
ENDCHAR
STARTCHAR uni042C
ENCODING 1068
SWIDTH 600 0
DWIDTH 7 0
BBX 5 7 1 0
BITMAP
E00000
E00000
E00000
EFFC40
E004D0
E004D0
EFFC40
ENDCHAR
STARTCHAR uni042D
ENCODING 1069
SWIDTH 600 0
DWIDTH 7 0
BBX 6 7 0 0
BITMAP
08ED70
1712B6
00003B
01FFFD
00002B
3712B5
09ED70
ENDCHAR
STARTCHAR uni042E
ENCODING 1070
SWIDTH 600 0
DWIDTH 7 0
BBX 7 7 0 0
BITMAP
861CE500
86883D00
86B30C20
8FF20B30
86B30C20
86883D00
861CE500
ENDCHAR
STARTCHAR uni042F
ENCODING 1071
SWIDTH 600 0
DWIDTH 7 0
BBX 6 7 0 0
BITMAP
08EFF8
3C2068
3D2068
07EFF8
02C168
0A5068
5B0068
ENDCHAR
STARTCHAR uni0430
ENCODING 1072
SWIDTH 600 0
DWIDTH 7 0
BBX 6 5 0 0
BITMAP
04CEC2
063189
04ADFA
1E427A
0AED8A
ENDCHAR
STARTCHAR uni0431
ENCODING 1073
SWIDTH 600 0
DWIDTH 7 0
BBX 6 8 0 0
BITMAP
0038B7
05D851
0D2000
1DAEC2
2E417A
1B002C
0C4189
02CEB1
ENDCHAR
STARTCHAR uni0432
ENCODING 1074
SWIDTH 600 0
DWIDTH 7 0
BBX 5 5 1 0
BITMAP
DFFD50
D00690
DFFF40
D003D0
DFFE60
ENDCHAR
STARTCHAR uni0433
ENCODING 1075
SWIDTH 600 0
DWIDTH 7 0
BBX 5 5 1 0
BITMAP
6FFFB0
680000
680000
680000
680000
ENDCHAR
STARTCHAR uni0434
ENCODING 1076
SWIDTH 600 0
DWIDTH 7 0
BBX 7 7 0 -2
BITMAP
05FFF500
07608500
09308500
0C008500
8FFFFF20
85000B10
75000B10
ENDCHAR
STARTCHAR uni0435
ENCODING 1077
SWIDTH 600 0
DWIDTH 7 0
BBX 6 5 0 0
BITMAP
03CEB2
1D304B
3FFFFD
1C4123
03CEC4
ENDCHAR
STARTCHAR uni0436
ENCODING 1078
SWIDTH 600 0
DWIDTH 7 0
BBX 7 5 0 0
BITMAP
B72B1C60
1D3B7800
09FFF300
2D2B4B00
A52B0A40
ENDCHAR
STARTCHAR uni0437
ENCODING 1079
SWIDTH 600 0
DWIDTH 7 0
BBX 6 5 0 0
BITMAP
07EEB1
0611B4
00CFC1
161189
08DEC3
ENDCHAR
STARTCHAR uni0438
ENCODING 1080
SWIDTH 600 0
DWIDTH 7 0
BBX 5 5 1 0
BITMAP
D00A80
D06A80
D2A580
CA1680
E40680
ENDCHAR
STARTCHAR uni0439
ENCODING 1081
SWIDTH 600 0
DWIDTH 7 0
BBX 5 8 1 0
BITMAP
3A1B10
0AE800
000000
D00A80
D06A80
D2A580
CA1680
E40680
ENDCHAR
STARTCHAR uni043A
ENCODING 1082
SWIDTH 600 0
DWIDTH 7 0
BBX 5 5 1 0
BITMAP
C207C0
C23C10
CFF600
C22D20
C204C0
ENDCHAR
STARTCHAR uni043B
ENCODING 1083
SWIDTH 600 0
DWIDTH 7 0
BBX 6 5 0 0
BITMAP
03FFF7
058077
075077
0B3077
9B0077
ENDCHAR
STARTCHAR uni043C
ENCODING 1084
SWIDTH 600 0
DWIDTH 7 0
BBX 6 5 0 0
BITMAP
4E106D
4C70BC
49B48D
487C2D
48160D
ENDCHAR
STARTCHAR uni043D
ENCODING 1085
SWIDTH 600 0
DWIDTH 7 0
BBX 5 5 1 0
BITMAP
E00590
E00590
FFFF90
E00590
E00590
ENDCHAR
STARTCHAR uni043E
ENCODING 1086
SWIDTH 600 0
DWIDTH 7 0
BBX 6 5 0 0
BITMAP
05DEA1
2D317A
4A001D
2D317A
05DEB2
ENDCHAR
STARTCHAR uni043F
ENCODING 1087
SWIDTH 600 0
DWIDTH 7 0
BBX 5 5 1 0
BITMAP
FFFF90
E00590
E00590
E00590
E00590
ENDCHAR
STARTCHAR uni0440
ENCODING 1088
SWIDTH 600 0
DWIDTH 7 0
BBX 5 7 1 -2
BITMAP
DAEC30
E516C0
E001D0
E417A0
EBEB20
E00000
E00000
ENDCHAR
STARTCHAR uni0441
ENCODING 1089
SWIDTH 600 0
DWIDTH 7 0
BBX 6 5 0 0
BITMAP
02BED4
0D6125
1D0000
0D6126
03BED4
ENDCHAR
STARTCHAR uni0442
ENCODING 1090
SWIDTH 600 0
DWIDTH 7 0
BBX 6 5 0 0
BITMAP
4FFFFD
002B00
002B00
002B00
002B00
ENDCHAR
STARTCHAR uni0443
ENCODING 1091
SWIDTH 600 0
DWIDTH 7 0
BBX 6 7 0 -2
BITMAP
3A001C
0B3076
04A0C0
00B680
004E10
016900
2EB100
ENDCHAR
STARTCHAR uni0444
ENCODING 1092
SWIDTH 600 0
DWIDTH 7 0
BBX 7 10 0 -2
BITMAP
002B0000
002B0000
003C0000
1CEEE900
782B1D20
942B0A30
884C1D10
2DDDE800
002B0000
002B0000
ENDCHAR
STARTCHAR uni0445
ENCODING 1093
SWIDTH 600 0
DWIDTH 7 0
BBX 6 5 0 0
BITMAP
0B4095
01C690
007E10
03B5A0
1C2087
ENDCHAR
STARTCHAR uni0446
ENCODING 1094
SWIDTH 600 0
DWIDTH 7 0
BBX 6 7 1 -2
BITMAP
E00770
E00770
E00770
E00770
FFFFF4
000093
000093
ENDCHAR
STARTCHAR uni0447
ENCODING 1095
SWIDTH 600 0
DWIDTH 7 0
BBX 5 5 1 0
BITMAP
D00860
E20860
7EFE60
000860
000860
ENDCHAR
STARTCHAR uni0448
ENCODING 1096
SWIDTH 600 0
DWIDTH 7 0
BBX 6 5 0 0
BITMAP
582B0E
582B0E
582B0E
582B0E
5FFFFF
ENDCHAR
STARTCHAR uni0449
ENCODING 1097
SWIDTH 600 0
DWIDTH 7 0
BBX 7 7 0 -2
BITMAP
582A0D00
582A0D00
582A0D00
582A0D00
5FFFFF80
00000480
00000470
ENDCHAR
STARTCHAR uni044A
ENCODING 1098
SWIDTH 600 0
DWIDTH 7 0
BBX 6 5 0 0
BITMAP
9FF200
00CFE6
00C22E
00C22E
00CFE6
ENDCHAR
STARTCHAR uni044B
ENCODING 1099
SWIDTH 600 0
DWIDTH 7 0
BBX 6 5 0 0
BITMAP
49000C
4FFA0C
491A4C
491A3C
4FFA0C
ENDCHAR
STARTCHAR uni044C
ENCODING 1100
SWIDTH 600 0
DWIDTH 7 0
BBX 5 5 1 0
BITMAP
940000
9FFC20
940690
940690
9FFC20
ENDCHAR
STARTCHAR uni044D
ENCODING 1101
SWIDTH 600 0
DWIDTH 7 0
BBX 6 5 0 0
BITMAP
08EE90
161297
00EFFA
151187
09EE90
ENDCHAR
STARTCHAR uni044E
ENCODING 1102
SWIDTH 600 0
DWIDTH 7 0
BBX 7 5 0 0
BITMAP
862CE600
86962D10
8FF20B20
86962D10
862CE700
ENDCHAR
STARTCHAR uni044F
ENCODING 1103
SWIDTH 600 0
DWIDTH 7 0
BBX 6 5 0 0
BITMAP
0AEFF8
2D1068
08FFF8
04B068
1C1068
ENDCHAR
STARTCHAR uni0450
ENCODING 1104
SWIDTH 600 0
DWIDTH 7 0
BBX 6 8 0 0
BITMAP
00A300
001A00
000000
03CEB2
1D304B
3FFFFD
1C4123
03CEC4
ENDCHAR
STARTCHAR uni0451
ENCODING 1105
SWIDTH 600 0
DWIDTH 7 0
BBX 6 8 0 0
BITMAP
01C0C1
000000
000000
03CEB2
1D304B
3FFFFD
1C4123
03CEC4
ENDCHAR
STARTCHAR uni0452
ENCODING 1106
SWIDTH 600 0
DWIDTH 7 0
BBX 6 10 0 -2
BITMAP
0E0000
BFFF40
0E0000
0D7EC2
0F618A
0E001D
0E000E
0E002C
000089
000DC2
ENDCHAR
STARTCHAR uni0453
ENCODING 1107
SWIDTH 600 0
DWIDTH 7 0
BBX 5 8 1 0
BITMAP
001A10
008400
000000
6FFFB0
680000
680000
680000
680000
ENDCHAR
STARTCHAR uni0454
ENCODING 1108
SWIDTH 600 0
DWIDTH 7 0
BBX 6 5 0 0
BITMAP
02BED4
0C4025
1FFFA0
0C4026
03BED4
ENDCHAR
STARTCHAR uni0455
ENCODING 1109
SWIDTH 600 0
DWIDTH 7 0
BBX 6 5 0 0
BITMAP
06DFA1
0C4152
028B93
18205B
05DFC4
ENDCHAR
STARTCHAR uni0456
ENCODING 1110
SWIDTH 600 0
DWIDTH 7 0
BBX 4 8 1 0
BITMAP
00A5
0000
0000
FFF6
0086
0086
0086
0086
ENDCHAR
STARTCHAR uni0457
ENCODING 1111
SWIDTH 600 0
DWIDTH 7 0
BBX 5 8 1 0
BITMAP
0A3850
000000
000000
FFF600
008600
008600
008600
008600
ENDCHAR
STARTCHAR uni0458
ENCODING 1112
SWIDTH 600 0
DWIDTH 7 0
BBX 5 10 0 -2
BITMAP
000A50
000000
000000
0FFF60
000860
000860
000860
000860
121B40
3DEA00
ENDCHAR
STARTCHAR uni0459
ENCODING 1113
SWIDTH 600 0
DWIDTH 7 0
BBX 7 5 0 0
BITMAP
0CFE0000
0D0EE700
0D0D1D10
3B0D1D10
E50EE700
ENDCHAR
STARTCHAR uni045A
ENCODING 1114
SWIDTH 600 0
DWIDTH 7 0
BBX 6 5 0 0
BITMAP
581C00
5ECFE7
5A5C1D
581C1D
581FE7
ENDCHAR
STARTCHAR uni045B
ENCODING 1115
SWIDTH 600 0
DWIDTH 7 0
BBX 6 8 0 0
BITMAP
0E0000
BFFF40
0E0000
0D7ED4
0F616A
0E002B
0E002B
0E002B
ENDCHAR
STARTCHAR uni045C
ENCODING 1116
SWIDTH 600 0
DWIDTH 7 0
BBX 5 8 1 0
BITMAP
003A00
00A100
000000
C207C0
C23C10
CFF600
C22D20
C204C0
ENDCHAR
STARTCHAR uni045D
ENCODING 1117
SWIDTH 600 0
DWIDTH 7 0
BBX 5 8 1 0
BITMAP
0A2000
02A000
000000
D00A80
D06A80
D2A580
CA1680
E40680
ENDCHAR
STARTCHAR uni045E
ENCODING 1118
SWIDTH 600 0
DWIDTH 7 0
BBX 6 10 0 -2
BITMAP
0581C0
00BE70
000000
3A001C
0B3076
04A0C0
00B680
004E10
016900
2EB100
ENDCHAR
STARTCHAR uni045F
ENCODING 1119
SWIDTH 600 0
DWIDTH 7 0
BBX 5 7 1 -2
BITMAP
D00770
D00770
D00770
D00770
DFFF70
02C310
02A000
ENDCHAR
STARTCHAR uni0462
ENCODING 1122
SWIDTH 600 0
DWIDTH 7 0
BBX 6 7 0 0
BITMAP
04A000
BFFFF2
04A000
04FFD5
04A03E
04A03D
04FFD5
ENDCHAR
STARTCHAR uni0463
ENCODING 1123
SWIDTH 600 0
DWIDTH 7 0
BBX 6 6 0 0
BITMAP
00D000
8FFFF1
00D000
00DFE7
00D02E
00DFE7
ENDCHAR
STARTCHAR uni0472
ENCODING 1138
SWIDTH 600 0
DWIDTH 7 0
BBX 7 7 0 0
BITMAP
04CEA100
1D418900
59000E00
7FFFFF10
58000D00
1D318900
04CEA100
ENDCHAR
STARTCHAR uni0473
ENCODING 1139
SWIDTH 600 0
DWIDTH 7 0
BBX 6 5 0 0
BITMAP
05DEB2
2C205A
4FFFFD
2C205A
05DEB2
ENDCHAR
STARTCHAR uni0474
ENCODING 1140
SWIDTH 600 0
DWIDTH 7 0
BBX 7 7 0 0
BITMAP
68001C70
1D006900
0B20A400
0670D000
02B49000
00B95000
006E1000
ENDCHAR
STARTCHAR uni0475
ENCODING 1141
SWIDTH 600 0
DWIDTH 7 0
BBX 7 5 0 0
BITMAP
1D004E10
0A40B300
04A2B000
00C76000
007E1000
ENDCHAR
STARTCHAR uni0490
ENCODING 1168
SWIDTH 600 0
DWIDTH 7 0
BBX 5 9 1 0
BITMAP
0000C0
0000C0
8FFFC0
860000
860000
860000
860000
860000
860000
ENDCHAR
STARTCHAR uni0491
ENCODING 1169
SWIDTH 600 0
DWIDTH 7 0
BBX 5 7 1 0
BITMAP
000480
000570
3FFF70
3A0000
3A0000
3A0000
3A0000
ENDCHAR
STARTCHAR uni0492
ENCODING 1170
SWIDTH 600 0
DWIDTH 7 0
BBX 6 7 0 0
BITMAP
07FFFC
077000
077000
5FFF50
077000
077000
077000
ENDCHAR
STARTCHAR uni0493
ENCODING 1171
SWIDTH 600 0
DWIDTH 7 0
BBX 6 5 0 0
BITMAP
06FFFB
068000
3FFF60
068000
068000
ENDCHAR
STARTCHAR uni0496
ENCODING 1174
SWIDTH 600 0
DWIDTH 7 0
BBX 7 9 0 -2
BITMAP
D52B0B80
2C2B4A00
0B4B8500
08FFF200
0D3B6800
592B1E10
C32B09B0
000000B0
000000A0
ENDCHAR
STARTCHAR uni0497
ENCODING 1175
SWIDTH 600 0
DWIDTH 7 0
BBX 7 7 0 -2
BITMAP
B72B1C60
1D3B7800
09FFF400
2D2B4C00
A52B0AA0
000001A0
00000190
ENDCHAR
STARTCHAR uni0498
ENCODING 1176
SWIDTH 600 0
DWIDTH 7 0
BBX 6 9 0 -2
BITMAP
05DEB1
072197
000196
00BFD2
00005C
19205D
06DFC3
001C00
001B00
ENDCHAR
STARTCHAR uni0499
ENCODING 1177
SWIDTH 600 0
DWIDTH 7 0
BBX 6 7 0 -2
BITMAP
07EEB1
0611B4
00CFC1
161189
09EFC3
004900
004800
ENDCHAR
STARTCHAR uni049A
ENCODING 1178
SWIDTH 600 0
DWIDTH 7 0
BBX 6 9 1 -2
BITMAP
D004E2
D01D20
D08700
DFF200
D06B00
D00B80
D001E7
000056
000056
ENDCHAR
STARTCHAR uni049B
ENCODING 1179
SWIDTH 600 0
DWIDTH 7 0
BBX 6 7 1 -2
BITMAP
C207C0
C46C10
CCD700
C21D40
C203F4
000074
000074
ENDCHAR
STARTCHAR uni04A0
ENCODING 1184
SWIDTH 600 0
DWIDTH 7 0
BBX 7 7 0 0
BITMAP
CFF11C60
00B17700
00B2C000
00BFA000
00B2D300
00B14B00
00B10950
ENDCHAR
STARTCHAR uni04A1
ENCODING 1185
SWIDTH 600 0
DWIDTH 7 0
BBX 7 5 0 0
BITMAP
AFF13E20
00C1A400
00CFD000
00C18600
00C10B20
ENDCHAR
STARTCHAR uni04A2
ENCODING 1186
SWIDTH 600 0
DWIDTH 7 0
BBX 7 9 0 -2
BITMAP
2C003B00
2C003B00
2C003B00
2FFFFB00
2C003B00
2C003B00
2C003F70
00000570
00000560
ENDCHAR
STARTCHAR uni04A3
ENCODING 1187
SWIDTH 600 0
DWIDTH 7 0
BBX 6 7 1 -2
BITMAP
E00770
E00770
FFFF70
E00770
E007F4
000093
000093
ENDCHAR
STARTCHAR uni04AA
ENCODING 1194
SWIDTH 600 0
DWIDTH 7 0
BBX 6 9 0 -2
BITMAP
019ED5
0B8126
2D0000
4A0000
2D0000
0B8128
01AFD5
000850
000840
ENDCHAR
STARTCHAR uni04AB
ENCODING 1195
SWIDTH 600 0
DWIDTH 7 0
BBX 6 7 0 -2
BITMAP
02BED4
0D6125
1D0000
0D6126
03CFD5
000A20
000A20
ENDCHAR
STARTCHAR uni04AE
ENCODING 1198
SWIDTH 600 0
DWIDTH 7 0
BBX 6 7 0 0
BITMAP
5A001C
0B3086
04A1C0
00AB50
003C00
002C00
002C00
ENDCHAR
STARTCHAR uni04AF
ENCODING 1199
SWIDTH 600 0
DWIDTH 7 0
BBX 6 7 0 -2
BITMAP
3B001C
0B2085
0490C0
00C770
005E10
002C00
002C00
ENDCHAR
STARTCHAR uni04B0
ENCODING 1200
SWIDTH 600 0
DWIDTH 7 0
BBX 6 7 0 0
BITMAP
5A001C
0B3086
04A1C0
00BB50
0CFFF7
002C00
002C00
ENDCHAR
STARTCHAR uni04B1
ENCODING 1201
SWIDTH 600 0
DWIDTH 7 0
BBX 6 7 0 -2
BITMAP
3B001B
0A2084
0390B0
009750
0DFFF8
002C00
002C00
ENDCHAR
STARTCHAR uni04B2
ENCODING 1202
SWIDTH 600 0
DWIDTH 7 0
BBX 7 9 0 -2
BITMAP
1D106800
0591C100
00B95000
006E1000
01C79000
0860D300
2C004F30
00000920
00000920
ENDCHAR
STARTCHAR uni04B3
ENCODING 1203
SWIDTH 600 0
DWIDTH 7 0
BBX 7 7 0 -2
BITMAP
0B409500
01C69000
007F1000
03B5C100
1C208F20
00000B20
00000B10
ENDCHAR
STARTCHAR uni04B6
ENCODING 1206
SWIDTH 600 0
DWIDTH 7 0
BBX 7 9 0 -2
BITMAP
49004900
49004900
2D205900
07EFE900
00004900
00004900
00004F60
00000750
00000750
ENDCHAR
STARTCHAR uni04B7
ENCODING 1207
SWIDTH 600 0
DWIDTH 7 0
BBX 6 7 1 -2
BITMAP
D00950
E20950
7EFF50
000950
0009F2
0000C1
0000C1
ENDCHAR
STARTCHAR uni04BA
ENCODING 1210
SWIDTH 600 0
DWIDTH 7 0
BBX 5 7 1 0
BITMAP
E00000
E00000
FEEB20
E118A0
E001C0
E001D0
E001D0
ENDCHAR
STARTCHAR uni04BB
ENCODING 1211
SWIDTH 600 0
DWIDTH 7 0
BBX 5 8 1 0
BITMAP
E00000
E00000
E00000
D7ED40
F716A0
E002B0
E002B0
E002B0
ENDCHAR
STARTCHAR uni04C0
ENCODING 1216
SWIDTH 600 0
DWIDTH 7 0
BBX 5 7 1 0
BITMAP
EFFF80
02C000
02C000
02C000
02C000
02C000
EFFF80
ENDCHAR
STARTCHAR uni04C1
ENCODING 1217
SWIDTH 600 0
DWIDTH 7 0
BBX 7 10 0 0
BITMAP
04A1C000
00BE6000
00000000
D52B0B80
2C2B4A00
0B4B8500
08FFF200
0D3B6800
592B1D00
C32B0950
ENDCHAR
STARTCHAR uni04C2
ENCODING 1218
SWIDTH 600 0
DWIDTH 7 0
BBX 7 8 0 0
BITMAP
0581C000
01BE6000
00000000
B72B1C60
1D3B7800
09FFF300
2D2B4B00
A52B0A40
ENDCHAR
STARTCHAR uni04CF
ENCODING 1231
SWIDTH 600 0
DWIDTH 7 0
BBX 6 8 0 0
BITMAP
3FF900
004900
004900
004900
004900
004900
003C12
000BEA
ENDCHAR
STARTCHAR uni04D0
ENCODING 1232
SWIDTH 600 0
DWIDTH 7 0
BBX 7 10 0 0
BITMAP
04A1C000
00BE6000
00000000
006E1000
00B85000
01A2A000
0660C100
0CFFF600
2C004B00
77000D10
ENDCHAR
STARTCHAR uni04D1
ENCODING 1233
SWIDTH 600 0
DWIDTH 7 0
BBX 6 8 0 0
BITMAP
02B1A2
009E90
000000
04CEC2
063189
04ADFA
1E427A
0AED8A
ENDCHAR
STARTCHAR uni04D4
ENCODING 1236
SWIDTH 600 0
DWIDTH 7 0
BBX 7 7 0 0
BITMAP
005FFF60
00BA5000
02A85000
0848FE00
1EFF5000
68085000
C208FF80
ENDCHAR
STARTCHAR uni04D5
ENCODING 1237
SWIDTH 600 0
DWIDTH 7 0
BBX 7 5 0 0
BITMAP
4DD6DC10
3ADD1570
982FFF80
C34C2210
6EB6DD30
ENDCHAR
STARTCHAR uni04D6
ENCODING 1238
SWIDTH 600 0
DWIDTH 7 0
BBX 5 10 1 0
BITMAP
0D1A30
07EA00
000000
BFFFB0
B30000
B30000
BFFF30
B30000
B30000
BFFFC0
ENDCHAR
STARTCHAR uni04D7
ENCODING 1239
SWIDTH 600 0
DWIDTH 7 0
BBX 6 8 0 0
BITMAP
03A1B2
00AE90
000000
03CEB2
1D304B
3FFFFD
1C4123
03CEC4
ENDCHAR
STARTCHAR uni04D8
ENCODING 1240
SWIDTH 600 0
DWIDTH 7 0
BBX 6 7 0 0
BITMAP
02CEA1
043189
00000D
5FFFFF
3A000D
0C4188
02CE91
ENDCHAR
STARTCHAR uni04D9
ENCODING 1241
SWIDTH 600 0
DWIDTH 7 0
BBX 6 5 0 0
BITMAP
06DEA1
04116A
3FFFFD
1C216A
05DEB1
ENDCHAR
STARTCHAR uni04E2
ENCODING 1250
SWIDTH 600 0
DWIDTH 7 0
BBX 6 9 0 0
BITMAP
02FFC0
000000
2B008B
2B02CB
2B0A6B
2B3C2B
2AB42B
2CA02B
2F202B
ENDCHAR
STARTCHAR uni04E3
ENCODING 1251
SWIDTH 600 0
DWIDTH 7 0
BBX 5 7 1 0
BITMAP
0FFD00
000000
D00A80
D06A80
D2A580
CA1680
E40680
ENDCHAR
STARTCHAR uni04E6
ENCODING 1254
SWIDTH 600 0
DWIDTH 7 0
BBX 7 9 0 0
BITMAP
02A2A000
00000000
04CEA100
1D419900
59001E00
77000E10
59001E00
1D419900
04CEA100
ENDCHAR
STARTCHAR uni04E7
ENCODING 1255
SWIDTH 600 0
DWIDTH 7 0
BBX 6 8 0 0
BITMAP
03A2B0
000000
000000
05DEA1
2D317A
4A001D
2D317A
05DEB2
ENDCHAR
STARTCHAR uni04E8
ENCODING 1256
SWIDTH 600 0
DWIDTH 7 0
BBX 7 7 0 0
BITMAP
04CEA100
1D418900
59000E00
7FFFFF10
58000D00
1D318900
04CEA100
ENDCHAR
STARTCHAR uni04E9
ENCODING 1257
SWIDTH 600 0
DWIDTH 7 0
BBX 6 5 0 0
BITMAP
05DEB2
2C205A
4FFFFD
2C205A
05DEB2
ENDCHAR
STARTCHAR uni04EE
ENCODING 1262
SWIDTH 600 0
DWIDTH 7 0
BBX 6 9 0 0
BITMAP
02FFC0
000000
4B001D
0C2067
0590C1
00C4A0
006E30
004C00
0AD300
ENDCHAR
STARTCHAR uni04EF
ENCODING 1263
SWIDTH 600 0
DWIDTH 7 0
BBX 6 9 0 -2
BITMAP
02FFC0
000000
3A001C
0B3076
04A0C0
00B680
004E10
016900
2EB100
ENDCHAR
STARTCHAR uni04F2
ENCODING 1266
SWIDTH 600 0
DWIDTH 7 0
BBX 6 10 0 0
BITMAP
003763
008190
000000
4B001D
0C2067
0590C1
00C4A0
006E30
004C00
0AD300
ENDCHAR
STARTCHAR uni04F3
ENCODING 1267
SWIDTH 600 0
DWIDTH 7 0
BBX 6 10 0 -2
BITMAP
002863
008290
000000
3A001C
0B3076
04A0C0
00B680
004E10
016900
2EB100
ENDCHAR
STARTCHAR a.sups
ENCODING 7491
SWIDTH 600 0
DWIDTH 7 0
BBX 4 4 1 4
BITMAP
09E8
0ADD
2B2B
1DC5
ENDCHAR
STARTCHAR b.sups
ENCODING 7495
SWIDTH 600 0
DWIDTH 7 0
BBX 5 6 1 4
BITMAP
020000
290000
2BDA00
2A1B20
2A1B10
18E900
ENDCHAR
STARTCHAR d.sups
ENCODING 7496
SWIDTH 600 0
DWIDTH 7 0
BBX 4 6 1 4
BITMAP
0003
000B
1CCB
671B
771B
1DC6
ENDCHAR
STARTCHAR e.sups
ENCODING 7497
SWIDTH 600 0
DWIDTH 7 0
BBX 4 4 1 4
BITMAP
0AE6
581A
5FFF
0AE8
ENDCHAR
STARTCHAR g.sups
ENCODING 7501
SWIDTH 600 0
DWIDTH 7 0
BBX 5 6 1 2
BITMAP
0BFF40
1B3900
0DE500
1EFD20
461930
2DE900
ENDCHAR
STARTCHAR k.sups
ENCODING 7503
SWIDTH 600 0
DWIDTH 7 0
BBX 4 6 2 4
BITMAP
7000
B000
B1A1
CC30
C3A0
6043
ENDCHAR
STARTCHAR m.sups
ENCODING 7504
SWIDTH 600 0
DWIDTH 7 0
BBX 6 4 0 4
BITMAP
4CE9E6
493C1B
471A0A
471A0A
ENDCHAR
STARTCHAR o.sups
ENCODING 7506
SWIDTH 600 0
DWIDTH 7 0
BBX 4 4 1 4
BITMAP
0BE6
571C
571C
1BE6
ENDCHAR
STARTCHAR p.sups
ENCODING 7510
SWIDTH 600 0
DWIDTH 7 0
BBX 5 6 1 2
BITMAP
2ADA00
2A1B20
2A1B10
2CE900
290000
010000
ENDCHAR
STARTCHAR t.sups
ENCODING 7511
SWIDTH 600 0
DWIDTH 7 0
BBX 4 5 1 4
BITMAP
0450
3FFE
0550
0571
02DD
ENDCHAR
STARTCHAR u.sups
ENCODING 7512
SWIDTH 600 0
DWIDTH 7 0
BBX 4 4 1 4
BITMAP
470B
470B
492C
1DCA
ENDCHAR
STARTCHAR v.sups
ENCODING 7515
SWIDTH 600 0
DWIDTH 7 0
BBX 4 4 1 4
BITMAP
560A
0B38
09A3
04D0
ENDCHAR
STARTCHAR c.sups
ENCODING 7580
SWIDTH 600 0
DWIDTH 7 0
BBX 3 4 2 4
BITMAP
5EA0
C120
C120
6EB0
ENDCHAR
STARTCHAR f.sups
ENCODING 7584
SWIDTH 600 0
DWIDTH 7 0
BBX 4 6 2 4
BITMAP
08E6
0C11
CFF2
0A00
0A00
0A00
ENDCHAR
STARTCHAR z.sups
ENCODING 7611
SWIDTH 600 0
DWIDTH 7 0
BBX 4 4 1 4
BITMAP
2FFB
0051
0420
3FFF
ENDCHAR
STARTCHAR uni1E06
ENCODING 7686
SWIDTH 600 0
DWIDTH 7 0
BBX 5 9 1 -2
BITMAP
EFEB20
E01880
E01960
EFFC20
E003D0
E004D0
EFFC40
000000
1FFD00
ENDCHAR
STARTCHAR uni1E07
ENCODING 7687
SWIDTH 600 0
DWIDTH 7 0
BBX 5 10 1 -2
BITMAP
E00000
E00000
E00000
E9EC30
E516C0
E001D0
E417A0
DBEB20
000000
1FFD00
ENDCHAR
STARTCHAR uni1E0C
ENCODING 7692
SWIDTH 600 0
DWIDTH 7 0
BBX 7 9 0 -2
BITMAP
1FFD8100
1D02A900
1D001E00
1D000D10
1D001E00
1D02A800
1FFD8000
00000000
004B0000
ENDCHAR
STARTCHAR uni1E0D
ENCODING 7693
SWIDTH 600 0
DWIDTH 7 0
BBX 6 10 0 -2
BITMAP
000059
000059
000059
05DEB9
2D3199
5A0059
2D21A9
07ED99
000000
003C00
ENDCHAR
STARTCHAR uni1E0E
ENCODING 7694
SWIDTH 600 0
DWIDTH 7 0
BBX 7 9 0 -2
BITMAP
1FFD8100
1D02A900
1D001E00
1D000D10
1D001E00
1D02A800
1FFD8000
00000000
03FFB000
ENDCHAR
STARTCHAR uni1E0F
ENCODING 7695
SWIDTH 600 0
DWIDTH 7 0
BBX 6 10 0 -2
BITMAP
000059
000059
000059
05DEB9
2D3199
5A0059
2D21A9
07ED99
000000
02FFC0
ENDCHAR
STARTCHAR uni1E10
ENCODING 7696
SWIDTH 600 0
DWIDTH 7 0
BBX 7 11 0 -4
BITMAP
1FFD8100
1D02A900
1D001E00
1D000D10
1D001E00
1D02A800
1FFD8000
00350000
006B0000
001C0000
00C70000
ENDCHAR
STARTCHAR uni1E11
ENCODING 7697
SWIDTH 600 0
DWIDTH 7 0
BBX 6 12 0 -4
BITMAP
000059
000059
000059
05DEB9
2D3199
5A0059
2D21A9
07ED99
002700
005C00
001C10
00B800
ENDCHAR
STARTCHAR uni1E16
ENCODING 7702
SWIDTH 600 0
DWIDTH 7 0
BBX 5 12 1 0
BITMAP
002800
008200
000000
0CFF20
000000
BFFFB0
B30000
B30000
BFFF30
B30000
B30000
BFFFC0
ENDCHAR
STARTCHAR uni1E17
ENCODING 7703
SWIDTH 600 0
DWIDTH 7 0
BBX 6 10 0 0
BITMAP
000560
001A10
000000
00FFE0
000000
03CEB2
1D304B
3FFFFD
1C4123
03CEC4
ENDCHAR
STARTCHAR uni1E20
ENCODING 7712
SWIDTH 600 0
DWIDTH 7 0
BBX 6 9 0 0
BITMAP
00DFF2
000000
02AED4
0D7135
4B0000
6906FD
4B000D
0D612D
02BED6
ENDCHAR
STARTCHAR uni1E21
ENCODING 7713
SWIDTH 600 0
DWIDTH 7 0
BBX 7 9 0 -2
BITMAP
01FFD000
00000000
04DFFF30
0D31B200
09DBD100
0A441000
09FFFB10
2B102D20
0AEFC500
ENDCHAR
STARTCHAR uni1E24
ENCODING 7716
SWIDTH 600 0
DWIDTH 7 0
BBX 6 9 0 -2
BITMAP
2C003B
2C003B
2C003B
2FFFFB
2C003B
2C003B
2C003B
000000
004C00
ENDCHAR
STARTCHAR uni1E25
ENCODING 7717
SWIDTH 600 0
DWIDTH 7 0
BBX 5 10 1 -2
BITMAP
E00000
E00000
E00000
D7ED40
F716A0
E002B0
E002B0
E002B0
000000
02D100
ENDCHAR
STARTCHAR uni1E26
ENCODING 7718
SWIDTH 600 0
DWIDTH 7 0
BBX 6 9 0 0
BITMAP
02A2A0
000000
2C003B
2C003B
2C003B
2FFFFB
2C003B
2C003B
2C003B
ENDCHAR
STARTCHAR uni1E27
ENCODING 7719
SWIDTH 600 0
DWIDTH 7 0
BBX 6 10 0 0
BITMAP
C0C000
000000
0E0000
0E0000
0E0000
0D7ED4
0F716A
0E002B
0E002B
0E002B
ENDCHAR
STARTCHAR uni1E28
ENCODING 7720
SWIDTH 600 0
DWIDTH 7 0
BBX 6 11 0 -4
BITMAP
2C003B
2C003B
2C003B
2FFFFB
2C003B
2C003B
2C003B
180000
4D1000
1B2000
990000
ENDCHAR
STARTCHAR uni1E29
ENCODING 7721
SWIDTH 600 0
DWIDTH 7 0
BBX 6 12 0 -4
BITMAP
0E0000
0E0000
0E0000
0D7ED4
0F716A
0E002B
0E002B
0E002B
080000
1E2000
094000
7B1000
ENDCHAR
STARTCHAR uni1E2A
ENCODING 7722
SWIDTH 600 0
DWIDTH 7 0
BBX 6 10 0 -3
BITMAP
2C003B
2C003B
2C003B
2FFFFB
2C003B
2C003B
2C003B
000000
0571B0
00BE60
ENDCHAR
STARTCHAR uni1E2B
ENCODING 7723
SWIDTH 600 0
DWIDTH 7 0
BBX 5 11 1 -3
BITMAP
E00000
E00000
E00000
D7ED40
F716A0
E002B0
E002B0
E002B0
000000
391A10
09E800
ENDCHAR
STARTCHAR uni1E32
ENCODING 7730
SWIDTH 600 0
DWIDTH 7 0
BBX 6 9 1 -2
BITMAP
E005A0
E04B10
E2D100
ECB500
E42D00
E00870
E001D2
000000
00C400
ENDCHAR
STARTCHAR uni1E33
ENCODING 7731
SWIDTH 600 0
DWIDTH 7 0
BBX 6 10 1 -2
BITMAP
C10000
C10000
C10000
C10860
C2B400
CC9700
C30B30
C102C1
000000
00C400
ENDCHAR
STARTCHAR uni1E34
ENCODING 7732
SWIDTH 600 0
DWIDTH 7 0
BBX 6 9 1 -2
BITMAP
E005A0
E04B10
E2D100
ECB500
E42D00
E00870
E001D2
000000
0BFF30
ENDCHAR
STARTCHAR uni1E35
ENCODING 7733
SWIDTH 600 0
DWIDTH 7 0
BBX 6 10 1 -2
BITMAP
C10000
C10000
C10000
C10860
C2B400
CC9700
C30B30
C102C1
000000
0CFF20
ENDCHAR
STARTCHAR uni1E36
ENCODING 7734
SWIDTH 600 0
DWIDTH 7 0
BBX 5 9 1 -2
BITMAP
860000
860000
860000
860000
860000
860000
8FFFE0
000000
00A500
ENDCHAR
STARTCHAR uni1E37
ENCODING 7735
SWIDTH 600 0
DWIDTH 7 0
BBX 6 10 0 -2
BITMAP
3FF900
004900
004900
004900
004900
004900
003C12
000BEA
000000
0004B0
ENDCHAR
STARTCHAR uni1E38
ENCODING 7736
SWIDTH 600 0
DWIDTH 7 0
BBX 6 11 0 -2
BITMAP
6FF900
000000
086000
086000
086000
086000
086000
086000
08FFFE
000000
000A50
ENDCHAR
STARTCHAR uni1E39
ENCODING 7737
SWIDTH 600 0
DWIDTH 7 0
BBX 6 12 0 -2
BITMAP
05FF90
000000
3FF900
004900
004900
004900
004900
004900
003C12
000BEA
000000
0004B0
ENDCHAR
STARTCHAR uni1E3A
ENCODING 7738
SWIDTH 600 0
DWIDTH 7 0
BBX 5 9 1 -2
BITMAP
860000
860000
860000
860000
860000
860000
8FFFE0
000000
09FF40
ENDCHAR
STARTCHAR uni1E3B
ENCODING 7739
SWIDTH 600 0
DWIDTH 7 0
BBX 6 10 0 -2
BITMAP
3FF900
004900
004900
004900
004900
004900
003C12
000BEA
000000
003FFB
ENDCHAR
STARTCHAR uni1E3E
ENCODING 7742
SWIDTH 600 0
DWIDTH 7 0
BBX 6 10 0 0
BITMAP
000660
003900
000000
3F107C
3D60BC
3AB39C
3AA94C
3A4D1C
3A011C
3A001C
ENDCHAR
STARTCHAR uni1E3F
ENCODING 7743
SWIDTH 600 0
DWIDTH 7 0
BBX 7 8 0 0
BITMAP
00039000
001A1000
00000000
5BE8DC00
5B3E2D20
580C0C20
580C0C20
580C0C20
ENDCHAR
STARTCHAR uni1E40
ENCODING 7744
SWIDTH 600 0
DWIDTH 7 0
BBX 6 9 0 0
BITMAP
003B00
000000
3F107C
3D60BC
3AB39C
3AA94C
3A4D1C
3A011C
3A001C
ENDCHAR
STARTCHAR uni1E41
ENCODING 7745
SWIDTH 600 0
DWIDTH 7 0
BBX 7 8 0 0
BITMAP
002D1000
00000000
00000000
5BE8DC00
5B3E2D20
580C0C20
580C0C20
580C0C20
ENDCHAR
STARTCHAR uni1E42
ENCODING 7746
SWIDTH 600 0
DWIDTH 7 0
BBX 6 9 0 -2
BITMAP
3F107C
3D60BC
3AB39C
3AA94C
3A4D1C
3A011C
3A001C
000000
004C00
ENDCHAR
STARTCHAR uni1E43
ENCODING 7747
SWIDTH 600 0
DWIDTH 7 0
BBX 7 7 0 -2
BITMAP
5BE8DC00
5B3E2D20
580C0C20
580C0C20
580C0C20
00000000
002D0000
ENDCHAR
STARTCHAR uni1E44
ENCODING 7748
SWIDTH 600 0
DWIDTH 7 0
BBX 6 9 0 0
BITMAP
002C00
000000
1F303B
1DA03B
1BA33B
1C3B3B
1C096B
1C02CB
1C009B
ENDCHAR
STARTCHAR uni1E45
ENCODING 7749
SWIDTH 600 0
DWIDTH 7 0
BBX 5 8 1 0
BITMAP
01D100
000000
000000
C7ED40
F716A0
E002B0
E002B0
E002B0
ENDCHAR
STARTCHAR uni1E46
ENCODING 7750
SWIDTH 600 0
DWIDTH 7 0
BBX 6 9 0 -2
BITMAP
1F303B
1DA03B
1BA33B
1C3B3B
1C096B
1C02CB
1C009B
000000
004C00
ENDCHAR
STARTCHAR uni1E47
ENCODING 7751
SWIDTH 600 0
DWIDTH 7 0
BBX 5 7 1 -2
BITMAP
C7ED40
F716A0
E002B0
E002B0
E002B0
000000
02D100
ENDCHAR
STARTCHAR uni1E48
ENCODING 7752
SWIDTH 600 0
DWIDTH 7 0
BBX 6 9 0 -2
BITMAP
1F303B
1DA03B
1BA33B
1C3B3B
1C096B
1C02CB
1C009B
000000
02FFC0
ENDCHAR
STARTCHAR uni1E49
ENCODING 7753
SWIDTH 600 0
DWIDTH 7 0
BBX 5 7 1 -2
BITMAP
C7ED40
F716A0
E002B0
E002B0
E002B0
000000
0FFE00
ENDCHAR
STARTCHAR uni1E52
ENCODING 7762
SWIDTH 600 0
DWIDTH 7 0
BBX 7 12 0 0
BITMAP
00055000
00190000
00000000
03FFC000
00000000
04CEA100
1D419900
59001E00
77000E10
59001E00
1D419900
04CEA100
ENDCHAR
STARTCHAR uni1E53
ENCODING 7763
SWIDTH 600 0
DWIDTH 7 0
BBX 6 10 0 0
BITMAP
000740
003800
000000
02FFC0
000000
05DEA1
2D317A
4A001D
2D317A
05DEB2
ENDCHAR
STARTCHAR uni1E58
ENCODING 7768
SWIDTH 600 0
DWIDTH 7 0
BBX 5 9 1 0
BITMAP
02C000
000000
EFFC30
E005C0
E005B0
EFFC30
E06900
E00C30
E004C0
ENDCHAR
STARTCHAR uni1E59
ENCODING 7769
SWIDTH 600 0
DWIDTH 7 0
BBX 5 8 1 0
BITMAP
00B500
000000
000000
669EB0
6E5010
680000
680000
680000
ENDCHAR
STARTCHAR uni1E5A
ENCODING 7770
SWIDTH 600 0
DWIDTH 7 0
BBX 5 9 1 -2
BITMAP
EFFC30
E005C0
E005B0
EFFC30
E06900
E00C30
E004C0
000000
01D100
ENDCHAR
STARTCHAR uni1E5B
ENCODING 7771
SWIDTH 600 0
DWIDTH 7 0
BBX 5 7 1 -2
BITMAP
669EB0
6E5010
680000
680000
680000
000000
5A0000
ENDCHAR
STARTCHAR uni1E5C
ENCODING 7772
SWIDTH 600 0
DWIDTH 7 0
BBX 5 11 1 -2
BITMAP
2FFC00
000000
EFFC30
E005C0
E005B0
EFFC30
E06900
E00C30
E004C0
000000
01D100
ENDCHAR
STARTCHAR uni1E5D
ENCODING 7773
SWIDTH 600 0
DWIDTH 7 0
BBX 5 9 1 -2
BITMAP
0AFF40
000000
669EB0
6E5010
680000
680000
680000
000000
5A0000
ENDCHAR
STARTCHAR uni1E5E
ENCODING 7774
SWIDTH 600 0
DWIDTH 7 0
BBX 5 9 1 -2
BITMAP
EFFC30
E005C0
E005B0
EFFC30
E06900
E00C30
E004C0
000000
0EFF00
ENDCHAR
STARTCHAR uni1E5F
ENCODING 7775
SWIDTH 600 0
DWIDTH 7 0
BBX 6 7 0 -2
BITMAP
0669EB
06E501
068000
068000
068000
000000
4FFA00
ENDCHAR
STARTCHAR uni1E60
ENCODING 7776
SWIDTH 600 0
DWIDTH 7 0
BBX 6 9 0 0
BITMAP
001D00
000000
04CFB2
0D4145
0A8100
017DA1
00006B
1A305C
05DFC3
ENDCHAR
STARTCHAR uni1E61
ENCODING 7777
SWIDTH 600 0
DWIDTH 7 0
BBX 6 8 0 0
BITMAP
003C00
000000
000000
06DFA1
0C4152
028B93
18205B
05DFC4
ENDCHAR
STARTCHAR uni1E62
ENCODING 7778
SWIDTH 600 0
DWIDTH 7 0
BBX 6 9 0 -2
BITMAP
04CFB2
0D4145
0A8100
017DA1
00006B
1A305C
05DFC3
000000
002D10
ENDCHAR
STARTCHAR uni1E63
ENCODING 7779
SWIDTH 600 0
DWIDTH 7 0
BBX 6 7 0 -2
BITMAP
06DFA1
0C4152
028B93
18205B
05DFC4
000000
002D00
ENDCHAR
STARTCHAR uni1E6C
ENCODING 7788
SWIDTH 600 0
DWIDTH 7 0
BBX 7 9 0 -2
BITMAP
8FFFFF20
002C0000
002C0000
002C0000
002C0000
002C0000
002C0000
00000000
004C0000
ENDCHAR
STARTCHAR uni1E6D
ENCODING 7789
SWIDTH 600 0
DWIDTH 7 0
BBX 6 9 0 -2
BITMAP
009300
00A300
3EFFFC
00B300
00B300
00A602
004DEB
000000
0005A0
ENDCHAR
STARTCHAR uni1E6E
ENCODING 7790
SWIDTH 600 0
DWIDTH 7 0
BBX 7 9 0 -2
BITMAP
8FFFFF20
002C0000
002C0000
002C0000
002C0000
002C0000
002C0000
00000000
02FFC000
ENDCHAR
STARTCHAR uni1E6F
ENCODING 7791
SWIDTH 600 0
DWIDTH 7 0
BBX 6 9 0 -2
BITMAP
009300
00A300
3EFFFC
00B300
00B300
00A602
004DEB
000000
004FFA
ENDCHAR
STARTCHAR uni1E7E
ENCODING 7806
SWIDTH 600 0
DWIDTH 7 0
BBX 6 9 0 -2
BITMAP
69000D
1D004A
0B3095
0680D0
01C3A0
00BA50
006E10
000000
003C00
ENDCHAR
STARTCHAR uni1E7F
ENCODING 7807
SWIDTH 600 0
DWIDTH 7 0
BBX 6 7 0 -2
BITMAP
3A001C
0B2076
0580C0
00C670
006E10
000000
004C00
ENDCHAR
STARTCHAR Wgrave
ENCODING 7808
SWIDTH 600 0
DWIDTH 7 0
BBX 7 10 0 0
BITMAP
00A20000
00290000
00000000
C3000860
A5020A40
874E0C20
588B3D00
3AB58C00
1CA1CA00
0D70C800
ENDCHAR
STARTCHAR wgrave
ENCODING 7809
SWIDTH 600 0
DWIDTH 7 0
BBX 7 8 0 0
BITMAP
00B10000
00390000
00000000
C1290760
856D1A30
58A75C00
1BB3AB00
0D80D700
ENDCHAR
STARTCHAR Wacute
ENCODING 7810
SWIDTH 600 0
DWIDTH 7 0
BBX 7 10 0 0
BITMAP
00066000
00390000
00000000
C3000860
A5020A40
874E0C20
588B3D00
3AB58C00
1CA1CA00
0D70C800
ENDCHAR
STARTCHAR wacute
ENCODING 7811
SWIDTH 600 0
DWIDTH 7 0
BBX 7 8 0 0
BITMAP
00057000
00290000
00000000
C1290760
856D1A30
58A75C00
1BB3AB00
0D80D700
ENDCHAR
STARTCHAR Wdieresis
ENCODING 7812
SWIDTH 600 0
DWIDTH 7 0
BBX 7 9 0 0
BITMAP
02A2A000
00000000
C3000860
A5020A40
874E0C20
588B3D00
3AB58C00
1CA1CA00
0D70C800
ENDCHAR
STARTCHAR wdieresis
ENCODING 7813
SWIDTH 600 0
DWIDTH 7 0
BBX 7 8 0 0
BITMAP
03A2B000
00000000
00000000
C1290760
856D1A30
58A75C00
1BB3AB00
0D80D700
ENDCHAR
STARTCHAR uni1E8E
ENCODING 7822
SWIDTH 600 0
DWIDTH 7 0
BBX 6 9 0 0
BITMAP
003B00
000000
5A001C
0B3086
04A1C0
00AB50
003C00
002C00
002C00
ENDCHAR
STARTCHAR uni1E8F
ENCODING 7823
SWIDTH 600 0
DWIDTH 7 0
BBX 6 10 0 -2
BITMAP
003C00
000000
000000
3A001C
0B3076
04A0C0
00B680
004E10
016900
2EB100
ENDCHAR
STARTCHAR uni1E90
ENCODING 7824
SWIDTH 600 0
DWIDTH 7 0
BBX 6 9 0 0
BITMAP
005D50
009090
0EFFFD
0000A5
000680
003B00
01C100
0A4000
4FFFFE
ENDCHAR
STARTCHAR uni1E91
ENCODING 7825
SWIDTH 600 0
DWIDTH 7 0
BBX 6 8 0 0
BITMAP
005D50
009091
000000
0CFFFA
0003B1
004A10
069000
3FFFFD
ENDCHAR
STARTCHAR uni1E92
ENCODING 7826
SWIDTH 600 0
DWIDTH 7 0
BBX 6 9 0 -2
BITMAP
0EFFFD
0000A5
000680
003B00
01C100
0A4000
4FFFFE
000000
002D00
ENDCHAR
STARTCHAR uni1E93
ENCODING 7827
SWIDTH 600 0
DWIDTH 7 0
BBX 6 7 0 -2
BITMAP
0CFFFA
0003B1
004A10
069000
3FFFFD
000000
002D10
ENDCHAR
STARTCHAR uni1E94
ENCODING 7828
SWIDTH 600 0
DWIDTH 7 0
BBX 6 9 0 -2
BITMAP
0EFFFD
0000A5
000680
003B00
01C100
0A4000
4FFFFE
000000
01FFD0
ENDCHAR
STARTCHAR uni1E95
ENCODING 7829
SWIDTH 600 0
DWIDTH 7 0
BBX 6 7 0 -2
BITMAP
0CFFFA
0003B1
004A10
069000
3FFFFD
000000
00FFE0
ENDCHAR
STARTCHAR uni1E96
ENCODING 7830
SWIDTH 600 0
DWIDTH 7 0
BBX 5 10 1 -2
BITMAP
E00000
E00000
E00000
D7ED40
F716A0
E002B0
E002B0
E002B0
000000
0FFE00
ENDCHAR
STARTCHAR uni1E97
ENCODING 7831
SWIDTH 600 0
DWIDTH 7 0
BBX 6 9 0 0
BITMAP
094760
000000
009300
00A300
3EFFFC
00B300
00B300
00A602
004DEB
ENDCHAR
STARTCHAR uni1E9E
ENCODING 7838
SWIDTH 600 0
DWIDTH 7 0
BBX 7 7 0 0
BITMAP
04CEB200
0E419600
2C06A000
2C07EA00
2C001D30
2C231D20
2C2CE800
ENDCHAR
STARTCHAR uni1EA0
ENCODING 7840
SWIDTH 600 0
DWIDTH 7 0
BBX 7 9 0 -2
BITMAP
006E1000
00B85000
01A2A000
0660C100
0CFFF600
2C004B00
77000D10
00000000
004C0000
ENDCHAR
STARTCHAR uni1EA1
ENCODING 7841
SWIDTH 600 0
DWIDTH 7 0
BBX 6 7 0 -2
BITMAP
04CEC2
063189
04ADFA
1E427A
0AED8A
000000
004C00
ENDCHAR
STARTCHAR uni1EA2
ENCODING 7842
SWIDTH 600 0
DWIDTH 7 0
BBX 7 10 0 0
BITMAP
006B0000
000B2000
001B0000
006E1000
00B85000
01A2A000
0660C100
0CFFF600
2C004B00
77000D10
ENDCHAR
STARTCHAR uni1EA3
ENCODING 7843
SWIDTH 600 0
DWIDTH 7 0
BBX 6 9 0 0
BITMAP
003C20
000850
000B10
000000
04CEC2
063189
04ADFA
1E427A
0AED8A
ENDCHAR
STARTCHAR uni1EA4
ENCODING 7844
SWIDTH 600 0
DWIDTH 7 0
BBX 7 10 0 0
BITMAP
00004400
00884000
00000000
006E1000
00B85000
01A2A000
0660C100
0CFFF600
2C004B00
77000D10
ENDCHAR
STARTCHAR uni1EA5
ENCODING 7845
SWIDTH 600 0
DWIDTH 7 0
BBX 6 9 0 0
BITMAP
000009
000035
006870
000000
04CEC2
063189
04ADFA
1E427A
0AED8A
ENDCHAR
STARTCHAR uni1EA6
ENCODING 7846
SWIDTH 600 0
DWIDTH 7 0
BBX 7 10 0 0
BITMAP
07100000
00884000
00000000
006E1000
00B85000
01A2A000
0660C100
0CFFF600
2C004B00
77000D10
ENDCHAR
STARTCHAR uni1EA7
ENCODING 7847
SWIDTH 600 0
DWIDTH 7 0
BBX 6 9 0 0
BITMAP
190000
064000
006870
000000
04CEC2
063189
04ADFA
1E427A
0AED8A
ENDCHAR
STARTCHAR uni1EA8
ENCODING 7848
SWIDTH 600 0
DWIDTH 7 0
BBX 7 11 0 0
BITMAP
0000B400
00004800
0088B400
00000000
006E1000
00B85000
01A2A000
0660C100
0CFFF600
2C004B00
77000D10
ENDCHAR
STARTCHAR uni1EA9
ENCODING 7849
SWIDTH 600 0
DWIDTH 7 0
BBX 6 10 0 0
BITMAP
000087
00001B
000046
006870
000000
04CEC2
063189
04ADFA
1E427A
0AED8A
ENDCHAR
STARTCHAR uni1EAA
ENCODING 7850
SWIDTH 600 0
DWIDTH 7 0
BBX 7 11 0 0
BITMAP
01D58000
035B9000
00884000
00000000
006E1000
00B85000
01A2A000
0660C100
0CFFF600
2C004B00
77000D10
ENDCHAR
STARTCHAR uni1EAB
ENCODING 7851
SWIDTH 600 0
DWIDTH 7 0
BBX 6 10 0 0
BITMAP
009770
0089B0
000000
006870
000000
04CEC2
063189
04ADFA
1E427A
0AED8A
ENDCHAR
STARTCHAR uni1EAC
ENCODING 7852
SWIDTH 600 0
DWIDTH 7 0
BBX 7 11 0 -2
BITMAP
008D2000
02818000
006E1000
00B85000
01A2A000
0660C100
0CFFF600
2C004B00
77000D10
00000000
004C0000
ENDCHAR
STARTCHAR uni1EAD
ENCODING 7853
SWIDTH 600 0
DWIDTH 7 0
BBX 6 10 0 -2
BITMAP
005D50
019091
000000
04CEC2
063189
04ADFA
1E427A
0AED8A
000000
004C00
ENDCHAR
STARTCHAR uni1EAE
ENCODING 7854
SWIDTH 600 0
DWIDTH 7 0
BBX 7 12 0 0
BITMAP
00064000
00190000
0381A000
00AE5000
00000000
006E1000
00B85000
01A2A000
0660C100
0CFFF600
2C004B00
77000D10
ENDCHAR
STARTCHAR uni1EAF
ENCODING 7855
SWIDTH 600 0
DWIDTH 7 0
BBX 6 10 0 0
BITMAP
000450
000910
029192
008E90
000000
04CEC2
063189
04ADFA
1E427A
0AED8A
ENDCHAR
STARTCHAR uni1EB0
ENCODING 7856
SWIDTH 600 0
DWIDTH 7 0
BBX 7 12 0 0
BITMAP
00910000
00370000
0381A000
00AE5000
00000000
006E1000
00B85000
01A2A000
0660C100
0CFFF600
2C004B00
77000D10
ENDCHAR
STARTCHAR uni1EB1
ENCODING 7857
SWIDTH 600 0
DWIDTH 7 0
BBX 6 10 0 0
BITMAP
004500
001900
029192
008E90
000000
04CEC2
063189
04ADFA
1E427A
0AED8A
ENDCHAR
STARTCHAR uni1EB2
ENCODING 7858
SWIDTH 600 0
DWIDTH 7 0
BBX 7 13 0 0
BITMAP
004A0000
000B0000
001A0000
0381A000
00AE5000
00000000
006E1000
00B85000
01A2A000
0660C100
0CFFF600
2C004B00
77000D10
ENDCHAR
STARTCHAR uni1EB3
ENCODING 7859
SWIDTH 600 0
DWIDTH 7 0
BBX 6 11 0 0
BITMAP
002C10
000840
000A10
029192
008E90
000000
04CEC2
063189
04ADFA
1E427A
0AED8A
ENDCHAR
STARTCHAR uni1EB4
ENCODING 7860
SWIDTH 600 0
DWIDTH 7 0
BBX 7 11 0 0
BITMAP
01E68000
06DCF000
00AE4000
00000000
006E1000
00B85000
01A2A000
0660C100
0CFFF600
2C004B00
77000D10
ENDCHAR
STARTCHAR uni1EB5
ENCODING 7861
SWIDTH 600 0
DWIDTH 7 0
BBX 6 10 0 0
BITMAP
00A770
0099C0
00A1A0
007E70
000000
04CEC2
063189
04ADFA
1E427A
0AED8A
ENDCHAR
STARTCHAR uni1EB6
ENCODING 7862
SWIDTH 600 0
DWIDTH 7 0
BBX 7 12 0 -2
BITMAP
0381A000
00AE5000
00000000
006E1000
00B85000
01A2A000
0660C100
0CFFF600
2C004B00
77000D10
00000000
004C0000
ENDCHAR
STARTCHAR uni1EB7
ENCODING 7863
SWIDTH 600 0
DWIDTH 7 0
BBX 6 10 0 -2
BITMAP
02A192
008E90
000000
04CEC2
063189
04ADFA
1E427A
0AED8A
000000
004C00
ENDCHAR
STARTCHAR uni1EB8
ENCODING 7864
SWIDTH 600 0
DWIDTH 7 0
BBX 5 9 1 -2
BITMAP
BFFFB0
B30000
B30000
BFFF30
B30000
B30000
BFFFC0
000000
00C300
ENDCHAR
STARTCHAR uni1EB9
ENCODING 7865
SWIDTH 600 0
DWIDTH 7 0
BBX 6 7 0 -2
BITMAP
03CEB2
1D304B
3FFFFD
1C4123
03CEC4
000000
002D10
ENDCHAR
STARTCHAR uni1EBA
ENCODING 7866
SWIDTH 600 0
DWIDTH 7 0
BBX 5 10 1 0
BITMAP
01D300
006700
00A200
BFFFB0
B30000
B30000
BFFF30
B30000
B30000
BFFFC0
ENDCHAR
STARTCHAR uni1EBB
ENCODING 7867
SWIDTH 600 0
DWIDTH 7 0
BBX 6 9 0 0
BITMAP
004C10
000950
000B10
000000
03CEB2
1D304B
3FFFFD
1C4123
03CEC4
ENDCHAR
STARTCHAR uni1EBC
ENCODING 7868
SWIDTH 600 0
DWIDTH 7 0
BBX 5 10 1 0
BITMAP
0DA370
377E30
000000
BFFFB0
B30000
B30000
BFFF30
B30000
B30000
BFFFC0
ENDCHAR
STARTCHAR uni1EBD
ENCODING 7869
SWIDTH 600 0
DWIDTH 7 0
BBX 6 9 0 0
BITMAP
002011
03DA64
0537D1
000000
03CEB2
1D304B
3FFFFD
1C4123
03CEC4
ENDCHAR
STARTCHAR uni1EBE
ENCODING 7870
SWIDTH 600 0
DWIDTH 7 0
BBX 5 10 1 0
BITMAP
000170
058700
000000
BFFFB0
B30000
B30000
BFFF30
B30000
B30000
BFFFC0
ENDCHAR
STARTCHAR uni1EBF
ENCODING 7871
SWIDTH 600 0
DWIDTH 7 0
BBX 6 9 0 0
BITMAP
000009
000045
007860
000000
03CEB2
1D304B
3FFFFD
1C4123
03CEC4
ENDCHAR
STARTCHAR uni1EC0
ENCODING 7872
SWIDTH 600 0
DWIDTH 7 0
BBX 5 10 1 0
BITMAP
440000
058700
000000
BFFFB0
B30000
B30000
BFFF30
B30000
B30000
BFFFC0
ENDCHAR
STARTCHAR uni1EC1
ENCODING 7873
SWIDTH 600 0
DWIDTH 7 0
BBX 6 9 0 0
BITMAP
190000
063000
007860
000000
03CEB2
1D304B
3FFFFD
1C4123
03CEC4
ENDCHAR
STARTCHAR uni1EC2
ENCODING 7874
SWIDTH 600 0
DWIDTH 7 0
BBX 5 11 1 0
BITMAP
000780
0001B0
058A80
000000
BFFFB0
B30000
B30000
BFFF30
B30000
B30000
BFFFC0
ENDCHAR
STARTCHAR uni1EC3
ENCODING 7875
SWIDTH 600 0
DWIDTH 7 0
BBX 6 10 0 0
BITMAP
000096
00001B
000046
007860
000000
03CEB2
1D304B
3FFFFD
1C4123
03CEC4
ENDCHAR
STARTCHAR uni1EC4
ENCODING 7876
SWIDTH 600 0
DWIDTH 7 0
BBX 5 11 1 0
BITMAP
09A630
087D10
058700
000000
BFFFB0
B30000
B30000
BFFF30
B30000
B30000
BFFFC0
ENDCHAR
STARTCHAR uni1EC5
ENCODING 7877
SWIDTH 600 0
DWIDTH 7 0
BBX 6 10 0 0
BITMAP
00A770
0089A0
000000
007860
000000
03CEB2
1D304B
3FFFFD
1C4123
03CEC4
ENDCHAR
STARTCHAR uni1EC6
ENCODING 7878
SWIDTH 600 0
DWIDTH 7 0
BBX 5 11 1 -2
BITMAP
03D700
091810
BFFFB0
B30000
B30000
BFFF30
B30000
B30000
BFFFC0
000000
00C300
ENDCHAR
STARTCHAR uni1EC7
ENCODING 7879
SWIDTH 600 0
DWIDTH 7 0
BBX 6 10 0 -2
BITMAP
006D50
019090
000000
03CEB2
1D304B
3FFFFD
1C4123
03CEC4
000000
002D10
ENDCHAR
STARTCHAR uni1EC8
ENCODING 7880
SWIDTH 600 0
DWIDTH 7 0
BBX 5 10 1 0
BITMAP
06B000
00B200
01B000
EFFF80
02C000
02C000
02C000
02C000
02C000
EFFF80
ENDCHAR
STARTCHAR uni1EC9
ENCODING 7881
SWIDTH 600 0
DWIDTH 7 0
BBX 4 9 1 0
BITMAP
00C5
003A
0085
0000
FFF6
0086
0086
0086
0086
ENDCHAR
STARTCHAR uni1ECA
ENCODING 7882
SWIDTH 600 0
DWIDTH 7 0
BBX 5 9 1 -2
BITMAP
EFFF80
02C000
02C000
02C000
02C000
02C000
EFFF80
000000
04C000
ENDCHAR
STARTCHAR uni1ECB
ENCODING 7883
SWIDTH 600 0
DWIDTH 7 0
BBX 4 10 1 -2
BITMAP
00A5
0000
0000
FFF6
0086
0086
0086
0086
0000
00A5
ENDCHAR
STARTCHAR uni1ECC
ENCODING 7884
SWIDTH 600 0
DWIDTH 7 0
BBX 7 9 0 -2
BITMAP
04CEA100
1D419900
59001E00
77000E10
59001E00
1D419900
04CEA100
00000000
004C0000
ENDCHAR
STARTCHAR uni1ECD
ENCODING 7885
SWIDTH 600 0
DWIDTH 7 0
BBX 6 7 0 -2
BITMAP
05DEA1
2D317A
4A001D
2D317A
05DEB2
000000
004C00
ENDCHAR
STARTCHAR uni1ECE
ENCODING 7886
SWIDTH 600 0
DWIDTH 7 0
BBX 7 10 0 0
BITMAP
006B0000
000B2000
001B0000
04CEA100
1D419900
59001E00
77000E10
59001E00
1D419900
04CEA100
ENDCHAR
STARTCHAR uni1ECF
ENCODING 7887
SWIDTH 600 0
DWIDTH 7 0
BBX 6 9 0 0
BITMAP
006B00
000B20
001B00
000000
05DEA1
2D317A
4A001D
2D317A
05DEB2
ENDCHAR
STARTCHAR uni1ED0
ENCODING 7888
SWIDTH 600 0
DWIDTH 7 0
BBX 7 10 0 0
BITMAP
00004400
00884000
00000000
04CEA100
1D419900
59001E00
77000E10
59001E00
1D419900
04CEA100
ENDCHAR
STARTCHAR uni1ED1
ENCODING 7889
SWIDTH 600 0
DWIDTH 7 0
BBX 6 9 0 0
BITMAP
000018
000063
008850
000000
05DEA1
2D317A
4A001D
2D317A
05DEB2
ENDCHAR
STARTCHAR uni1ED2
ENCODING 7890
SWIDTH 600 0
DWIDTH 7 0
BBX 7 10 0 0
BITMAP
07100000
00884000
00000000
04CEA100
1D419900
59001E00
77000E10
59001E00
1D419900
04CEA100
ENDCHAR
STARTCHAR uni1ED3
ENCODING 7891
SWIDTH 600 0
DWIDTH 7 0
BBX 6 9 0 0
BITMAP
370000
081000
008850
000000
05DEA1
2D317A
4A001D
2D317A
05DEB2
ENDCHAR
STARTCHAR uni1ED4
ENCODING 7892
SWIDTH 600 0
DWIDTH 7 0
BBX 7 11 0 0
BITMAP
0000B400
00004800
0088B400
00000000
04CEA100
1D419900
59001E00
77000E10
59001E00
1D419900
04CEA100
ENDCHAR
STARTCHAR uni1ED5
ENCODING 7893
SWIDTH 600 0
DWIDTH 7 0
BBX 6 10 0 0
BITMAP
0000B4
000048
000064
008850
000000
05DEA1
2D317A
4A001D
2D317A
05DEB2
ENDCHAR
STARTCHAR uni1ED6
ENCODING 7894
SWIDTH 600 0
DWIDTH 7 0
BBX 7 11 0 0
BITMAP
01D58000
035B9000
00884000
00000000
04CEA100
1D419900
59001E00
77000E10
59001E00
1D419900
04CEA100
ENDCHAR
STARTCHAR uni1ED7
ENCODING 7895
SWIDTH 600 0
DWIDTH 7 0
BBX 6 10 0 0
BITMAP
00C570
027B80
000000
008850
000000
05DEA1
2D317A
4A001D
2D317A
05DEB2
ENDCHAR
STARTCHAR uni1ED8
ENCODING 7896
SWIDTH 600 0
DWIDTH 7 0
BBX 7 11 0 -2
BITMAP
008D2000
02818000
04CEA100
1D419900
59001E00
77000E10
59001E00
1D419900
04CEA100
00000000
004C0000
ENDCHAR
STARTCHAR uni1ED9
ENCODING 7897
SWIDTH 600 0
DWIDTH 7 0
BBX 6 10 0 -2
BITMAP
008D30
037190
000000
05DEA1
2D317A
4A001D
2D317A
05DEB2
000000
004C00
ENDCHAR
STARTCHAR uni1EDA
ENCODING 7898
SWIDTH 600 0
DWIDTH 7 0
BBX 7 10 0 0
BITMAP
00066000
00390910
00000B20
04CEC800
1D419800
59001E00
77000E10
59001E00
1D419900
04CEA100
ENDCHAR
STARTCHAR uni1EDB
ENCODING 7899
SWIDTH 600 0
DWIDTH 7 0
BBX 7 8 0 0
BITMAP
00057000
00290910
00000C10
05DED700
2D317900
4A001E00
2D317B00
05DEB200
ENDCHAR
STARTCHAR uni1EDC
ENCODING 7900
SWIDTH 600 0
DWIDTH 7 0
BBX 7 10 0 0
BITMAP
00A20000
00290910
00000B20
04CEC800
1D419800
59001E00
77000E10
59001E00
1D419900
04CEA100
ENDCHAR
STARTCHAR uni1EDD
ENCODING 7901
SWIDTH 600 0
DWIDTH 7 0
BBX 7 8 0 0
BITMAP
00B10000
00390910
00000C10
05DED700
2D317900
4A001E00
2D317B00
05DEB200
ENDCHAR
STARTCHAR uni1EDE
ENCODING 7902
SWIDTH 600 0
DWIDTH 7 0
BBX 7 10 0 0
BITMAP
006B0000
000B2910
001B0B20
04CEC800
1D419800
59001E00
77000E10
59001E00
1D419900
04CEA100
ENDCHAR
STARTCHAR uni1EDF
ENCODING 7903
SWIDTH 600 0
DWIDTH 7 0
BBX 7 9 0 0
BITMAP
006B0000
000B2000
001B0910
00000C10
05DED700
2D317900
4A001E00
2D317B00
05DEB200
ENDCHAR
STARTCHAR uni1EE0
ENCODING 7904
SWIDTH 600 0
DWIDTH 7 0
BBX 7 10 0 0
BITMAP
07E4A000
093D9910
00000B20
04CEC800
1D419800
59001E00
77000E10
59001E00
1D419900
04CEA100
ENDCHAR
STARTCHAR uni1EE1
ENCODING 7905
SWIDTH 600 0
DWIDTH 7 0
BBX 7 9 0 0
BITMAP
00202000
08D5A000
091C8910
00000C10
05DED700
2D317900
4A001E00
2D317B00
05DEB200
ENDCHAR
STARTCHAR uni1EE2
ENCODING 7906
SWIDTH 600 0
DWIDTH 7 0
BBX 7 11 0 -2
BITMAP
00000910
00000B20
04CEC800
1D419800
59001E00
77000E10
59001E00
1D419900
04CEA100
00000000
004C0000
ENDCHAR
STARTCHAR uni1EE3
ENCODING 7907
SWIDTH 600 0
DWIDTH 7 0
BBX 7 9 0 -2
BITMAP
00000910
00000C10
05DED700
2D317900
4A001E00
2D317B00
05DEB200
00000000
004C0000
ENDCHAR
STARTCHAR uni1EE4
ENCODING 7908
SWIDTH 600 0
DWIDTH 7 0
BBX 6 9 0 -2
BITMAP
2C002B
2C002B
2C002B
2C002B
1D003A
0D4198
04DEB1
000000
004C00
ENDCHAR
STARTCHAR uni1EE5
ENCODING 7909
SWIDTH 600 0
DWIDTH 7 0
BBX 6 7 0 -2
BITMAP
2C0058
2C0058
2C0058
1E22C8
09ED78
000000
003D00
ENDCHAR
STARTCHAR uni1EE6
ENCODING 7910
SWIDTH 600 0
DWIDTH 7 0
BBX 6 10 0 0
BITMAP
006B00
000B20
001B00
2C002B
2C002B
2C002B
2C002B
1D003A
0D4198
04DEB1
ENDCHAR
STARTCHAR uni1EE7
ENCODING 7911
SWIDTH 600 0
DWIDTH 7 0
BBX 6 9 0 0
BITMAP
007A00
001C10
002A00
000000
2C0058
2C0058
2C0058
1E22C8
09ED78
ENDCHAR
STARTCHAR uni1EE8
ENCODING 7912
SWIDTH 600 0
DWIDTH 7 0
BBX 7 10 0 0
BITMAP
00066000
003900A0
000002D0
2C002F60
2C002B00
2C002B00
2C002B00
1D003B00
0D419800
04DEB100
ENDCHAR
STARTCHAR uni1EE9
ENCODING 7913
SWIDTH 600 0
DWIDTH 7 0
BBX 7 8 0 0
BITMAP
00067000
00390370
00000780
2C005E30
2C005800
2C005800
1E22C800
09ED7800
ENDCHAR
STARTCHAR uni1EEA
ENCODING 7914
SWIDTH 600 0
DWIDTH 7 0
BBX 7 10 0 0
BITMAP
00A20000
002900A0
000002D0
2C002F60
2C002B00
2C002B00
2C002B00
1D003B00
0D419800
04DEB100
ENDCHAR
STARTCHAR uni1EEB
ENCODING 7915
SWIDTH 600 0
DWIDTH 7 0
BBX 7 8 0 0
BITMAP
01B10000
00390370
00000780
2C005E30
2C005800
2C005800
1E22C800
09ED7800
ENDCHAR
STARTCHAR uni1EEC
ENCODING 7916
SWIDTH 600 0
DWIDTH 7 0
BBX 7 10 0 0
BITMAP
006B0000
000B20A0
001B02D0
2C002F60
2C002B00
2C002B00
2C002B00
1D003B00
0D419800
04DEB100
ENDCHAR
STARTCHAR uni1EED
ENCODING 7917
SWIDTH 600 0
DWIDTH 7 0
BBX 7 9 0 0
BITMAP
007A0000
001C1000
002A0370
00000780
2C005E30
2C005800
2C005800
1E22C800
09ED7800
ENDCHAR
STARTCHAR uni1EEE
ENCODING 7918
SWIDTH 600 0
DWIDTH 7 0
BBX 7 10 0 0
BITMAP
04E67300
083BC0A0
000002D0
2C002F60
2C002B00
2C002B00
2C002B00
1D003B00
0D419800
04DEB100
ENDCHAR
STARTCHAR uni1EEF
ENCODING 7919
SWIDTH 600 0
DWIDTH 7 0
BBX 7 9 0 0
BITMAP
00202000
07D6A000
090B9370
00000780
2C005E30
2C005800
2C005800
1E22C800
09ED7800
ENDCHAR
STARTCHAR uni1EF0
ENCODING 7920
SWIDTH 600 0
DWIDTH 7 0
BBX 7 11 0 -2
BITMAP
000000A0
000002D0
2C002F60
2C002B00
2C002B00
2C002B00
1D003B00
0D419800
04DEB100
00000000
004C0000
ENDCHAR
STARTCHAR uni1EF1
ENCODING 7921
SWIDTH 600 0
DWIDTH 7 0
BBX 7 9 0 -2
BITMAP
00000370
00000780
2C005E30
2C005800
2C005800
1E22C800
09ED7800
00000000
003D0000
ENDCHAR
STARTCHAR Ygrave
ENCODING 7922
SWIDTH 600 0
DWIDTH 7 0
BBX 6 10 0 0
BITMAP
00A200
002900
000000
5A001C
0B3086
04A1C0
00AB50
003C00
002C00
002C00
ENDCHAR
STARTCHAR ygrave
ENCODING 7923
SWIDTH 600 0
DWIDTH 7 0
BBX 6 10 0 -2
BITMAP
00A200
002900
000000
3A001C
0B3076
04A0C0
00B680
004E10
016900
2EB100
ENDCHAR
STARTCHAR uni1EF4
ENCODING 7924
SWIDTH 600 0
DWIDTH 7 0
BBX 6 9 0 -2
BITMAP
5A001C
0B3086
04A1C0
00AB50
003C00
002C00
002C00
000000
004C00
ENDCHAR
STARTCHAR uni1EF5
ENCODING 7925
SWIDTH 600 0
DWIDTH 7 0
BBX 6 7 0 -2
BITMAP
3A001C
0B3076
04A0C0
00B680
004E10
016900
2EB178
ENDCHAR
STARTCHAR uni1EF6
ENCODING 7926
SWIDTH 600 0
DWIDTH 7 0
BBX 6 10 0 0
BITMAP
006B00
000B20
001B00
5A001C
0B3086
04A1C0
00AB50
003C00
002C00
002C00
ENDCHAR
STARTCHAR uni1EF7
ENCODING 7927
SWIDTH 600 0
DWIDTH 7 0
BBX 6 11 0 -2
BITMAP
005B00
000A30
001B00
000000
3A001C
0B3076
04A0C0
00B680
004E10
016900
2EB100
ENDCHAR
STARTCHAR uni1EF8
ENCODING 7928
SWIDTH 600 0
DWIDTH 7 0
BBX 6 10 0 0
BITMAP
04E673
083BC0
000000
5A001C
0B3086
04A1C0
00AB50
003C00
002C00
002C00
ENDCHAR
STARTCHAR uni1EF9
ENCODING 7929
SWIDTH 600 0
DWIDTH 7 0
BBX 6 11 0 -2
BITMAP
003011
04D882
0729C0
000000
3A001C
0B3076
04A0C0
00B680
004E10
016900
2EB100
ENDCHAR
STARTCHAR uni1FBD
ENCODING 8125
SWIDTH 600 0
DWIDTH 7 0
BBX 3 3 2 6
BITMAP
6B00
0B20
1B00
ENDCHAR
STARTCHAR uni1FBE
ENCODING 8126
SWIDTH 600 0
DWIDTH 7 0
BBX 3 4 2 0
BITMAP
4A00
4A00
3A00
1E50
ENDCHAR
STARTCHAR uni1FBF
ENCODING 8127
SWIDTH 600 0
DWIDTH 7 0
BBX 3 3 2 6
BITMAP
6B00
0B20
1B00
ENDCHAR
STARTCHAR uni1FC0
ENCODING 8128
SWIDTH 600 0
DWIDTH 7 0
BBX 5 3 1 6
BITMAP
030100
5D8820
81AB00
ENDCHAR
STARTCHAR uni1FC1
ENCODING 8129
SWIDTH 600 0
DWIDTH 7 0
BBX 4 4 1 6
BITMAP
2E68
54A9
0000
291A
ENDCHAR
STARTCHAR uni1FCD
ENCODING 8141
SWIDTH 600 0
DWIDTH 7 0
BBX 4 4 1 5
BITMAP
6A93
0C65
1927
0001
ENDCHAR
STARTCHAR uni1FCE
ENCODING 8142
SWIDTH 600 0
DWIDTH 7 0
BBX 4 4 1 5
BITMAP
6A39
0C56
1972
0010
ENDCHAR
STARTCHAR uni1FCF
ENCODING 8143
SWIDTH 600 0
DWIDTH 7 0
BBX 4 4 1 6
BITMAP
0C57
3CF8
00C0
0190
ENDCHAR
STARTCHAR uni1FDD
ENCODING 8157
SWIDTH 600 0
DWIDTH 7 0
BBX 4 5 1 5
BITMAP
0010
3DA2
7564
2836
0001
ENDCHAR
STARTCHAR uni1FDE
ENCODING 8158
SWIDTH 600 0
DWIDTH 7 0
BBX 4 4 1 5
BITMAP
2D58
5765
1981
0010
ENDCHAR
STARTCHAR uni1FDF
ENCODING 8159
SWIDTH 600 0
DWIDTH 7 0
BBX 4 4 1 6
BITMAP
0C57
3AF8
0660
0280
ENDCHAR
STARTCHAR uni1FED
ENCODING 8173
SWIDTH 600 0
DWIDTH 7 0
BBX 4 2 1 6
BITMAP
4A6A
0080
ENDCHAR
STARTCHAR uni1FEE
ENCODING 8174
SWIDTH 600 0
DWIDTH 7 0
BBX 4 3 1 6
BITMAP
00A0
56AB
0160
ENDCHAR
STARTCHAR uni1FEF
ENCODING 8175
SWIDTH 600 0
DWIDTH 7 0
BBX 2 2 2 6
BITMAP
75
38
ENDCHAR
STARTCHAR uni1FFD
ENCODING 8189
SWIDTH 600 0
DWIDTH 7 0
BBX 2 3 3 6
BITMAP
93
C0
A0
ENDCHAR
STARTCHAR uni1FFE
ENCODING 8190
SWIDTH 600 0
DWIDTH 7 0
BBX 2 3 2 6
BITMAP
3D
85
39
ENDCHAR
STARTCHAR uni2007
ENCODING 8199
SWIDTH 600 0
DWIDTH 7 0
BBX 1 1 0 0
BITMAP
00
ENDCHAR
STARTCHAR uni2010
ENCODING 8208
SWIDTH 600 0
DWIDTH 7 0
BBX 6 1 0 3
BITMAP
1FFFFA
ENDCHAR
STARTCHAR figuredash
ENCODING 8210
SWIDTH 600 0
DWIDTH 7 0
BBX 6 1 0 2
BITMAP
2FFFFB
ENDCHAR
STARTCHAR endash
ENCODING 8211
SWIDTH 600 0
DWIDTH 7 0
BBX 6 1 0 2
BITMAP
2FFFFB
ENDCHAR
STARTCHAR emdash
ENCODING 8212
SWIDTH 600 0
DWIDTH 7 0
BBX 7 1 0 2
BITMAP
FFFFFF90
ENDCHAR
STARTCHAR uni2015
ENCODING 8213
SWIDTH 600 0
DWIDTH 7 0
BBX 7 1 0 2
BITMAP
FFFFFF90
ENDCHAR
STARTCHAR uni2016
ENCODING 8214
SWIDTH 600 0
DWIDTH 7 0
BBX 4 11 1 -3
BITMAP
480C
480C
480C
480C
480C
480C
480C
480C
480C
480C
480C
ENDCHAR
STARTCHAR underscoredbl
ENCODING 8215
SWIDTH 600 0
DWIDTH 7 0
BBX 6 2 0 -3
BITMAP
5FFFFE
5FFFFE
ENDCHAR
STARTCHAR quoteleft
ENCODING 8216
SWIDTH 600 0
DWIDTH 7 0
BBX 3 5 2 4
BITMAP
0100
1B10
8300
AD00
6D00
ENDCHAR
STARTCHAR quoteright
ENCODING 8217
SWIDTH 600 0
DWIDTH 7 0
BBX 3 5 2 3
BITMAP
5D10
5F40
0920
5800
1000
ENDCHAR
STARTCHAR quotesinglbase
ENCODING 8218
SWIDTH 600 0
DWIDTH 7 0
BBX 3 5 2 -3
BITMAP
5D10
5F40
0920
5800
1000
ENDCHAR
STARTCHAR quotereversed
ENCODING 8219
SWIDTH 600 0
DWIDTH 7 0
BBX 3 5 2 3
BITMAP
6D00
AE10
8400
1B10
0100
ENDCHAR
STARTCHAR quotedblleft
ENCODING 8220
SWIDTH 600 0
DWIDTH 7 0
BBX 5 5 1 4
BITMAP
010000
490A30
B04700
EA6F30
AA3E30
ENDCHAR
STARTCHAR quotedblright
ENCODING 8221
SWIDTH 600 0
DWIDTH 7 0
BBX 5 5 1 3
BITMAP
9A2E40
9F2E80
0B0560
852A00
100000
ENDCHAR
STARTCHAR quotedblbase
ENCODING 8222
SWIDTH 600 0
DWIDTH 7 0
BBX 5 5 1 -3
BITMAP
9A2E40
9F2E80
0B0560
852A00
100000
ENDCHAR
STARTCHAR dagger
ENCODING 8224
SWIDTH 600 0
DWIDTH 7 0
BBX 5 10 1 -2
BITMAP
01A000
01A000
9FFF30
019100
01A000
01A000
01A000
01A000
01A000
003000
ENDCHAR
STARTCHAR daggerdbl
ENCODING 8225
SWIDTH 600 0
DWIDTH 7 0
BBX 5 9 1 -1
BITMAP
01A000
01A000
9FFF30
11A100
01A000
11A100
9FFF30
01A000
01A000
ENDCHAR
STARTCHAR bullet
ENCODING 8226
SWIDTH 600 0
DWIDTH 7 0
BBX 4 3 1 1
BITMAP
1BE7
4FFD
1CE7
ENDCHAR
STARTCHAR ellipsis
ENCODING 8230
SWIDTH 600 0
DWIDTH 7 0
BBX 7 2 0 0
BITMAP
7A4D2E10
7A4D2E10
ENDCHAR
STARTCHAR uni202F
ENCODING 8239
SWIDTH 600 0
DWIDTH 7 0
BBX 1 1 0 0
BITMAP
00
ENDCHAR
STARTCHAR perthousand
ENCODING 8240
SWIDTH 600 0
DWIDTH 7 0
BBX 7 7 0 0
BITMAP
3EB00000
75A10520
3EC79500
05720000
3EB3EB00
75A84A10
3EB3EB00
ENDCHAR
STARTCHAR uni2032
ENCODING 8242
SWIDTH 600 0
DWIDTH 7 0
BBX 2 3 2 5
BITMAP
0D
1B
28
ENDCHAR
STARTCHAR uni2033
ENCODING 8243
SWIDTH 600 0
DWIDTH 7 0
BBX 4 3 1 5
BITMAP
0D0D
0C1A
1927
ENDCHAR
STARTCHAR uni2035
ENCODING 8245
SWIDTH 600 0
DWIDTH 7 0
BBX 2 3 2 5
BITMAP
49
2A
0A
ENDCHAR
STARTCHAR guilsinglleft
ENCODING 8249
SWIDTH 600 0
DWIDTH 7 0
BBX 3 4 2 1
BITMAP
0910
A500
A500
0910
ENDCHAR
STARTCHAR guilsinglright
ENCODING 8250
SWIDTH 600 0
DWIDTH 7 0
BBX 3 4 2 1
BITMAP
6500
0A40
0A40
6500
ENDCHAR
STARTCHAR exclamdbl
ENCODING 8252
SWIDTH 600 0
DWIDTH 7 0
BBX 5 7 1 0
BITMAP
940C10
930C00
830B00
820A00
000000
C71E40
B61E40
ENDCHAR
STARTCHAR uni203D
ENCODING 8253
SWIDTH 600 0
DWIDTH 7 0
BBX 5 7 1 0
BITMAP
4DEA10
721A40
058800
04A000
000000
07A000
07A000
ENDCHAR
STARTCHAR uni203E
ENCODING 8254
SWIDTH 600 0
DWIDTH 7 0
BBX 6 1 0 6
BITMAP
5FFFFE
ENDCHAR
STARTCHAR uni203F
ENCODING 8255
SWIDTH 600 0
DWIDTH 7 0
BBX 11 3 -2 -3
BITMAP
100000000100
496310148810
006BEFD93000
ENDCHAR
STARTCHAR fraction
ENCODING 8260
SWIDTH 600 0
DWIDTH 7 0
BBX 7 7 0 0
BITMAP
00000910
00007500
00004000
00000000
00400000
09200000
64000000
ENDCHAR
STARTCHAR uni2047
ENCODING 8263
SWIDTH 600 0
DWIDTH 7 0
BBX 7 7 0 0
BITMAP
6EC5EC10
41C51B30
03802900
0B00B100
00000000
1E30D400
1E30D400
ENDCHAR
STARTCHAR uni2048
ENCODING 8264
SWIDTH 600 0
DWIDTH 7 0
BBX 6 7 0 0
BITMAP
6EC194
41C284
038083
0B0072
000000
1E30B7
1E30B7
ENDCHAR
STARTCHAR uni2049
ENCODING 8265
SWIDTH 600 0
DWIDTH 7 0
BBX 6 7 1 0
BITMAP
A35EC1
A241B3
920290
810B10
000000
D60D40
D50D40
ENDCHAR
STARTCHAR zero.sups
ENCODING 8304
SWIDTH 600 0
DWIDTH 7 0
BBX 4 5 1 4
BITMAP
0BE5
581C
640A
581C
0BE6
ENDCHAR
STARTCHAR i.sups
ENCODING 8305
SWIDTH 600 0
DWIDTH 7 0
BBX 4 6 1 4
BITMAP
0093
0000
1FF3
0083
0083
0083
ENDCHAR
STARTCHAR four.sups
ENCODING 8308
SWIDTH 600 0
DWIDTH 7 0
BBX 5 4 1 4
BITMAP
028200
193700
6FFF10
003700
ENDCHAR
STARTCHAR five.sups
ENCODING 8309
SWIDTH 600 0
DWIDTH 7 0
BBX 4 5 1 4
BITMAP
0DFB
0900
0EE8
372C
0BE7
ENDCHAR
STARTCHAR six.sups
ENCODING 8310
SWIDTH 600 0
DWIDTH 7 0
BBX 4 5 1 4
BITMAP
08E8
2A21
5EEA
391B
0AE7
ENDCHAR
STARTCHAR seven.sups
ENCODING 8311
SWIDTH 600 0
DWIDTH 7 0
BBX 4 5 1 4
BITMAP
4FFD
0035
0090
0190
0380
ENDCHAR
STARTCHAR eight.sups
ENCODING 8312
SWIDTH 600 0
DWIDTH 7 0
BBX 4 5 1 4
BITMAP
0BE6
1B3A
0AF4
493B
1CE8
ENDCHAR
STARTCHAR nine.sups
ENCODING 8313
SWIDTH 600 0
DWIDTH 7 0
BBX 4 5 1 4
BITMAP
1CE4
572B
2EED
023A
1DD3
ENDCHAR
STARTCHAR parenleft.sups
ENCODING 8317
SWIDTH 600 0
DWIDTH 7 0
BBX 3 6 2 3
BITMAP
0810
2800
5500
6500
2800
0810
ENDCHAR
STARTCHAR parenright.sups
ENCODING 8318
SWIDTH 600 0
DWIDTH 7 0
BBX 2 6 2 3
BITMAP
63
0A
0B
0B
0A
63
ENDCHAR
STARTCHAR n.sups
ENCODING 8319
SWIDTH 600 0
DWIDTH 7 0
BBX 5 4 1 4
BITMAP
1CEA00
1C1B00
190A10
190A10
ENDCHAR
STARTCHAR zero.subs
ENCODING 8320
SWIDTH 600 0
DWIDTH 7 0
BBX 4 5 1 -2
BITMAP
0BE5
581C
640A
581C
0BE6
ENDCHAR
STARTCHAR one.subs
ENCODING 8321
SWIDTH 600 0
DWIDTH 7 0
BBX 5 4 1 -2
BITMAP
08E000
00B000
00B000
1FFF40
ENDCHAR
STARTCHAR two.subs
ENCODING 8322
SWIDTH 600 0
DWIDTH 7 0
BBX 4 5 1 -2
BITMAP
0BE5
243A
0054
0660
3FFE
ENDCHAR
STARTCHAR three.subs
ENCODING 8323
SWIDTH 600 0
DWIDTH 7 0
BBX 4 5 1 -2
BITMAP
0AE5
143A
04F4
242B
0BE7
ENDCHAR
STARTCHAR four.subs
ENCODING 8324
SWIDTH 600 0
DWIDTH 7 0
BBX 5 4 1 -2
BITMAP
028200
193700
6FFF10
003700
ENDCHAR
STARTCHAR five.subs
ENCODING 8325
SWIDTH 600 0
DWIDTH 7 0
BBX 4 5 1 -2
BITMAP
0DFB
0900
0EE8
372C
0BE7
ENDCHAR
STARTCHAR six.subs
ENCODING 8326
SWIDTH 600 0
DWIDTH 7 0
BBX 4 5 1 -2
BITMAP
08E8
2A21
5EEA
391B
0AE7
ENDCHAR
STARTCHAR seven.subs
ENCODING 8327
SWIDTH 600 0
DWIDTH 7 0
BBX 4 5 1 -2
BITMAP
4FFD
0035
0090
0190
0380
ENDCHAR
STARTCHAR eight.subs
ENCODING 8328
SWIDTH 600 0
DWIDTH 7 0
BBX 4 5 1 -2
BITMAP
0BE6
1B3A
0AF4
493B
1CE8
ENDCHAR
STARTCHAR nine.subs
ENCODING 8329
SWIDTH 600 0
DWIDTH 7 0
BBX 4 5 1 -2
BITMAP
1CE4
572B
2EED
023A
1DD3
ENDCHAR
STARTCHAR parenleft.subs
ENCODING 8333
SWIDTH 600 0
DWIDTH 7 0
BBX 3 6 2 -3
BITMAP
0810
2800
5500
6500
2800
0810
ENDCHAR
STARTCHAR parenright.subs
ENCODING 8334
SWIDTH 600 0
DWIDTH 7 0
BBX 2 6 2 -3
BITMAP
63
0A
0B
0B
0A
63
ENDCHAR
STARTCHAR uni0259.sups
ENCODING 8340
SWIDTH 600 0
DWIDTH 7 0
BBX 4 4 1 4
BITMAP
1CE6
022B
6FFE
1CE6
ENDCHAR
STARTCHAR colonmonetary
ENCODING 8353
SWIDTH 600 0
DWIDTH 7 0
BBX 5 9 1 -1
BITMAP
008620
07EF70
688820
C28800
E17800
C55800
7C6640
0AEC60
085300
ENDCHAR
STARTCHAR franc
ENCODING 8355
SWIDTH 600 0
DWIDTH 7 0
BBX 6 7 0 0
BITMAP
06FFFD
068000
068000
06FFF5
068000
3FFF40
068000
ENDCHAR
STARTCHAR lira
ENCODING 8356
SWIDTH 600 0
DWIDTH 7 0
BBX 6 7 0 0
BITMAP
01BED4
069125
2FFFD0
00C000
2EFFD0
01A000
2EFFFD
ENDCHAR
STARTCHAR uni20A6
ENCODING 8358
SWIDTH 600 0
DWIDTH 7 0
BBX 7 7 0 0
BITMAP
0A807400
09917400
7FFFFF10
0A196400
7FFFFF10
0A169400
0A10D400
ENDCHAR
STARTCHAR peseta
ENCODING 8359
SWIDTH 600 0
DWIDTH 7 0
BBX 7 7 0 0
BITMAP
08FEA100
08519600
7FFFFF60
08519600
08FEA000
08500000
08500000
ENDCHAR
STARTCHAR uni20A9
ENCODING 8361
SWIDTH 600 0
DWIDTH 7 0
BBX 7 7 0 0
BITMAP
49280C00
2A5D1B00
0C7B4A00
AFFFFF40
0B969700
0AB4C500
08B2F300
ENDCHAR
STARTCHAR dong
ENCODING 8363
SWIDTH 600 0
DWIDTH 7 0
BBX 5 8 1 0
BITMAP
000A20
05FFE0
000920
4DED20
B41B20
5EEB20
000000
AFFF70
ENDCHAR
STARTCHAR Euro
ENCODING 8364
SWIDTH 600 0
DWIDTH 7 0
BBX 7 7 0 0
BITMAP
008DE700
07A21700
5FFFF800
0B300000
5FFFF100
07A11810
008EE600
ENDCHAR
STARTCHAR uni20AE
ENCODING 8366
SWIDTH 600 0
DWIDTH 7 0
BBX 6 7 0 0
BITMAP
6FFFFF
002C00
002D83
049C53
037D40
064C00
002C00
ENDCHAR
STARTCHAR uni20B1
ENCODING 8369
SWIDTH 600 0
DWIDTH 7 0
BBX 7 7 0 0
BITMAP
08FE8000
0852C400
4BA8AC30
3BA8AC30
4BA8CA30
08A9D100
08A72000
ENDCHAR
STARTCHAR uni20B2
ENCODING 8370
SWIDTH 600 0
DWIDTH 7 0
BBX 6 9 0 -1
BITMAP
000910
01AFD3
099135
0E1000
1D05FC
0E100C
09913C
01AFD5
000910
ENDCHAR
STARTCHAR uni20B4
ENCODING 8372
SWIDTH 600 0
DWIDTH 7 0
BBX 6 7 0 0
BITMAP
02CEA0
0531D2
4FFFFE
009B10
4FFFFE
096055
03DFB1
ENDCHAR
STARTCHAR uni20B5
ENCODING 8373
SWIDTH 600 0
DWIDTH 7 0
BBX 5 9 1 -1
BITMAP
006300
08EE50
7A7550
C26300
E06300
C26300
7A7570
09ED40
006300
ENDCHAR
STARTCHAR uni20B8
ENCODING 8376
SWIDTH 600 0
DWIDTH 7 0
BBX 6 7 0 0
BITMAP
6FFFFF
000000
5FFFFF
002C00
002C00
002C00
002C00
ENDCHAR
STARTCHAR uni20B9
ENCODING 8377
SWIDTH 600 0
DWIDTH 7 0
BBX 5 7 1 0
BITMAP
CFFFC0
015900
BFFFC0
CFFC00
079100
009100
001B10
ENDCHAR
STARTCHAR uni20BA
ENCODING 8378
SWIDTH 600 0
DWIDTH 7 0
BBX 6 7 0 0
BITMAP
04A010
04C950
3AB560
17D405
36A00C
04A3A6
03EC50
ENDCHAR
STARTCHAR uni20BD
ENCODING 8381
SWIDTH 600 0
DWIDTH 7 0
BBX 7 7 0 0
BITMAP
04FFD600
04902D10
04902D10
7FFFD600
04900000
7FFFF700
04900000
ENDCHAR
STARTCHAR uni2105
ENCODING 8453
SWIDTH 600 0
DWIDTH 7 0
BBX 7 7 0 0
BITMAP
4E900710
A3405700
5EA06000
0004EB00
026A2830
2A0A2830
4104EB00
ENDCHAR
STARTCHAR uni2113
ENCODING 8467
SWIDTH 600 0
DWIDTH 7 0
BBX 5 8 1 0
BITMAP
03EB00
0A5A30
0C2920
0C3B00
0CC200
1D4000
7D5220
05ED20
ENDCHAR
STARTCHAR uni2116
ENCODING 8470
SWIDTH 600 0
DWIDTH 7 0
BBX 7 7 0 0
BITMAP
A71D7E50
9A2AB3A0
AA397E50
A7790000
A3A98F60
A2A90000
D1790000
ENDCHAR
STARTCHAR uni2117
ENCODING 8471
SWIDTH 600 0
DWIDTH 7 0
BBX 7 7 0 0
BITMAP
04CEA100
2B315A00
81AB6720
80EF9430
81900710
2B215A00
04CEA100
ENDCHAR
STARTCHAR uni2120
ENCODING 8480
SWIDTH 600 0
DWIDTH 7 0
BBX 7 4 0 4
BITMAP
7E4C2860
531A6A60
33598960
6E589550
ENDCHAR
STARTCHAR trademark
ENCODING 8482
SWIDTH 600 0
DWIDTH 7 0
BBX 8 4 -1 4
BITMAP
1FFBC286
00A0A6A6
00A09896
00A09966
ENDCHAR
STARTCHAR uni2126
ENCODING 8486
SWIDTH 600 0
DWIDTH 7 0
BBX 7 7 0 0
BITMAP
04DEA100
1E419A00
69001E00
67000E10
3A001C00
09309400
9FB2FF30
ENDCHAR
STARTCHAR estimated
ENCODING 8494
SWIDTH 600 0
DWIDTH 7 0
BBX 7 7 0 0
BITMAP
04DE9000
2C205900
8B001F10
AFFFFF40
8B000100
2C216300
04DE5000
ENDCHAR
STARTCHAR uni2150
ENCODING 8528
SWIDTH 600 0
DWIDTH 7 0
BBX 7 7 0 0
BITMAP
2D500910
05507500
05504000
0007FF30
00400900
09206400
64009100
ENDCHAR
STARTCHAR uni2151
ENCODING 8529
SWIDTH 600 0
DWIDTH 7 0
BBX 7 7 0 0
BITMAP
2D500910
05507500
05504000
0003EA00
00484B20
0925FE20
6404E900
ENDCHAR
STARTCHAR uni2152
ENCODING 8530
SWIDTH 600 0
DWIDTH 7 0
BBX 7 7 0 0
BITMAP
1F800000
03800520
02779500
0574D900
1F864A00
03864A00
0382D900
ENDCHAR
STARTCHAR onethird
ENCODING 8531
SWIDTH 600 0
DWIDTH 7 0
BBX 7 7 0 0
BITMAP
2D500910
05507500
05504000
0002DA00
00412C00
0923AB00
6402DC10
ENDCHAR
STARTCHAR twothirds
ENCODING 8532
SWIDTH 600 0
DWIDTH 7 0
BBX 7 8 0 0
BITMAP
3EA00000
31A00910
07307500
8FF14000
0002DA00
00412C00
0923AB00
6402DC10
ENDCHAR
STARTCHAR uni2155
ENCODING 8533
SWIDTH 600 0
DWIDTH 7 0
BBX 7 7 0 0
BITMAP
2D500910
05507500
05504000
0001FF00
00437000
0925ED10
6403ED10
ENDCHAR
STARTCHAR uni2156
ENCODING 8534
SWIDTH 600 0
DWIDTH 7 0
BBX 7 8 0 0
BITMAP
3EA00000
31A00910
07307500
8FF14000
0001FF00
00437000
0925ED10
6403ED10
ENDCHAR
STARTCHAR uni2157
ENCODING 8535
SWIDTH 600 0
DWIDTH 7 0
BBX 7 8 0 0
BITMAP
3E900000
22B00910
3BA07500
3EC04000
0001FF00
00437000
0925ED10
6403ED10
ENDCHAR
STARTCHAR uni2158
ENCODING 8536
SWIDTH 600 0
DWIDTH 7 0
BBX 7 8 0 0
BITMAP
00100000
26900910
AFF47500
00904000
0001FF00
00437000
0925ED10
6403ED10
ENDCHAR
STARTCHAR uni2159
ENCODING 8537
SWIDTH 600 0
DWIDTH 7 0
BBX 7 7 0 0
BITMAP
2D500910
05507500
05504000
0001CD10
00466100
0927FE20
6402DD10
ENDCHAR
STARTCHAR uni215A
ENCODING 8538
SWIDTH 600 0
DWIDTH 7 0
BBX 7 8 0 0
BITMAP
3FE00000
45000910
7EC17500
4EC14000
0001CD10
00466100
0927FE20
6402DD10
ENDCHAR
STARTCHAR oneeighth
ENCODING 8539
SWIDTH 600 0
DWIDTH 7 0
BBX 7 7 0 0
BITMAP
2D500910
05507500
05504000
0003EC00
0043BB00
09259B10
6404EC10
ENDCHAR
STARTCHAR threeeighths
ENCODING 8540
SWIDTH 600 0
DWIDTH 7 0
BBX 7 8 0 0
BITMAP
3E900000
22B00910
3BA07500
3EC04000
0003EC00
0043BB00
09259B10
6404EC10
ENDCHAR
STARTCHAR fiveeighths
ENCODING 8541
SWIDTH 600 0
DWIDTH 7 0
BBX 7 8 0 0
BITMAP
3FE00000
45000910
7EC17500
4EC14000
0003EC00
0043BB00
09259B10
6404EC10
ENDCHAR
STARTCHAR seveneighths
ENCODING 8542
SWIDTH 600 0
DWIDTH 7 0
BBX 7 8 0 0
BITMAP
8FF20000
01900910
07307500
0A004000
0003EC00
0043BB00
09259B10
6404EC10
ENDCHAR
STARTCHAR uni2189
ENCODING 8585
SWIDTH 600 0
DWIDTH 7 0
BBX 7 8 0 0
BITMAP
3EB00000
A3740910
93847500
3EB04000
0002DA00
00412C00
0923AB00
6402DC10
ENDCHAR
STARTCHAR uni2190
ENCODING 8592
SWIDTH 600 0
DWIDTH 7 0
BBX 7 7 0 -1
BITMAP
00130000
01A20000
1A200000
9FFFFF40
1A200000
01B20000
00130000
ENDCHAR
STARTCHAR arrowup
ENCODING 8593
SWIDTH 600 0
DWIDTH 7 0
BBX 6 6 0 0
BITMAP
004B10
04ACA1
4A1A3A
211A03
001A00
001A00
ENDCHAR
STARTCHAR uni2192
ENCODING 8594
SWIDTH 600 0
DWIDTH 7 0
BBX 7 7 0 -1
BITMAP
00040000
00077000
00006700
AFFFFF30
00006700
00077000
00040000
ENDCHAR
STARTCHAR arrowdown
ENCODING 8595
SWIDTH 600 0
DWIDTH 7 0
BBX 6 6 0 0
BITMAP
001A00
001A00
211A03
3A1A3A
04ACA1
004B10
ENDCHAR
STARTCHAR arrowboth
ENCODING 8596
SWIDTH 600 0
DWIDTH 7 0
BBX 7 5 0 0
BITMAP
08207300
56000A10
EFFFFF80
56000A10
08207300
ENDCHAR
STARTCHAR arrowupdn
ENCODING 8597
SWIDTH 600 0
DWIDTH 7 0
BBX 5 7 1 -1
BITMAP
05C200
78BA30
31A130
01A000
41A130
78BA30
05C200
ENDCHAR
STARTCHAR uni2196
ENCODING 8598
SWIDTH 600 0
DWIDTH 7 0
BBX 5 5 1 0
BITMAP
DBAA30
BC2000
A2C200
A02C20
300240
ENDCHAR
STARTCHAR uni2197
ENCODING 8599
SWIDTH 600 0
DWIDTH 7 0
BBX 5 5 1 0
BITMAP
7AAD60
007B70
078360
780460
600120
ENDCHAR
STARTCHAR uni2198
ENCODING 8600
SWIDTH 600 0
DWIDTH 7 0
BBX 5 5 1 0
BITMAP
B30260
1B3370
01B570
355E80
456630
ENDCHAR
STARTCHAR uni2199
ENCODING 8601
SWIDTH 600 0
DWIDTH 7 0
BBX 5 5 1 0
BITMAP
800760
A07800
A78000
CB4520
565520
ENDCHAR
STARTCHAR arrowupdnbse
ENCODING 8616
SWIDTH 600 0
DWIDTH 7 0
BBX 6 9 0 -2
BITMAP
000100
007D30
096A94
011A01
001A00
082A35
03BD90
001600
5FFFFE
ENDCHAR
STARTCHAR uni21D0
ENCODING 8656
SWIDTH 600 0
DWIDTH 7 0
BBX 7 7 0 -1
BITMAP
00240000
01A20000
1CFFFF40
96000000
1CFFFF40
01A20000
00240000
ENDCHAR
STARTCHAR uni21D1
ENCODING 8657
SWIDTH 600 0
DWIDTH 7 0
BBX 7 6 0 0
BITMAP
004A1000
04A2B100
4A90BA10
21909200
00909000
00909000
ENDCHAR
STARTCHAR uni21D2
ENCODING 8658
SWIDTH 600 0
DWIDTH 7 0
BBX 7 7 0 -1
BITMAP
00050000
00067000
AFFFF700
00000C30
AFFFF700
00067000
00050000
ENDCHAR
STARTCHAR uni21D3
ENCODING 8659
SWIDTH 600 0
DWIDTH 7 0
BBX 6 6 0 0
BITMAP
009090
009090
219093
3A90CA
04A2B1
004A10
ENDCHAR
STARTCHAR uni2200
ENCODING 8704
SWIDTH 600 0
DWIDTH 7 0
BBX 7 7 0 0
BITMAP
77000D10
2D225B00
0CDDE600
0670C100
01B2A000
00B85000
006E1000
ENDCHAR
STARTCHAR partialdiff
ENCODING 8706
SWIDTH 600 0
DWIDTH 7 0
BBX 6 7 0 0
BITMAP
01AEA1
014187
04DE9A
0D319A
2B0068
1D22D2
06ED50
ENDCHAR
STARTCHAR uni2203
ENCODING 8707
SWIDTH 600 0
DWIDTH 7 0
BBX 6 7 0 0
BITMAP
2FFFF5
000095
000095
08FFF5
000095
000095
4FFFF5
ENDCHAR
STARTCHAR uni2206
ENCODING 8710
SWIDTH 600 0
DWIDTH 7 0
BBX 7 7 0 0
BITMAP
006E1000
00B85000
02A2B000
0750B100
0C106600
3A001B00
7FFFFF10
ENDCHAR
STARTCHAR product
ENCODING 8719
SWIDTH 600 0
DWIDTH 7 0
BBX 6 8 0 -1
BITMAP
6FFFFF
67000E
67000E
67000E
67000E
67000E
67000E
67000E
ENDCHAR
STARTCHAR summation
ENCODING 8721
SWIDTH 600 0
DWIDTH 7 0
BBX 6 8 0 -1
BITMAP
1FFFFB
086000
00B300
001C10
002C10
01B200
0A4000
3FFFFF
ENDCHAR
STARTCHAR minus
ENCODING 8722
SWIDTH 600 0
DWIDTH 7 0
BBX 6 1 0 3
BITMAP
1FFFFA
ENDCHAR
STARTCHAR uni2215
ENCODING 8725
SWIDTH 600 0
DWIDTH 7 0
BBX 7 7 0 0
BITMAP
00000910
00007500
00004000
00000000
00400000
09200000
64000000
ENDCHAR
STARTCHAR uni2219
ENCODING 8729
SWIDTH 600 0
DWIDTH 7 0
BBX 3 2 2 3
BITMAP
6D10
6D10
ENDCHAR
STARTCHAR radical
ENCODING 8730
SWIDTH 600 0
DWIDTH 7 0
BBX 7 10 0 -1
BITMAP
00000640
00000910
00000A00
00001800
03205500
28708100
00B0A000
00839000
003B6000
000D2000
ENDCHAR
STARTCHAR infinity
ENCODING 8734
SWIDTH 600 0
DWIDTH 7 0
BBX 7 3 0 2
BITMAP
8EB8ED30
D2AC2590
9E87ED30
ENDCHAR
STARTCHAR orthogonal
ENCODING 8735
SWIDTH 600 0
DWIDTH 7 0
BBX 6 6 0 1
BITMAP
030000
1A0000
1A0000
1A0000
1A0000
1FFFFA
ENDCHAR
STARTCHAR intersection
ENCODING 8745
SWIDTH 600 0
DWIDTH 7 0
BBX 5 6 1 0
BITMAP
1BE700
A41A40
B00380
B00380
B00380
400130
ENDCHAR
STARTCHAR integral
ENCODING 8747
SWIDTH 600 0
DWIDTH 7 0
BBX 3 11 2 -2
BITMAP
09B0
1C00
3A00
2A00
1B00
0C00
0C00
0C10
0B10
1D00
D800
ENDCHAR
STARTCHAR uni2237
ENCODING 8759
SWIDTH 600 0
DWIDTH 7 0
BBX 5 6 1 1
BITMAP
D70C80
D70C80
000000
000000
D70C80
D70C80
ENDCHAR
STARTCHAR approxequal
ENCODING 8776
SWIDTH 600 0
DWIDTH 7 0
BBX 6 4 0 2
BITMAP
08E628
192AE3
08E628
192AE3
ENDCHAR
STARTCHAR notequal
ENCODING 8800
SWIDTH 600 0
DWIDTH 7 0
BBX 6 6 0 0
BITMAP
000091
1FFFFA
000A00
004600
1FFFFA
055000
ENDCHAR
STARTCHAR equivalence
ENCODING 8801
SWIDTH 600 0
DWIDTH 7 0
BBX 6 5 0 1
BITMAP
1FFFFA
000000
1FFFFA
000000
1FFFFA
ENDCHAR
STARTCHAR lessequal
ENCODING 8804
SWIDTH 600 0
DWIDTH 7 0
BBX 6 6 0 0
BITMAP
000035
038DB5
1F9200
038DB5
000035
1FFFFA
ENDCHAR
STARTCHAR greaterequal
ENCODING 8805
SWIDTH 600 0
DWIDTH 7 0
BBX 6 6 0 0
BITMAP
161000
09DB61
0004CA
08DB61
161000
1FFFFA
ENDCHAR
STARTCHAR house
ENCODING 8962
SWIDTH 600 0
DWIDTH 7 0
BBX 7 7 0 0
BITMAP
007E2000
03C5C000
1C207800
76000C10
75000B10
75000B10
7FFFFF10
ENDCHAR
STARTCHAR revlogicalnot
ENCODING 8976
SWIDTH 600 0
DWIDTH 7 0
BBX 6 4 0 0
BITMAP
1FFFFA
1A0000
1A0000
010000
ENDCHAR
STARTCHAR uni231C
ENCODING 8988
SWIDTH 600 0
DWIDTH 7 0
BBX 4 9 2 -1
BITMAP
8FF8
8300
8300
8300
8300
8300
8300
8300
1000
ENDCHAR
STARTCHAR uni231D
ENCODING 8989
SWIDTH 600 0
DWIDTH 7 0
BBX 4 9 1 -1
BITMAP
EFF2
0092
0092
0092
0092
0092
0092
0092
0010
ENDCHAR
STARTCHAR uni231E
ENCODING 8990
SWIDTH 600 0
DWIDTH 7 0
BBX 4 9 2 -1
BITMAP
3100
8300
8300
8300
8300
8300
8300
8300
8FF8
ENDCHAR
STARTCHAR uni231F
ENCODING 8991
SWIDTH 600 0
DWIDTH 7 0
BBX 4 9 1 -1
BITMAP
0041
0092
0092
0092
0092
0092
0092
0092
EFF2
ENDCHAR
STARTCHAR integraltp
ENCODING 8992
SWIDTH 600 0
DWIDTH 7 0
BBX 3 14 2 -5
BITMAP
07D0
0C10
1B00
1B00
1B00
1B00
1B00
1B00
1B00
1B00
1B00
1B00
1B00
0400
ENDCHAR
STARTCHAR integralbt
ENCODING 8993
SWIDTH 600 0
DWIDTH 7 0
BBX 3 13 1 -2
BITMAP
01B0
01B0
01B0
01B0
01B0
01B0
01B0
01B0
01B0
01B0
01B0
0490
4E30
ENDCHAR
STARTCHAR uni2500
ENCODING 9472
SWIDTH 600 0
DWIDTH 7 0
BBX 8 1 -1 3
BITMAP
6FFFFFFF
ENDCHAR
STARTCHAR uni2501
ENCODING 9473
SWIDTH 600 0
DWIDTH 7 0
BBX 8 2 -1 2
BITMAP
6FFFFFFF
6FFFFFFF
ENDCHAR
STARTCHAR uni2502
ENCODING 9474
SWIDTH 600 0
DWIDTH 7 0
BBX 2 15 2 -4
BITMAP
2B
2B
2B
2B
2B
2B
2B
2B
2B
2B
2B
2B
2B
2B
2B
ENDCHAR
STARTCHAR uni2503
ENCODING 9475
SWIDTH 600 0
DWIDTH 7 0
BBX 3 15 2 -4
BITMAP
8F20
8F20
8F20
8F20
8F20
8F20
8F20
8F20
8F20
8F20
8F20
8F20
8F20
8F20
8F20
ENDCHAR
STARTCHAR uni2504
ENCODING 9476
SWIDTH 600 0
DWIDTH 7 0
BBX 7 1 0 3
BITMAP
AD7F4F40
ENDCHAR
STARTCHAR uni2505
ENCODING 9477
SWIDTH 600 0
DWIDTH 7 0
BBX 7 2 0 2
BITMAP
AD7F4F40
AD7F4F40
ENDCHAR
STARTCHAR uni2506
ENCODING 9478
SWIDTH 600 0
DWIDTH 7 0
BBX 2 12 2 -3
BITMAP
2B
2B
2B
00
18
2B
2B
02
14
2B
2B
16
ENDCHAR
STARTCHAR uni2507
ENCODING 9479
SWIDTH 600 0
DWIDTH 7 0
BBX 3 12 2 -3
BITMAP
8F20
8F20
8F20
0000
8F20
8F20
8F20
0000
0000
8F20
8F20
8F20
ENDCHAR
STARTCHAR uni2508
ENCODING 9480
SWIDTH 600 0
DWIDTH 7 0
BBX 7 1 0 3
BITMAP
C9F9BD60
ENDCHAR
STARTCHAR uni2509
ENCODING 9481
SWIDTH 600 0
DWIDTH 7 0
BBX 7 2 0 2
BITMAP
C9F9BD60
C9F9BD60
ENDCHAR
STARTCHAR uni250A
ENCODING 9482
SWIDTH 600 0
DWIDTH 7 0
BBX 2 12 2 -3
BITMAP
2B
2B
00
2B
2B
00
2B
2B
00
00
2B
2B
ENDCHAR
STARTCHAR uni250B
ENCODING 9483
SWIDTH 600 0
DWIDTH 7 0
BBX 3 12 2 -3
BITMAP
8F20
8F20
0000
8F20
8F20
0000
8F20
8F20
0000
0000
8F20
8F20
ENDCHAR
STARTCHAR uni250C
ENCODING 9484
SWIDTH 600 0
DWIDTH 7 0
BBX 5 9 2 -5
BITMAP
2FFFF0
2B0000
2B0000
2B0000
2B0000
2B0000
2B0000
2B0000
130000
ENDCHAR
STARTCHAR uni250D
ENCODING 9485
SWIDTH 600 0
DWIDTH 7 0
BBX 5 9 2 -5
BITMAP
2FFFF0
2FFFF0
2B0000
2B0000
2B0000
2B0000
2B0000
2B0000
290000
ENDCHAR
STARTCHAR uni250E
ENCODING 9486
SWIDTH 600 0
DWIDTH 7 0
BBX 5 9 2 -5
BITMAP
8FFFF0
8F2000
8F2000
8F2000
8F2000
8F2000
8F2000
8F2000
241000
ENDCHAR
STARTCHAR uni250F
ENCODING 9487
SWIDTH 600 0
DWIDTH 7 0
BBX 5 9 2 -5
BITMAP
8FFFF0
8FFFF0
8F2000
8F2000
8F2000
8F2000
8F2000
8F2000
7D2000
ENDCHAR
STARTCHAR uni2510
ENCODING 9488
SWIDTH 600 0
DWIDTH 7 0
BBX 5 9 -1 -5
BITMAP
6FFFB0
0002B0
0002B0
0002B0
0002B0
0002B0
0002B0
0002B0
000130
ENDCHAR
STARTCHAR uni2511
ENCODING 9489
SWIDTH 600 0
DWIDTH 7 0
BBX 5 9 -1 -5
BITMAP
6FFFB0
6FFFB0
0002B0
0002B0
0002B0
0002B0
0002B0
0002B0
000290
ENDCHAR
STARTCHAR uni2512
ENCODING 9490
SWIDTH 600 0
DWIDTH 7 0
BBX 6 9 -1 -5
BITMAP
6FFFF2
0008F2
0008F2
0008F2
0008F2
0008F2
0008F2
0008F2
000241
ENDCHAR
STARTCHAR uni2513
ENCODING 9491
SWIDTH 600 0
DWIDTH 7 0
BBX 6 9 -1 -5
BITMAP
6FFFF2
6FFFF2
0008F2
0008F2
0008F2
0008F2
0008F2
0008F2
0007D2
ENDCHAR
STARTCHAR uni2514
ENCODING 9492
SWIDTH 600 0
DWIDTH 7 0
BBX 5 9 2 3
BITMAP
030000
2B0000
2B0000
2B0000
2B0000
2B0000
2B0000
2B0000
2FFFF0
ENDCHAR
STARTCHAR uni2515
ENCODING 9493
SWIDTH 600 0
DWIDTH 7 0
BBX 5 9 2 2
BITMAP
290000
2B0000
2B0000
2B0000
2B0000
2B0000
2B0000
2FFFF0
2FFFF0
ENDCHAR
STARTCHAR uni2516
ENCODING 9494
SWIDTH 600 0
DWIDTH 7 0
BBX 5 9 2 3
BITMAP
241000
8F2000
8F2000
8F2000
8F2000
8F2000
8F2000
8F2000
8FFFF0
ENDCHAR
STARTCHAR uni2517
ENCODING 9495
SWIDTH 600 0
DWIDTH 7 0
BBX 5 9 2 2
BITMAP
7D2000
8F2000
8F2000
8F2000
8F2000
8F2000
8F2000
8FFFF0
8FFFF0
ENDCHAR
STARTCHAR uni2518
ENCODING 9496
SWIDTH 600 0
DWIDTH 7 0
BBX 5 9 -1 3
BITMAP
000030
0002B0
0002B0
0002B0
0002B0
0002B0
0002B0
0002B0
6FFFB0
ENDCHAR
STARTCHAR uni2519
ENCODING 9497
SWIDTH 600 0
DWIDTH 7 0
BBX 5 9 -1 2
BITMAP
000290
0002B0
0002B0
0002B0
0002B0
0002B0
0002B0
6FFFB0
6FFFB0
ENDCHAR
STARTCHAR uni251A
ENCODING 9498
SWIDTH 600 0
DWIDTH 7 0
BBX 6 9 -1 3
BITMAP
000241
0008F2
0008F2
0008F2
0008F2
0008F2
0008F2
0008F2
6FFFF2
ENDCHAR
STARTCHAR uni251B
ENCODING 9499
SWIDTH 600 0
DWIDTH 7 0
BBX 6 9 -1 2
BITMAP
0007D2
0008F2
0008F2
0008F2
0008F2
0008F2
0008F2
6FFFF2
6FFFF2
ENDCHAR
STARTCHAR uni251C
ENCODING 9500
SWIDTH 600 0
DWIDTH 7 0
BBX 5 17 2 -5
BITMAP
030000
2B0000
2B0000
2B0000
2B0000
2B0000
2B0000
2B0000
2FFFF0
2B0000
2B0000
2B0000
2B0000
2B0000
2B0000
2B0000
130000
ENDCHAR
STARTCHAR uni251D
ENCODING 9501
SWIDTH 600 0
DWIDTH 7 0
BBX 5 16 2 -5
BITMAP
290000
2B0000
2B0000
2B0000
2B0000
2B0000
2B0000
2FFFF0
2FFFF0
2B0000
2B0000
2B0000
2B0000
2B0000
2B0000
290000
ENDCHAR
STARTCHAR uni251E
ENCODING 9502
SWIDTH 600 0
DWIDTH 7 0
BBX 5 17 2 -5
BITMAP
241000
8F2000
8F2000
8F2000
8F2000
8F2000
8F2000
8F2000
8FFFF0
2B0000
2B0000
2B0000
2B0000
2B0000
2B0000
2B0000
130000
ENDCHAR
STARTCHAR uni251F
ENCODING 9503
SWIDTH 600 0
DWIDTH 7 0
BBX 5 17 2 -5
BITMAP
030000
2B0000
2B0000
2B0000
2B0000
2B0000
2B0000
2B0000
8FFFF0
8F2000
8F2000
8F2000
8F2000
8F2000
8F2000
8F2000
241000
ENDCHAR
STARTCHAR uni2520
ENCODING 9504
SWIDTH 600 0
DWIDTH 7 0
BBX 5 17 2 -5
BITMAP
241000
8F2000
8F2000
8F2000
8F2000
8F2000
8F2000
8F2000
8FFFF0
8F2000
8F2000
8F2000
8F2000
8F2000
8F2000
8F2000
241000
ENDCHAR
STARTCHAR uni2521
ENCODING 9505
SWIDTH 600 0
DWIDTH 7 0
BBX 5 16 2 -5
BITMAP
7D2000
8F2000
8F2000
8F2000
8F2000
8F2000
8F2000
8FFFF0
8FFFF0
2B0000
2B0000
2B0000
2B0000
2B0000
2B0000
290000
ENDCHAR
STARTCHAR uni2522
ENCODING 9506
SWIDTH 600 0
DWIDTH 7 0
BBX 5 16 2 -5
BITMAP
290000
2B0000
2B0000
2B0000
2B0000
2B0000
2B0000
8FFFF0
8FFFF0
8F2000
8F2000
8F2000
8F2000
8F2000
8F2000
7D2000
ENDCHAR
STARTCHAR uni2523
ENCODING 9507
SWIDTH 600 0
DWIDTH 7 0
BBX 5 16 2 -5
BITMAP
7D2000
8F2000
8F2000
8F2000
8F2000
8F2000
8F2000
8FFFF0
8FFFF0
8F2000
8F2000
8F2000
8F2000
8F2000
8F2000
7D2000
ENDCHAR
STARTCHAR uni2524
ENCODING 9508
SWIDTH 600 0
DWIDTH 7 0
BBX 5 17 -1 -5
BITMAP
000030
0002B0
0002B0
0002B0
0002B0
0002B0
0002B0
0002B0
6FFFB0
0002B0
0002B0
0002B0
0002B0
0002B0
0002B0
0002B0
000130
ENDCHAR
STARTCHAR uni2525
ENCODING 9509
SWIDTH 600 0
DWIDTH 7 0
BBX 5 16 -1 -5
BITMAP
000290
0002B0
0002B0
0002B0
0002B0
0002B0
0002B0
6FFFB0
6FFFB0
0002B0
0002B0
0002B0
0002B0
0002B0
0002B0
000290
ENDCHAR
STARTCHAR uni2526
ENCODING 9510
SWIDTH 600 0
DWIDTH 7 0
BBX 6 17 -1 -5
BITMAP
000241
0008F2
0008F2
0008F2
0008F2
0008F2
0008F2
0008F2
6FFFF2
0002B0
0002B0
0002B0
0002B0
0002B0
0002B0
0002B0
000130
ENDCHAR
STARTCHAR uni2527
ENCODING 9511
SWIDTH 600 0
DWIDTH 7 0
BBX 6 17 -1 -5
BITMAP
000030
0002B0
0002B0
0002B0
0002B0
0002B0
0002B0
0002B0
6FFFF2
0008F2
0008F2
0008F2
0008F2
0008F2
0008F2
0008F2
000241
ENDCHAR
STARTCHAR uni2528
ENCODING 9512
SWIDTH 600 0
DWIDTH 7 0
BBX 6 17 -1 -5
BITMAP
000241
0008F2
0008F2
0008F2
0008F2
0008F2
0008F2
0008F2
6FFFF2
0008F2
0008F2
0008F2
0008F2
0008F2
0008F2
0008F2
000241
ENDCHAR
STARTCHAR uni2529
ENCODING 9513
SWIDTH 600 0
DWIDTH 7 0
BBX 6 16 -1 -5
BITMAP
0007D2
0008F2
0008F2
0008F2
0008F2
0008F2
0008F2
6FFFF2
6FFFF2
0002B0
0002B0
0002B0
0002B0
0002B0
0002B0
000290
ENDCHAR
STARTCHAR uni252A
ENCODING 9514
SWIDTH 600 0
DWIDTH 7 0
BBX 6 16 -1 -5
BITMAP
000290
0002B0
0002B0
0002B0
0002B0
0002B0
0002B0
6FFFF2
6FFFF2
0008F2
0008F2
0008F2
0008F2
0008F2
0008F2
0007D2
ENDCHAR
STARTCHAR uni252B
ENCODING 9515
SWIDTH 600 0
DWIDTH 7 0
BBX 6 16 -1 -5
BITMAP
0007D2
0008F2
0008F2
0008F2
0008F2
0008F2
0008F2
6FFFF2
6FFFF2
0008F2
0008F2
0008F2
0008F2
0008F2
0008F2
0007D2
ENDCHAR
STARTCHAR uni252C
ENCODING 9516
SWIDTH 600 0
DWIDTH 7 0
BBX 8 9 -1 -5
BITMAP
6FFFFFFF
0002B000
0002B000
0002B000
0002B000
0002B000
0002B000
0002B000
00013000
ENDCHAR
STARTCHAR uni252D
ENCODING 9517
SWIDTH 600 0
DWIDTH 7 0
BBX 8 9 -1 -5
BITMAP
6FFFFFFF
6FFFB000
0002B000
0002B000
0002B000
0002B000
0002B000
0002B000
00029000
ENDCHAR
STARTCHAR uni252E
ENCODING 9518
SWIDTH 600 0
DWIDTH 7 0
BBX 8 9 -1 -5
BITMAP
6FFFFFFF
0002FFFF
0002B000
0002B000
0002B000
0002B000
0002B000
0002B000
00029000
ENDCHAR
STARTCHAR uni252F
ENCODING 9519
SWIDTH 600 0
DWIDTH 7 0
BBX 8 9 -1 -5
BITMAP
6FFFFFFF
6FFFFFFF
0002B000
0002B000
0002B000
0002B000
0002B000
0002B000
00029000
ENDCHAR
STARTCHAR uni2530
ENCODING 9520
SWIDTH 600 0
DWIDTH 7 0
BBX 8 9 -1 -5
BITMAP
6FFFFFFF
0008F200
0008F200
0008F200
0008F200
0008F200
0008F200
0008F200
00024100
ENDCHAR
STARTCHAR uni2531
ENCODING 9521
SWIDTH 600 0
DWIDTH 7 0
BBX 8 9 -1 -5
BITMAP
6FFFFFFF
6FFFF200
0008F200
0008F200
0008F200
0008F200
0008F200
0008F200
0007D200
ENDCHAR
STARTCHAR uni2532
ENCODING 9522
SWIDTH 600 0
DWIDTH 7 0
BBX 8 9 -1 -5
BITMAP
6FFFFFFF
0008FFFF
0008F200
0008F200
0008F200
0008F200
0008F200
0008F200
0007D200
ENDCHAR
STARTCHAR uni2533
ENCODING 9523
SWIDTH 600 0
DWIDTH 7 0
BBX 8 9 -1 -5
BITMAP
6FFFFFFF
6FFFFFFF
0008F200
0008F200
0008F200
0008F200
0008F200
0008F200
0007D200
ENDCHAR
STARTCHAR uni2534
ENCODING 9524
SWIDTH 600 0
DWIDTH 7 0
BBX 8 9 -1 3
BITMAP
00003000
0002B000
0002B000
0002B000
0002B000
0002B000
0002B000
0002B000
6FFFFFFF
ENDCHAR
STARTCHAR uni2535
ENCODING 9525
SWIDTH 600 0
DWIDTH 7 0
BBX 8 9 -1 2
BITMAP
00029000
0002B000
0002B000
0002B000
0002B000
0002B000
0002B000
6FFFFFFF
6FFFB000
ENDCHAR
STARTCHAR uni2536
ENCODING 9526
SWIDTH 600 0
DWIDTH 7 0
BBX 8 9 -1 2
BITMAP
00029000
0002B000
0002B000
0002B000
0002B000
0002B000
0002B000
6FFFFFFF
0002FFFF
ENDCHAR
STARTCHAR uni2537
ENCODING 9527
SWIDTH 600 0
DWIDTH 7 0
BBX 8 9 -1 2
BITMAP
00029000
0002B000
0002B000
0002B000
0002B000
0002B000
0002B000
6FFFFFFF
6FFFFFFF
ENDCHAR
STARTCHAR uni2538
ENCODING 9528
SWIDTH 600 0
DWIDTH 7 0
BBX 8 9 -1 3
BITMAP
00024100
0008F200
0008F200
0008F200
0008F200
0008F200
0008F200
0008F200
6FFFFFFF
ENDCHAR
STARTCHAR uni2539
ENCODING 9529
SWIDTH 600 0
DWIDTH 7 0
BBX 8 9 -1 2
BITMAP
0007D200
0008F200
0008F200
0008F200
0008F200
0008F200
0008F200
6FFFFFFF
6FFFF200
ENDCHAR
STARTCHAR uni253A
ENCODING 9530
SWIDTH 600 0
DWIDTH 7 0
BBX 8 9 -1 2
BITMAP
0007D200
0008F200
0008F200
0008F200
0008F200
0008F200
0008F200
6FFFFFFF
0008FFFF
ENDCHAR
STARTCHAR uni253B
ENCODING 9531
SWIDTH 600 0
DWIDTH 7 0
BBX 8 9 -1 2
BITMAP
0007D200
0008F200
0008F200
0008F200
0008F200
0008F200
0008F200
6FFFFFFF
6FFFFFFF
ENDCHAR
STARTCHAR uni253C
ENCODING 9532
SWIDTH 600 0
DWIDTH 7 0
BBX 8 17 -1 -5
BITMAP
00003000
0002B000
0002B000
0002B000
0002B000
0002B000
0002B000
0002B000
6FFFFFFF
0002B000
0002B000
0002B000
0002B000
0002B000
0002B000
0002B000
00013000
ENDCHAR
STARTCHAR uni253D
ENCODING 9533
SWIDTH 600 0
DWIDTH 7 0
BBX 8 16 -1 -5
BITMAP
00029000
0002B000
0002B000
0002B000
0002B000
0002B000
0002B000
6FFFFFFF
6FFFB000
0002B000
0002B000
0002B000
0002B000
0002B000
0002B000
00029000
ENDCHAR
STARTCHAR uni253E
ENCODING 9534
SWIDTH 600 0
DWIDTH 7 0
BBX 8 16 -1 -5
BITMAP
00029000
0002B000
0002B000
0002B000
0002B000
0002B000
0002B000
6FFFFFFF
0002FFFF
0002B000
0002B000
0002B000
0002B000
0002B000
0002B000
00029000
ENDCHAR
STARTCHAR uni253F
ENCODING 9535
SWIDTH 600 0
DWIDTH 7 0
BBX 8 16 -1 -5
BITMAP
00029000
0002B000
0002B000
0002B000
0002B000
0002B000
0002B000
6FFFFFFF
6FFFFFFF
0002B000
0002B000
0002B000
0002B000
0002B000
0002B000
00029000
ENDCHAR
STARTCHAR uni2540
ENCODING 9536
SWIDTH 600 0
DWIDTH 7 0
BBX 8 17 -1 -5
BITMAP
00024100
0008F200
0008F200
0008F200
0008F200
0008F200
0008F200
0008F200
6FFFFFFF
0002B000
0002B000
0002B000
0002B000
0002B000
0002B000
0002B000
00013000
ENDCHAR
STARTCHAR uni2541
ENCODING 9537
SWIDTH 600 0
DWIDTH 7 0
BBX 8 17 -1 -5
BITMAP
00003000
0002B000
0002B000
0002B000
0002B000
0002B000
0002B000
0002B000
6FFFFFFF
0008F200
0008F200
0008F200
0008F200
0008F200
0008F200
0008F200
00024100
ENDCHAR
STARTCHAR uni2542
ENCODING 9538
SWIDTH 600 0
DWIDTH 7 0
BBX 8 17 -1 -5
BITMAP
00024100
0008F200
0008F200
0008F200
0008F200
0008F200
0008F200
0008F200
6FFFFFFF
0008F200
0008F200
0008F200
0008F200
0008F200
0008F200
0008F200
00024100
ENDCHAR
STARTCHAR uni2543
ENCODING 9539
SWIDTH 600 0
DWIDTH 7 0
BBX 8 16 -1 -5
BITMAP
0007D200
0008F200
0008F200
0008F200
0008F200
0008F200
0008F200
6FFFFFFF
6FFFF200
0002B000
0002B000
0002B000
0002B000
0002B000
0002B000
00029000
ENDCHAR
STARTCHAR uni2544
ENCODING 9540
SWIDTH 600 0
DWIDTH 7 0
BBX 8 16 -1 -5
BITMAP
0007D200
0008F200
0008F200
0008F200
0008F200
0008F200
0008F200
6FFFFFFF
0008FFFF
0002B000
0002B000
0002B000
0002B000
0002B000
0002B000
00029000
ENDCHAR
STARTCHAR uni2545
ENCODING 9541
SWIDTH 600 0
DWIDTH 7 0
BBX 8 16 -1 -5
BITMAP
00029000
0002B000
0002B000
0002B000
0002B000
0002B000
0002B000
6FFFFFFF
6FFFF200
0008F200
0008F200
0008F200
0008F200
0008F200
0008F200
0007D200
ENDCHAR
STARTCHAR uni2546
ENCODING 9542
SWIDTH 600 0
DWIDTH 7 0
BBX 8 16 -1 -5
BITMAP
00029000
0002B000
0002B000
0002B000
0002B000
0002B000
0002B000
6FFFFFFF
0008FFFF
0008F200
0008F200
0008F200
0008F200
0008F200
0008F200
0007D200
ENDCHAR
STARTCHAR uni2547
ENCODING 9543
SWIDTH 600 0
DWIDTH 7 0
BBX 8 16 -1 -5
BITMAP
0007D200
0008F200
0008F200
0008F200
0008F200
0008F200
0008F200
6FFFFFFF
6FFFFFFF
0002B000
0002B000
0002B000
0002B000
0002B000
0002B000
00029000
ENDCHAR
STARTCHAR uni2548
ENCODING 9544
SWIDTH 600 0
DWIDTH 7 0
BBX 8 16 -1 -5
BITMAP
00029000
0002B000
0002B000
0002B000
0002B000
0002B000
0002B000
6FFFFFFF
6FFFFFFF
0008F200
0008F200
0008F200
0008F200
0008F200
0008F200
0007D200
ENDCHAR
STARTCHAR uni2549
ENCODING 9545
SWIDTH 600 0
DWIDTH 7 0
BBX 8 16 -1 -5
BITMAP
0007D200
0008F200
0008F200
0008F200
0008F200
0008F200
0008F200
6FFFFFFF
6FFFF200
0008F200
0008F200
0008F200
0008F200
0008F200
0008F200
0007D200
ENDCHAR
STARTCHAR uni254A
ENCODING 9546
SWIDTH 600 0
DWIDTH 7 0
BBX 8 16 -1 -5
BITMAP
0007D200
0008F200
0008F200
0008F200
0008F200
0008F200
0008F200
6FFFFFFF
0008FFFF
0008F200
0008F200
0008F200
0008F200
0008F200
0008F200
0007D200
ENDCHAR
STARTCHAR uni254B
ENCODING 9547
SWIDTH 600 0
DWIDTH 7 0
BBX 8 16 -1 -5
BITMAP
0007D200
0008F200
0008F200
0008F200
0008F200
0008F200
0008F200
6FFFFFFF
6FFFFFFF
0008F200
0008F200
0008F200
0008F200
0008F200
0008F200
0007D200
ENDCHAR
STARTCHAR uni254C
ENCODING 9548
SWIDTH 600 0
DWIDTH 7 0
BBX 6 1 0 3
BITMAP
3F70DC
ENDCHAR
STARTCHAR uni254D
ENCODING 9549
SWIDTH 600 0
DWIDTH 7 0
BBX 6 2 0 2
BITMAP
3F70DC
3F70DC
ENDCHAR
STARTCHAR uni254E
ENCODING 9550
SWIDTH 600 0
DWIDTH 7 0
BBX 2 10 2 -2
BITMAP
2B
2B
2B
13
00
00
13
2B
2B
2B
ENDCHAR
STARTCHAR uni254F
ENCODING 9551
SWIDTH 600 0
DWIDTH 7 0
BBX 3 10 2 -2
BITMAP
8F20
8F20
8F20
0000
0000
0000
6A20
8F20
8F20
6A20
ENDCHAR
STARTCHAR uni2550
ENCODING 9552
SWIDTH 600 0
DWIDTH 7 0
BBX 8 3 -1 2
BITMAP
6FFFFFFF
00000000
6FFFFFFF
ENDCHAR
STARTCHAR uni2551
ENCODING 9553
SWIDTH 600 0
DWIDTH 7 0
BBX 3 15 2 -4
BITMAP
D490
D490
D490
D490
D490
D490
D490
D490
D490
D490
D490
D490
D490
D490
D490
ENDCHAR
STARTCHAR uni2552
ENCODING 9554
SWIDTH 600 0
DWIDTH 7 0
BBX 5 10 2 -5
BITMAP
2FFFF0
2B0000
2FFFF0
2B0000
2B0000
2B0000
2B0000
2B0000
2B0000
150000
ENDCHAR
STARTCHAR uni2553
ENCODING 9555
SWIDTH 600 0
DWIDTH 7 0
BBX 5 9 2 -5
BITMAP
FFFFF0
D49000
D49000
D49000
D49000
D49000
D49000
D49000
412000
ENDCHAR
STARTCHAR uni2554
ENCODING 9556
SWIDTH 600 0
DWIDTH 7 0
BBX 5 10 2 -5
BITMAP
FFFFF0
D00000
D4FFF0
D49000
D49000
D49000
D49000
D49000
D49000
224000
ENDCHAR
STARTCHAR uni2555
ENCODING 9557
SWIDTH 600 0
DWIDTH 7 0
BBX 5 10 -1 -5
BITMAP
6FFFB0
0002B0
6FFFB0
0002B0
0002B0
0002B0
0002B0
0002B0
0002B0
000150
ENDCHAR
STARTCHAR uni2556
ENCODING 9558
SWIDTH 600 0
DWIDTH 7 0
BBX 6 9 -1 -5
BITMAP
6FFFF9
000D49
000D49
000D49
000D49
000D49
000D49
000D49
000412
ENDCHAR
STARTCHAR uni2557
ENCODING 9559
SWIDTH 600 0
DWIDTH 7 0
BBX 6 10 -1 -5
BITMAP
6FFFF9
000049
6FFD49
000D49
000D49
000D49
000D49
000D49
000D49
000511
ENDCHAR
STARTCHAR uni2558
ENCODING 9560
SWIDTH 600 0
DWIDTH 7 0
BBX 5 10 2 2
BITMAP
140000
2B0000
2B0000
2B0000
2B0000
2B0000
2B0000
2FFFF0
2B0000
2FFFF0
ENDCHAR
STARTCHAR uni2559
ENCODING 9561
SWIDTH 600 0
DWIDTH 7 0
BBX 5 9 2 3
BITMAP
312000
D49000
D49000
D49000
D49000
D49000
D49000
D49000
FFFFF0
ENDCHAR
STARTCHAR uni255A
ENCODING 9562
SWIDTH 600 0
DWIDTH 7 0
BBX 5 10 2 2
BITMAP
224000
D49000
D49000
D49000
D49000
D49000
D49000
D4FFF0
D00000
FFFFF0
ENDCHAR
STARTCHAR uni255B
ENCODING 9563
SWIDTH 600 0
DWIDTH 7 0
BBX 5 10 -1 2
BITMAP
000140
0002B0
0002B0
0002B0
0002B0
0002B0
0002B0
6FFFB0
0002B0
6FFFB0
ENDCHAR
STARTCHAR uni255C
ENCODING 9564
SWIDTH 600 0
DWIDTH 7 0
BBX 6 9 -1 3
BITMAP
000312
000D49
000D49
000D49
000D49
000D49
000D49
000D49
6FFFF9
ENDCHAR
STARTCHAR uni255D
ENCODING 9565
SWIDTH 600 0
DWIDTH 7 0
BBX 6 10 -1 2
BITMAP
000501
000D49
000D49
000D49
000D49
000D49
000D49
6FFD49
000049
6FFFF9
ENDCHAR
STARTCHAR uni255E
ENCODING 9566
SWIDTH 600 0
DWIDTH 7 0
BBX 5 17 2 -5
BITMAP
140000
2B0000
2B0000
2B0000
2B0000
2B0000
2B0000
2FFFF0
2B0000
2FFFF0
2B0000
2B0000
2B0000
2B0000
2B0000
2B0000
150000
ENDCHAR
STARTCHAR uni255F
ENCODING 9567
SWIDTH 600 0
DWIDTH 7 0
BBX 5 17 2 -5
BITMAP
012000
D49000
D49000
D49000
D49000
D49000
D49000
D49000
D4FFF0
D49000
D49000
D49000
D49000
D49000
D49000
D49000
512000
ENDCHAR
STARTCHAR uni2560
ENCODING 9568
SWIDTH 600 0
DWIDTH 7 0
BBX 5 17 2 -5
BITMAP
024000
D49000
D49000
D49000
D49000
D49000
D49000
D4FFF0
D00000
D4FFF0
D49000
D49000
D49000
D49000
D49000
D49000
524000
ENDCHAR
STARTCHAR uni2561
ENCODING 9569
SWIDTH 600 0
DWIDTH 7 0
BBX 5 17 -1 -5
BITMAP
000140
0002B0
0002B0
0002B0
0002B0
0002B0
0002B0
6FFFB0
0002B0
6FFFB0
0002B0
0002B0
0002B0
0002B0
0002B0
0002B0
000150
ENDCHAR
STARTCHAR uni2562
ENCODING 9570
SWIDTH 600 0
DWIDTH 7 0
BBX 6 17 -1 -5
BITMAP
000300
000D49
000D49
000D49
000D49
000D49
000D49
000D49
6FFD49
000D49
000D49
000D49
000D49
000D49
000D49
000D49
000424
ENDCHAR
STARTCHAR uni2563
ENCODING 9571
SWIDTH 600 0
DWIDTH 7 0
BBX 6 17 -1 -5
BITMAP
000500
000D49
000D49
000D49
000D49
000D49
000D49
6FFD49
000049
6FFD49
000D49
000D49
000D49
000D49
000D49
000D49
000524
ENDCHAR
STARTCHAR uni2564
ENCODING 9572
SWIDTH 600 0
DWIDTH 7 0
BBX 8 10 -1 -5
BITMAP
6FFFFFFF
00000000
6FFFFFFF
0002B000
0002B000
0002B000
0002B000
0002B000
0002B000
00015000
ENDCHAR
STARTCHAR uni2565
ENCODING 9573
SWIDTH 600 0
DWIDTH 7 0
BBX 8 9 -1 -5
BITMAP
6FFFFFFF
000D4900
000D4900
000D4900
000D4900
000D4900
000D4900
000D4900
00041200
ENDCHAR
STARTCHAR uni2566
ENCODING 9574
SWIDTH 600 0
DWIDTH 7 0
BBX 8 10 -1 -5
BITMAP
6FFFFFFF
00000000
6FFD4FFF
000D4900
000D4900
000D4900
000D4900
000D4900
000D4900
00052400
ENDCHAR
STARTCHAR uni2567
ENCODING 9575
SWIDTH 600 0
DWIDTH 7 0
BBX 8 10 -1 2
BITMAP
00014000
0002B000
0002B000
0002B000
0002B000
0002B000
0002B000
6FFFFFFF
00000000
6FFFFFFF
ENDCHAR
STARTCHAR uni2568
ENCODING 9576
SWIDTH 600 0
DWIDTH 7 0
BBX 8 9 -1 3
BITMAP
00031200
000D4900
000D4900
000D4900
000D4900
000D4900
000D4900
000D4900
6FFFFFFF
ENDCHAR
STARTCHAR uni2569
ENCODING 9577
SWIDTH 600 0
DWIDTH 7 0
BBX 8 10 -1 2
BITMAP
00052400
000D4900
000D4900
000D4900
000D4900
000D4900
000D4900
6FFD4FFF
00000000
6FFFFFFF
ENDCHAR
STARTCHAR uni256A
ENCODING 9578
SWIDTH 600 0
DWIDTH 7 0
BBX 8 17 -1 -5
BITMAP
00014000
0002B000
0002B000
0002B000
0002B000
0002B000
0002B000
6FFFFFFF
0002B000
6FFFFFFF
0002B000
0002B000
0002B000
0002B000
0002B000
0002B000
00015000
ENDCHAR
STARTCHAR uni256B
ENCODING 9579
SWIDTH 600 0
DWIDTH 7 0
BBX 8 17 -1 -5
BITMAP
00031200
000D4900
000D4900
000D4900
000D4900
000D4900
000D4900
000D4900
6FFFFFFF
000D4900
000D4900
000D4900
000D4900
000D4900
000D4900
000D4900
00041200
ENDCHAR
STARTCHAR uni256C
ENCODING 9580
SWIDTH 600 0
DWIDTH 7 0
BBX 8 17 -1 -5
BITMAP
00052400
000D4900
000D4900
000D4900
000D4900
000D4900
000D4900
6FFD4FFF
00000000
6FFD4FFF
000D4900
000D4900
000D4900
000D4900
000D4900
000D4900
00052400
ENDCHAR
STARTCHAR uni256D
ENCODING 9581
SWIDTH 600 0
DWIDTH 7 0
BBX 5 9 2 -5
BITMAP
003CF0
04D410
0C2000
1C0000
2B0000
2B0000
2B0000
2B0000
130000
ENDCHAR
STARTCHAR uni256E
ENCODING 9582
SWIDTH 600 0
DWIDTH 7 0
BBX 5 9 -1 -5
BITMAP
6E9100
027C00
000860
0003A0
0002B0
0002B0
0002B0
0002B0
000130
ENDCHAR
STARTCHAR uni256F
ENCODING 9583
SWIDTH 600 0
DWIDTH 7 0
BBX 5 9 -1 3
BITMAP
000030
0002B0
0002B0
0002B0
0002B0
0003A0
000870
017C00
6E9100
ENDCHAR
STARTCHAR uni2570
ENCODING 9584
SWIDTH 600 0
DWIDTH 7 0
BBX 5 9 2 3
BITMAP
030000
2B0000
2B0000
2B0000
2B0000
1C0000
0C2000
04D400
003CF0
ENDCHAR
STARTCHAR uni2571
ENCODING 9585
SWIDTH 600 0
DWIDTH 7 0
BBX 7 13 0 -3
BITMAP
00000290
00000A50
00002C00
0000A400
0003C000
000A4000
003B0000
00A40000
03B00000
0A400000
3B000000
B3000000
B0000000
ENDCHAR
STARTCHAR uni2572
ENCODING 9586
SWIDTH 600 0
DWIDTH 7 0
BBX 7 13 0 -3
BITMAP
B0000000
B3000000
3B000000
0A400000
03B00000
00A40000
003B0000
000A4000
0003C000
0000A400
00002C00
00000A50
00000290
ENDCHAR
STARTCHAR uni2573
ENCODING 9587
SWIDTH 600 0
DWIDTH 7 0
BBX 7 13 0 -3
BITMAP
B0000290
B3000950
3B002C00
0A309400
03B2B000
00AC4000
005D0000
00AC4000
03B2C000
0A30A400
3B002C00
B3000950
B0000290
ENDCHAR
STARTCHAR uni2574
ENCODING 9588
SWIDTH 600 0
DWIDTH 7 0
BBX 5 1 -1 3
BITMAP
6FFFB0
ENDCHAR
STARTCHAR uni2575
ENCODING 9589
SWIDTH 600 0
DWIDTH 7 0
BBX 2 8 2 3
BITMAP
2B
2B
2B
2B
2B
2B
2B
2B
ENDCHAR
STARTCHAR uni2576
ENCODING 9590
SWIDTH 600 0
DWIDTH 7 0
BBX 5 1 2 3
BITMAP
2FFFF0
ENDCHAR
STARTCHAR uni2577
ENCODING 9591
SWIDTH 600 0
DWIDTH 7 0
BBX 2 8 2 -4
BITMAP
2B
2B
2B
2B
2B
2B
2B
2B
ENDCHAR
STARTCHAR uni2578
ENCODING 9592
SWIDTH 600 0
DWIDTH 7 0
BBX 5 2 -1 2
BITMAP
6FFFB0
6FFFB0
ENDCHAR
STARTCHAR uni2579
ENCODING 9593
SWIDTH 600 0
DWIDTH 7 0
BBX 3 8 2 3
BITMAP
8F20
8F20
8F20
8F20
8F20
8F20
8F20
8F20
ENDCHAR
STARTCHAR uni257A
ENCODING 9594
SWIDTH 600 0
DWIDTH 7 0
BBX 5 2 2 2
BITMAP
2FFFF0
2FFFF0
ENDCHAR
STARTCHAR uni257B
ENCODING 9595
SWIDTH 600 0
DWIDTH 7 0
BBX 3 8 2 -4
BITMAP
8F20
8F20
8F20
8F20
8F20
8F20
8F20
8F20
ENDCHAR
STARTCHAR uni257C
ENCODING 9596
SWIDTH 600 0
DWIDTH 7 0
BBX 8 3 -1 2
BITMAP
00016666
6FFFFFFF
00017777
ENDCHAR
STARTCHAR uni257D
ENCODING 9597
SWIDTH 600 0
DWIDTH 7 0
BBX 3 15 2 -4
BITMAP
2B00
2B00
2B00
2B00
2B00
2B00
2B00
8F20
8F20
8F20
8F20
8F20
8F20
8F20
8F20
ENDCHAR
STARTCHAR uni257E
ENCODING 9598
SWIDTH 600 0
DWIDTH 7 0
BBX 8 3 -1 2
BITMAP
36665000
6FFFFFFF
37775000
ENDCHAR
STARTCHAR uni257F
ENCODING 9599
SWIDTH 600 0
DWIDTH 7 0
BBX 3 15 2 -4
BITMAP
8F20
8F20
8F20
8F20
8F20
8F20
8F20
8F20
2B00
2B00
2B00
2B00
2B00
2B00
2B00
ENDCHAR
STARTCHAR uni2580
ENCODING 9600
SWIDTH 600 0
DWIDTH 7 0
BBX 7 8 0 3
BITMAP
FFFFFF90
FFFFFF90
FFFFFF90
FFFFFF90
FFFFFF90
FFFFFF90
FFFFFF90
FFFFFF90
ENDCHAR
STARTCHAR uni2581
ENCODING 9601
SWIDTH 600 0
DWIDTH 7 0
BBX 7 2 0 -4
BITMAP
FFFFFF90
FFFFFF90
ENDCHAR
STARTCHAR uni2582
ENCODING 9602
SWIDTH 600 0
DWIDTH 7 0
BBX 7 3 0 -4
BITMAP
FFFFFF90
FFFFFF90
FFFFFF90
ENDCHAR
STARTCHAR uni2583
ENCODING 9603
SWIDTH 600 0
DWIDTH 7 0
BBX 7 5 0 -4
BITMAP
FFFFFF90
FFFFFF90
FFFFFF90
FFFFFF90
FFFFFF90
ENDCHAR
STARTCHAR uni2584
ENCODING 9604
SWIDTH 600 0
DWIDTH 7 0
BBX 7 7 0 -4
BITMAP
FFFFFF90
FFFFFF90
FFFFFF90
FFFFFF90
FFFFFF90
FFFFFF90
FFFFFF90
ENDCHAR
STARTCHAR uni2585
ENCODING 9605
SWIDTH 600 0
DWIDTH 7 0
BBX 7 9 0 -4
BITMAP
FFFFFF90
FFFFFF90
FFFFFF90
FFFFFF90
FFFFFF90
FFFFFF90
FFFFFF90
FFFFFF90
FFFFFF90
ENDCHAR
STARTCHAR uni2586
ENCODING 9606
SWIDTH 600 0
DWIDTH 7 0
BBX 7 11 0 -4
BITMAP
FFFFFF90
FFFFFF90
FFFFFF90
FFFFFF90
FFFFFF90
FFFFFF90
FFFFFF90
FFFFFF90
FFFFFF90
FFFFFF90
FFFFFF90
ENDCHAR
STARTCHAR uni2587
ENCODING 9607
SWIDTH 600 0
DWIDTH 7 0
BBX 7 13 0 -4
BITMAP
FFFFFF90
FFFFFF90
FFFFFF90
FFFFFF90
FFFFFF90
FFFFFF90
FFFFFF90
FFFFFF90
FFFFFF90
FFFFFF90
FFFFFF90
FFFFFF90
FFFFFF90
ENDCHAR
STARTCHAR uni2588
ENCODING 9608
SWIDTH 600 0
DWIDTH 7 0
BBX 7 15 0 -4
BITMAP
FFFFFF90
FFFFFF90
FFFFFF90
FFFFFF90
FFFFFF90
FFFFFF90
FFFFFF90
FFFFFF90
FFFFFF90
FFFFFF90
FFFFFF90
FFFFFF90
FFFFFF90
FFFFFF90
FFFFFF90
ENDCHAR
STARTCHAR uni2589
ENCODING 9609
SWIDTH 600 0
DWIDTH 7 0
BBX 6 15 0 -4
BITMAP
FFFFFC
FFFFFC
FFFFFC
FFFFFC
FFFFFC
FFFFFC
FFFFFC
FFFFFC
FFFFFC
FFFFFC
FFFFFC
FFFFFC
FFFFFC
FFFFFC
FFFFFC
ENDCHAR
STARTCHAR uni258A
ENCODING 9610
SWIDTH 600 0
DWIDTH 7 0
BBX 5 15 0 -4
BITMAP
FFFFE0
FFFFE0
FFFFE0
FFFFE0
FFFFE0
FFFFE0
FFFFE0
FFFFE0
FFFFE0
FFFFE0
FFFFE0
FFFFE0
FFFFE0
FFFFE0
FFFFE0
ENDCHAR
STARTCHAR uni258B
ENCODING 9611
SWIDTH 600 0
DWIDTH 7 0
BBX 5 15 0 -4
BITMAP
FFFF20
FFFF20
FFFF20
FFFF20
FFFF20
FFFF20
FFFF20
FFFF20
FFFF20
FFFF20
FFFF20
FFFF20
FFFF20
FFFF20
FFFF20
ENDCHAR
STARTCHAR uni258C
ENCODING 9612
SWIDTH 600 0
DWIDTH 7 0
BBX 4 15 0 -4
BITMAP
FFF4
FFF4
FFF4
FFF4
FFF4
FFF4
FFF4
FFF4
FFF4
FFF4
FFF4
FFF4
FFF4
FFF4
FFF4
ENDCHAR
STARTCHAR uni258D
ENCODING 9613
SWIDTH 600 0
DWIDTH 7 0
BBX 3 15 0 -4
BITMAP
FF70
FF70
FF70
FF70
FF70
FF70
FF70
FF70
FF70
FF70
FF70
FF70
FF70
FF70
FF70
ENDCHAR
STARTCHAR uni258E
ENCODING 9614
SWIDTH 600 0
DWIDTH 7 0
BBX 2 15 0 -4
BITMAP
FA
FA
FA
FA
FA
FA
FA
FA
FA
FA
FA
FA
FA
FA
FA
ENDCHAR
STARTCHAR uni258F
ENCODING 9615
SWIDTH 600 0
DWIDTH 7 0
BBX 1 15 0 -4
BITMAP
C0
C0
C0
C0
C0
C0
C0
C0
C0
C0
C0
C0
C0
C0
C0
ENDCHAR
STARTCHAR uni2590
ENCODING 9616
SWIDTH 600 0
DWIDTH 7 0
BBX 4 15 3 -4
BITMAP
BFF9
BFF9
BFF9
BFF9
BFF9
BFF9
BFF9
BFF9
BFF9
BFF9
BFF9
BFF9
BFF9
BFF9
BFF9
ENDCHAR
STARTCHAR uni2591
ENCODING 9617
SWIDTH 600 0
DWIDTH 7 0
BBX 7 15 -1 -5
BITMAP
02406070
11030300
02406060
11030300
02406070
11030300
02406060
11030300
02304040
11212120
11212120
02304040
11030300
02406060
11030300
ENDCHAR
STARTCHAR uni2592
ENCODING 9618
SWIDTH 600 0
DWIDTH 7 0
BBX 7 16 -1 -5
BITMAP
0683B0D0
11111110
34352530
0572A0C0
33250700
0693C0E0
33250700
0572A0C0
34352530
14637290
24445360
24445360
14637190
34352530
0572A0C0
33150700
ENDCHAR
STARTCHAR uni2593
ENCODING 9619
SWIDTH 600 0
DWIDTH 7 0
BBX 8 16 -1 -5
BITMAP
09C6E4E3
2897A7A2
5A9A9B81
1BE8F7F4
7A8B7D60
0BE7F6F5
7A8B7D60
1BE8F7F4
599A8B71
2BD9E8E3
4AB9BAB2
4ABABAB2
2BC9D8D3
5A9A9B81
1BE8F7F4
775A3D10
ENDCHAR
STARTCHAR uni2594
ENCODING 9620
SWIDTH 600 0
DWIDTH 7 0
BBX 7 2 0 9
BITMAP
FFFFFF90
FFFFFF90
ENDCHAR
STARTCHAR uni2595
ENCODING 9621
SWIDTH 600 0
DWIDTH 7 0
BBX 2 15 5 -4
BITMAP
39
39
39
39
39
39
39
39
39
39
39
39
39
39
39
ENDCHAR
STARTCHAR uni2596
ENCODING 9622
SWIDTH 600 0
DWIDTH 7 0
BBX 4 7 0 -4
BITMAP
FFF4
FFF4
FFF4
FFF4
FFF4
FFF4
FFF4
ENDCHAR
STARTCHAR uni2597
ENCODING 9623
SWIDTH 600 0
DWIDTH 7 0
BBX 4 7 3 -4
BITMAP
BFF9
BFF9
BFF9
BFF9
BFF9
BFF9
BFF9
ENDCHAR
STARTCHAR uni2598
ENCODING 9624
SWIDTH 600 0
DWIDTH 7 0
BBX 4 8 0 3
BITMAP
FFF4
FFF4
FFF4
FFF4
FFF4
FFF4
FFF4
FFF4
ENDCHAR
STARTCHAR uni2599
ENCODING 9625
SWIDTH 600 0
DWIDTH 7 0
BBX 7 15 0 -4
BITMAP
FFF40000
FFF40000
FFF40000
FFF40000
FFF40000
FFF40000
FFF40000
FFF40000
FFFFFF90
FFFFFF90
FFFFFF90
FFFFFF90
FFFFFF90
FFFFFF90
FFFFFF90
ENDCHAR
STARTCHAR uni259A
ENCODING 9626
SWIDTH 600 0
DWIDTH 7 0
BBX 7 15 0 -4
BITMAP
FFF40000
FFF40000
FFF40000
FFF40000
FFF40000
FFF40000
FFF40000
FFF40000
000BFF90
000BFF90
000BFF90
000BFF90
000BFF90
000BFF90
000BFF90
ENDCHAR
STARTCHAR uni259B
ENCODING 9627
SWIDTH 600 0
DWIDTH 7 0
BBX 7 15 0 -4
BITMAP
FFFFFF90
FFFFFF90
FFFFFF90
FFFFFF90
FFFFFF90
FFFFFF90
FFFFFF90
FFFFFF90
FFF40000
FFF40000
FFF40000
FFF40000
FFF40000
FFF40000
FFF40000
ENDCHAR
STARTCHAR uni259C
ENCODING 9628
SWIDTH 600 0
DWIDTH 7 0
BBX 7 15 0 -4
BITMAP
FFFFFF90
FFFFFF90
FFFFFF90
FFFFFF90
FFFFFF90
FFFFFF90
FFFFFF90
FFFFFF90
000BFF90
000BFF90
000BFF90
000BFF90
000BFF90
000BFF90
000BFF90
ENDCHAR
STARTCHAR uni259D
ENCODING 9629
SWIDTH 600 0
DWIDTH 7 0
BBX 4 8 3 3
BITMAP
BFF9
BFF9
BFF9
BFF9
BFF9
BFF9
BFF9
BFF9
ENDCHAR
STARTCHAR uni259E
ENCODING 9630
SWIDTH 600 0
DWIDTH 7 0
BBX 7 15 0 -4
BITMAP
000BFF90
000BFF90
000BFF90
000BFF90
000BFF90
000BFF90
000BFF90
000BFF90
FFF40000
FFF40000
FFF40000
FFF40000
FFF40000
FFF40000
FFF40000
ENDCHAR
STARTCHAR uni259F
ENCODING 9631
SWIDTH 600 0
DWIDTH 7 0
BBX 7 15 0 -4
BITMAP
000BFF90
000BFF90
000BFF90
000BFF90
000BFF90
000BFF90
000BFF90
000BFF90
FFFFFF90
FFFFFF90
FFFFFF90
FFFFFF90
FFFFFF90
FFFFFF90
FFFFFF90
ENDCHAR
STARTCHAR uni25A0
ENCODING 9632
SWIDTH 600 0
DWIDTH 7 0
BBX 6 5 0 1
BITMAP
1FFFFA
1FFFFA
1FFFFA
1FFFFA
1FFFFA
ENDCHAR
STARTCHAR uni25A1
ENCODING 9633
SWIDTH 600 0
DWIDTH 7 0
BBX 6 5 0 1
BITMAP
3FFFFC
360009
360009
360009
3FFFFC
ENDCHAR
STARTCHAR uni25AA
ENCODING 9642
SWIDTH 600 0
DWIDTH 7 0
BBX 4 3 1 1
BITMAP
3FFC
3FFC
3FFC
ENDCHAR
STARTCHAR uni25AB
ENCODING 9643
SWIDTH 600 0
DWIDTH 7 0
BBX 4 4 1 1
BITMAP
5FFE
5408
5408
5FFE
ENDCHAR
STARTCHAR filledrect
ENCODING 9644
SWIDTH 600 0
DWIDTH 7 0
BBX 7 1 0 2
BITMAP
FFFFFF90
ENDCHAR
STARTCHAR triagup
ENCODING 9650
SWIDTH 600 0
DWIDTH 7 0
BBX 6 5 0 1
BITMAP
001700
008F20
01EF90
08FFF2
2EFFFA
ENDCHAR
STARTCHAR uni25B3
ENCODING 9651
SWIDTH 600 0
DWIDTH 7 0
BBX 6 6 0 1
BITMAP
000200
002700
005230
023050
050023
2FFFFA
ENDCHAR
STARTCHAR uni25B4
ENCODING 9652
SWIDTH 600 0
DWIDTH 7 0
BBX 4 3 1 2
BITMAP
0180
09F3
3FFC
ENDCHAR
STARTCHAR uni25B5
ENCODING 9653
SWIDTH 600 0
DWIDTH 7 0
BBX 5 4 1 1
BITMAP
003000
034100
040400
7FFE10
ENDCHAR
STARTCHAR uni25B6
ENCODING 9654
SWIDTH 600 0
DWIDTH 7 0
BBX 6 6 0 0
BITMAP
492000
5FFA30
5FFFF9
5FFD60
5D6000
100000
ENDCHAR
STARTCHAR uni25B7
ENCODING 9655
SWIDTH 600 0
DWIDTH 7 0
BBX 6 6 0 0
BITMAP
452000
531220
530299
56AD60
5D6000
100000
ENDCHAR
STARTCHAR uni25B8
ENCODING 9656
SWIDTH 600 0
DWIDTH 7 0
BBX 4 4 1 1
BITMAP
2910
3FE5
3FE6
2910
ENDCHAR
STARTCHAR uni25B9
ENCODING 9657
SWIDTH 600 0
DWIDTH 7 0
BBX 4 4 1 1
BITMAP
4810
5476
5376
4810
ENDCHAR
STARTCHAR triagrt
ENCODING 9658
SWIDTH 600 0
DWIDTH 7 0
BBX 7 6 0 0
BITMAP
A8200000
CFFB5000
CFFFFE50
CFFE8200
BB500000
10000000
ENDCHAR
STARTCHAR triagdn
ENCODING 9660
SWIDTH 600 0
DWIDTH 7 0
BBX 6 6 0 0
BITMAP
2FFFFA
09FFF3
02FFB0
00AF30
002B00
000100
ENDCHAR
STARTCHAR uni25BD
ENCODING 9661
SWIDTH 600 0
DWIDTH 7 0
BBX 6 6 0 0
BITMAP
2FFFFA
050023
023050
005230
002700
000100
ENDCHAR
STARTCHAR uni25BE
ENCODING 9662
SWIDTH 600 0
DWIDTH 7 0
BBX 4 3 1 1
BITMAP
3FFC
09F3
0180
ENDCHAR
STARTCHAR uni25BF
ENCODING 9663
SWIDTH 600 0
DWIDTH 7 0
BBX 5 4 1 1
BITMAP
7FFE20
040400
034100
003000
ENDCHAR
STARTCHAR uni25C0
ENCODING 9664
SWIDTH 600 0
DWIDTH 7 0
BBX 6 6 0 0
BITMAP
00005B
006DFE
2DFFFE
029FFE
00028D
000001
ENDCHAR
STARTCHAR uni25C1
ENCODING 9665
SWIDTH 600 0
DWIDTH 7 0
BBX 6 6 0 0
BITMAP
000038
002208
2C6008
029D79
00028D
000001
ENDCHAR
STARTCHAR uni25C2
ENCODING 9666
SWIDTH 600 0
DWIDTH 7 0
BBX 4 4 1 1
BITMAP
0049
19FC
1AFC
0049
ENDCHAR
STARTCHAR uni25C3
ENCODING 9667
SWIDTH 600 0
DWIDTH 7 0
BBX 4 4 1 1
BITMAP
004A
2857
2857
004A
ENDCHAR
STARTCHAR triaglf
ENCODING 9668
SWIDTH 600 0
DWIDTH 7 0
BBX 8 6 -1 0
BITMAP
000004A5
0027DFF6
19FFFFF6
005BFFF6
000028D6
00000001
ENDCHAR
STARTCHAR uni25C6
ENCODING 9670
SWIDTH 600 0
DWIDTH 7 0
BBX 6 6 0 1
BITMAP
004B10
03EFB0
3EFFFB
3EFFFB
03EFB0
004B10
ENDCHAR
STARTCHAR uni25C9
ENCODING 9673
SWIDTH 600 0
DWIDTH 7 0
BBX 6 6 0 1
BITMAP
04CEA1
1B3169
54BE59
57FFC9
2CFFD9
04DFA1
ENDCHAR
STARTCHAR lozenge
ENCODING 9674
SWIDTH 600 0
DWIDTH 7 0
BBX 5 7 1 0
BITMAP
06E100
0C7800
660B10
C10660
660B10
0C7800
06E100
ENDCHAR
STARTCHAR uni25CB
ENCODING 9675
SWIDTH 600 0
DWIDTH 7 0
BBX 6 5 0 1
BITMAP
04DEA1
1B2159
46000A
1B2159
05DEA1
ENDCHAR
STARTCHAR uni25CC
ENCODING 9676
SWIDTH 600 0
DWIDTH 7 0
BBX 6 5 0 0
BITMAP
036880
180008
540008
180008
036880
ENDCHAR
STARTCHAR uni25CF
ENCODING 9679
SWIDTH 600 0
DWIDTH 7 0
BBX 6 5 0 1
BITMAP
04CEA1
0EFFF8
2FFFFB
0EFFF8
04CEA1
ENDCHAR
STARTCHAR invbullet
ENCODING 9688
SWIDTH 600 0
DWIDTH 7 0
BBX 4 4 1 1
BITMAP
5FFE
4317
4306
5FFE
ENDCHAR
STARTCHAR invcircle
ENCODING 9689
SWIDTH 600 0
DWIDTH 7 0
BBX 6 5 0 1
BITMAP
4B897C
36FFE5
18FFF3
34FFC4
4B455C
ENDCHAR
STARTCHAR uni25E6
ENCODING 9702
SWIDTH 600 0
DWIDTH 7 0
BBX 4 4 1 1
BITMAP
1BE6
661B
661B
1BE6
ENDCHAR
STARTCHAR uni2610
ENCODING 9744
SWIDTH 600 0
DWIDTH 7 0
BBX 8 7 -1 0
BITMAP
2EFFFFFD
4300000C
4300000C
4300000C
4300000C
4300000C
4FFFFFFA
ENDCHAR
STARTCHAR uni2611
ENCODING 9745
SWIDTH 600 0
DWIDTH 7 0
BBX 9 10 -1 -1
BITMAP
0000000020
0000000960
2EFFFFFD00
430001CD00
4361095C00
43572B0C00
430A940C00
4307D00C00
4300000A00
0333333000
ENDCHAR
STARTCHAR uni2615
ENCODING 9749
SWIDTH 600 0
DWIDTH 7 0
BBX 9 7 -1 0
BITMAP
05CEE91000
2CDFEB8000
5B83CC7800
45CFE79710
2800003B00
0A512AE500
01BFD70000
ENDCHAR
STARTCHAR smileface
ENCODING 9786
SWIDTH 600 0
DWIDTH 7 0
BBX 7 7 0 0
BITMAP
06DFB200
5A214C00
91F4B550
94417270
91BE6550
5A214C10
06DEB200
ENDCHAR
STARTCHAR invsmileface
ENCODING 9787
SWIDTH 600 0
DWIDTH 7 0
BBX 7 5 0 1
BITMAP
07DEB300
6F8D9E10
ABBE7F30
6E419E10
07DEB300
ENDCHAR
STARTCHAR sun
ENCODING 9788
SWIDTH 600 0
DWIDTH 7 0
BBX 7 7 0 0
BITMAP
001A0000
281A1900
0AFFF400
FE318FA0
09307400
2B9FC700
111A0500
ENDCHAR
STARTCHAR female
ENCODING 9792
SWIDTH 600 0
DWIDTH 7 0
BBX 6 9 0 -1
BITMAP
03CE91
1C4188
47000B
47000B
1D3188
04DFA1
09FFF3
001A00
000400
ENDCHAR
STARTCHAR male
ENCODING 9794
SWIDTH 600 0
DWIDTH 7 0
BBX 8 7 -1 0
BITMAP
00004FFB
00000289
03BECA09
0C414D00
1A000A10
0C414C00
03CEC300
ENDCHAR
STARTCHAR spade
ENCODING 9824
SWIDTH 600 0
DWIDTH 7 0
BBX 7 8 0 0
BITMAP
004B1000
04FFC100
2EFFFB00
BFFFFF40
DFFFFF70
6B8CAB20
01BF6000
0DFFF700
ENDCHAR
STARTCHAR club
ENCODING 9827
SWIDTH 600 0
DWIDTH 7 0
BBX 7 8 0 0
BITMAP
01BE7000
04FFD000
02DF9000
8FFFFE30
DFFFFF70
5B9CAA10
01AF5000
0DFFF700
ENDCHAR
STARTCHAR heart
ENCODING 9829
SWIDTH 600 0
DWIDTH 7 0
BBX 7 8 0 0
BITMAP
5EB4EC10
CFFEFF60
DFFFFF70
BFFFFF50
5FFFFE00
0BFFF500
02EF9000
003B0000
ENDCHAR
STARTCHAR diamond
ENCODING 9830
SWIDTH 600 0
DWIDTH 7 0
BBX 7 8 0 0
BITMAP
003A0000
01DF8000
0BFFF500
8FFFFE30
8FFFFE30
0BFFF500
01DF8000
003A0000
ENDCHAR
STARTCHAR musicalnote
ENCODING 9834
SWIDTH 600 0
DWIDTH 7 0
BBX 6 8 0 0
BITMAP
000B40
000AD4
00091A
000908
000903
000900
0AEB00
1DD400
ENDCHAR
STARTCHAR musicalnotedbl
ENCODING 9835
SWIDTH 600 0
DWIDTH 7 0
BBX 7 8 0 0
BITMAP
0048AD70
00AECA80
00900180
00900180
00900180
0092CE70
8ED4EC20
BE600000
ENDCHAR
STARTCHAR uni2713
ENCODING 10003
SWIDTH 600 0
DWIDTH 7 0
BBX 7 9 0 -1
BITMAP
00000570
00003B10
0000B200
00075000
901B0000
75650000
0BA00000
09A00000
01000000
ENDCHAR
STARTCHAR uni2752
ENCODING 10066
SWIDTH 600 0
DWIDTH 7 0
BBX 6 5 0 1
BITMAP
2EFFFC
34000B
34000B
34000B
3FFFF9
ENDCHAR
STARTCHAR uni2764
ENCODING 10084
SWIDTH 600 0
DWIDTH 7 0
BBX 9 7 -1 0
BITMAP
2CEA3DE900
AFFFEFFF40
BFFFFFFF50
7FFFFFFF20
0BFFFFF500
006EFC2000
0003A00000
ENDCHAR
STARTCHAR uni27E6
ENCODING 10214
SWIDTH 600 0
DWIDTH 7 0
BBX 4 10 2 -2
BITMAP
DFF8
9800
9800
9800
9800
9800
9800
9800
9800
DFF8
ENDCHAR
STARTCHAR uni27E7
ENCODING 10215
SWIDTH 600 0
DWIDTH 7 0
BBX 4 10 1 -2
BITMAP
EFD8
0088
0088
0088
0088
0088
0088
0088
0088
EFE8
ENDCHAR
STARTCHAR uni2E18
ENCODING 11800
SWIDTH 600 0
DWIDTH 7 0
BBX 5 7 1 -2
BITMAP
02E100
02E200
000000
02C000
38B000
A51540
4DFA10
ENDCHAR
STARTCHAR uni2E22
ENCODING 11810
SWIDTH 600 0
DWIDTH 7 0
BBX 4 6 2 2
BITMAP
8FF8
8300
8300
8300
8300
2100
ENDCHAR
STARTCHAR uni2E23
ENCODING 11811
SWIDTH 600 0
DWIDTH 7 0
BBX 4 6 1 2
BITMAP
EFF2
0092
0092
0092
0092
0010
ENDCHAR
STARTCHAR uni2E24
ENCODING 11812
SWIDTH 600 0
DWIDTH 7 0
BBX 4 6 2 -2
BITMAP
2100
8300
8300
8300
8300
8FF8
ENDCHAR
STARTCHAR uni2E25
ENCODING 11813
SWIDTH 600 0
DWIDTH 7 0
BBX 4 6 1 -2
BITMAP
0020
0092
0092
0092
0092
EFF2
ENDCHAR
STARTCHAR uniE0A0
ENCODING 57504
SWIDTH 600 0
DWIDTH 7 0
BBX 6 15 1 -3
BITMAP
D00000
D00110
D00AA0
D05EE5
D00770
D00770
D00760
B00B40
008C00
1C9100
A70000
D10000
D00000
D00000
D00000
ENDCHAR
STARTCHAR uniE0A1
ENCODING 57505
SWIDTH 600 0
DWIDTH 7 0
BBX 6 12 0 -2
BITMAP
1B0000
1B0000
1B0000
1B0000
1FFF30
000000
000000
00D42A
00AA2A
00B75A
00C1AA
00C07A
ENDCHAR
STARTCHAR uniE0A2
ENCODING 57506
SWIDTH 600 0
DWIDTH 7 0
BBX 7 11 0 -1
BITMAP
01BE6000
0681C000
08309200
08309200
08309200
6FFFFE10
8F91EF20
8F82EF20
8FE4FF20
8FC3FF20
6FFFFE10
ENDCHAR
STARTCHAR uniE0B0
ENCODING 57520
SWIDTH 600 0
DWIDTH 7 0
BBX 7 15 0 -3
BITMAP
70000000
F5000000
FF300000
FFE20000
FFFD1000
FFFFC100
FFFFFA00
FFFFFF60
FFFFFB00
FFFFC100
FFFD1000
FFE20000
FF300000
F5000000
70000000
ENDCHAR
STARTCHAR uniE0B1
ENCODING 57521
SWIDTH 600 0
DWIDTH 7 0
BBX 7 13 0 -2
BITMAP
A1000000
3B100000
03B10000
003B1000
0004B100
00004A00
00000870
00004A00
0004B100
003B1000
03B10000
3B100000
A1000000
ENDCHAR
STARTCHAR uniE0B2
ENCODING 57522
SWIDTH 600 0
DWIDTH 7 0
BBX 7 15 0 -3
BITMAP
00000070
000009B0
00008FB0
0006FFB0
005FFFB0
04FFFFB0
2EFFFFB0
CFFFFFB0
3EFFFFB0
04FFFFB0
005FFFB0
0006FFB0
00008FB0
000009B0
00000070
ENDCHAR
STARTCHAR uniE0B3
ENCODING 57523
SWIDTH 600 0
DWIDTH 7 0
BBX 7 13 0 -2
BITMAP
00000560
00005A00
0004A000
004B0000
04B10000
3B100000
D2000000
3B100000
04B10000
004B0000
0004A000
00005A00
00000560
ENDCHAR
STARTCHAR f_i
ENCODING 64257
SWIDTH 600 0
DWIDTH 7 0
BBX 6 8 0 0
BITMAP
04E900
0A5178
0B3000
6FF577
0B3077
0B3077
0B3077
0B3077
ENDCHAR
STARTCHAR f_l
ENCODING 64258
SWIDTH 600 0
DWIDTH 7 0
BBX 6 8 0 0
BITMAP
03EA95
096195
0A4095
5FF695
0A4095
0A4095
0A4095
0A406C
ENDCHAR
STARTCHAR uniFE0E
ENCODING 65038
SWIDTH 600 0
DWIDTH 7 0
BBX 7 7 0 0
BITMAP
68998830
90000360
A8508A60
00909000
00909000
00909000
00995000
ENDCHAR
STARTCHAR uniFE0F
ENCODING 65039
SWIDTH 600 0
DWIDTH 7 0
BBX 7 7 0 0
BITMAP
02886000
05001400
77DB9550
E5A1D4B0
73455820
05001400
02886000
ENDCHAR
STARTCHAR uniFEFF
ENCODING 65279
SWIDTH 600 0
DWIDTH 7 0
BBX 1 1 0 0
BITMAP
00
ENDCHAR
STARTCHAR u1F3B5
ENCODING 127925
SWIDTH 600 0
DWIDTH 7 0
BBX 6 8 0 0
BITMAP
000B40
000AD4
00091A
000908
000903
000900
0AEB00
1DD400
ENDCHAR
STARTCHAR u1F3B6
ENCODING 127926
SWIDTH 600 0
DWIDTH 7 0
BBX 7 8 0 0
BITMAP
0048AD70
00AECA80
00900180
00900180
00900180
0092CE70
8ED4EC20
BE600000
ENDCHAR
STARTCHAR u1F4A9
ENCODING 128169
SWIDTH 600 0
DWIDTH 7 0
BBX 7 7 0 0
BITMAP
017B6000
06FFF000
2DFFF900
6B8B9F00
6FFFFD20
FE206F80
8DFFEC30
ENDCHAR
STARTCHAR u1F512
ENCODING 128274
SWIDTH 600 0
DWIDTH 7 0
BBX 7 11 0 -1
BITMAP
01BE6000
0681C000
08309200
08309200
08309200
6FFFFE10
8F91EF20
8F82EF20
8FE4FF20
8FC3FF20
6FFFFE10
ENDCHAR
STARTCHAR u1F916
ENCODING 129302
SWIDTH 600 0
DWIDTH 7 0
BBX 8 7 -1 0
BITMAP
008DEC40
07CFFEC1
1A88A899
4B7EFD4D
1C000059
05A394B0
006DEB20
ENDCHAR
STARTCHAR .notdef
ENCODING -1
SWIDTH 600 0
DWIDTH 7 0
BBX 6 7 0 0
BITMAP
5FFFFD
59507B
56863B
56571B
56716B
5C207C
5FFFFE
ENDCHAR
STARTCHAR uni00470303
ENCODING -1
SWIDTH 600 0
DWIDTH 7 0
BBX 6 10 0 0
BITMAP
01DA37
0367E3
000000
02AED4
0D7135
4B0000
6906FD
4B000D
0D612D
02BED6
ENDCHAR
STARTCHAR uni004C00B7004C
ENCODING -1
SWIDTH 600 0
DWIDTH 7 0
BBX 7 7 0 0
BITMAP
4903A000
4903A000
49D9A000
49D9A000
4903A000
4903A000
4FF3FF10
ENDCHAR
STARTCHAR uni01320301
ENCODING -1
SWIDTH 600 0
DWIDTH 7 0
BBX 6 12 1 -2
BITMAP
2A01A1
920840
000000
C20860
C20860
C20860
C20860
C20860
C20860
C20860
000A50
00DC10
ENDCHAR
STARTCHAR uni00670303
ENCODING -1
SWIDTH 600 0
DWIDTH 7 0
BBX 7 11 0 -2
BITMAP
00201100
04D97300
0729C000
00000000
04DFFF30
0D31B200
09DBD100
0A441000
09FFFB10
2B102D20
0AEFC500
ENDCHAR
STARTCHAR uni006C00B7006C
ENCODING -1
SWIDTH 600 0
DWIDTH 7 0
BBX 8 8 -1 0
BITMAP
1FE0AF50
00C00750
00C00750
00C6D850
00C6D850
00C00750
00D20771
007E42DA
ENDCHAR
STARTCHAR uni01330301
ENCODING -1
SWIDTH 600 0
DWIDTH 7 0
BBX 6 10 1 -2
BITMAP
2A0093
A20660
000000
C20580
C20580
C20580
C20580
C20580
000780
009E30
ENDCHAR
STARTCHAR uni014A.a
ENCODING -1
SWIDTH 600 0
DWIDTH 7 0
BBX 6 9 0 -2
BITMAP
1F303B
1DA03B
1BA33B
1C3B3B
1C096B
1C02CB
1C009B
00004A
0004E5
ENDCHAR
STARTCHAR a.a
ENCODING -1
SWIDTH 600 0
DWIDTH 7 0
BBX 6 5 0 0
BITMAP
05DEA9
2D3199
5A0059
2D21A9
07ED99
ENDCHAR
STARTCHAR agrave.a
ENCODING -1
SWIDTH 600 0
DWIDTH 7 0
BBX 6 8 0 0
BITMAP
00A200
002900
000000
05DEA9
2D3199
5A0059
2D21A9
07ED99
ENDCHAR
STARTCHAR aacute.a
ENCODING -1
SWIDTH 600 0
DWIDTH 7 0
BBX 6 8 0 0
BITMAP
000580
002910
000000
05DEA9
2D3199
5A0059
2D21A9
07ED99
ENDCHAR
STARTCHAR acircumflex.a
ENCODING -1
SWIDTH 600 0
DWIDTH 7 0
BBX 6 8 0 0
BITMAP
007D30
028190
000000
05DEA9
2D3199
5A0059
2D21A9
07ED99
ENDCHAR
STARTCHAR atilde.a
ENCODING -1
SWIDTH 600 0
DWIDTH 7 0
BBX 6 9 0 0
BITMAP
003011
04D882
0729C0
000000
05DEA9
2D3199
5A0059
2D21A9
07ED99
ENDCHAR
STARTCHAR adieresis.a
ENCODING -1
SWIDTH 600 0
DWIDTH 7 0
BBX 6 8 0 0
BITMAP
03A1C0
000000
000000
05DEA9
2D3199
5A0059
2D21A9
07ED99
ENDCHAR
STARTCHAR amacron.a
ENCODING -1
SWIDTH 600 0
DWIDTH 7 0
BBX 6 7 0 0
BITMAP
02FFC0
000000
05DEA9
2D3199
5A0059
2D21A9
07ED99
ENDCHAR
STARTCHAR abreve.a
ENCODING -1
SWIDTH 600 0
DWIDTH 7 0
BBX 6 8 0 0
BITMAP
0471B0
00BE60
000000
05DEA9
2D3199
5A0059
2D21A9
07ED99
ENDCHAR
STARTCHAR aring.a
ENCODING -1
SWIDTH 600 0
DWIDTH 7 0
BBX 6 9 0 0
BITMAP
008E40
00A480
008E40
000000
05DEA9
2D3199
5A0059
2D21A9
07ED99
ENDCHAR
STARTCHAR aringacute.a
ENCODING -1
SWIDTH 600 0
DWIDTH 7 0
BBX 6 9 0 0
BITMAP
000530
008350
009E50
000000
05DD79
2D3189
5A0059
2D2199
07ED99
ENDCHAR
STARTCHAR uni01CE.a
ENCODING -1
SWIDTH 600 0
DWIDTH 7 0
BBX 6 8 0 0
BITMAP
028190
007D30
000000
05DEA9
2D3199
5A0059
2D21A9
07ED99
ENDCHAR
STARTCHAR uni1EA1.a
ENCODING -1
SWIDTH 600 0
DWIDTH 7 0
BBX 6 7 0 -2
BITMAP
05DEA9
2D3199
5A0059
2D21A9
07ED99
000000
003C00
ENDCHAR
STARTCHAR uni1EA3.a
ENCODING -1
SWIDTH 600 0
DWIDTH 7 0
BBX 6 9 0 0
BITMAP
005B00
000A30
001B00
000000
05DEA9
2D3199
5A0059
2D21A9
07ED99
ENDCHAR
STARTCHAR uni1EA5.a
ENCODING -1
SWIDTH 600 0
DWIDTH 7 0
BBX 6 9 0 0
BITMAP
000009
000053
008850
000000
05DEA9
2D3199
5A0059
2D21A9
07ED99
ENDCHAR
STARTCHAR uni1EA7.a
ENCODING -1
SWIDTH 600 0
DWIDTH 7 0
BBX 6 9 0 0
BITMAP
270000
081000
008850
000000
05DEA9
2D3199
5A0059
2D21A9
07ED99
ENDCHAR
STARTCHAR uni1EA9.a
ENCODING -1
SWIDTH 600 0
DWIDTH 7 0
BBX 6 10 0 0
BITMAP
0000A5
000039
000064
008850
000000
05DEA9
2D3199
5A0059
2D21A9
07ED99
ENDCHAR
STARTCHAR uni1EAB.a
ENCODING -1
SWIDTH 600 0
DWIDTH 7 0
BBX 6 10 0 0
BITMAP
00B670
017B80
000000
008850
000000
05DEA9
2D3199
5A0059
2D21A9
07ED99
ENDCHAR
STARTCHAR uni1EAD.a
ENCODING -1
SWIDTH 600 0
DWIDTH 7 0
BBX 6 10 0 -2
BITMAP
007D30
028190
000000
05DEA9
2D3199
5A0059
2D21A9
07ED99
000000
003C00
ENDCHAR
STARTCHAR uni1EAF.a
ENCODING -1
SWIDTH 600 0
DWIDTH 7 0
BBX 6 10 0 0
BITMAP
000730
001900
0471A0
00BE60
000000
05DEA9
2D3199
5A0059
2D21A9
07ED99
ENDCHAR
STARTCHAR uni1EB1.a
ENCODING -1
SWIDTH 600 0
DWIDTH 7 0
BBX 6 10 0 0
BITMAP
007300
001800
0471A0
00BE60
000000
05DEA9
2D3199
5A0059
2D21A9
07ED99
ENDCHAR
STARTCHAR uni1EB3.a
ENCODING -1
SWIDTH 600 0
DWIDTH 7 0
BBX 6 11 0 0
BITMAP
004B00
000A20
000B10
0471A0
00BE60
000000
05DEA9
2D3199
5A0059
2D21A9
07ED99
ENDCHAR
STARTCHAR uni1EB5.a
ENCODING -1
SWIDTH 600 0
DWIDTH 7 0
BBX 6 10 0 0
BITMAP
00B670
028B90
0291A0
009E50
000000
05DEA9
2D3199
5A0059
2D21A9
07ED99
ENDCHAR
STARTCHAR uni1EB7.a
ENCODING -1
SWIDTH 600 0
DWIDTH 7 0
BBX 6 10 0 -2
BITMAP
0471B0
00BE60
000000
05DEA9
2D3199
5A0059
2D21A9
07ED99
000000
003C00
ENDCHAR
STARTCHAR aogonek.a
ENCODING -1
SWIDTH 600 0
DWIDTH 7 0
BBX 6 8 0 -3
BITMAP
05DEA9
2D3199
5A0059
2D21A9
07ED99
000072
0001A1
0000DA
ENDCHAR
STARTCHAR g.a
ENCODING -1
SWIDTH 600 0
DWIDTH 7 0
BBX 6 7 0 -2
BITMAP
05DE99
2D3199
590059
2D21A9
07EDA9
041197
07EEA1
ENDCHAR
STARTCHAR uni01F5.a
ENCODING -1
SWIDTH 600 0
DWIDTH 7 0
BBX 6 10 0 -2
BITMAP
000490
001A10
000000
05DE99
2D3199
590059
2D21A9
07EDA9
041197
07EEA1
ENDCHAR
STARTCHAR gcircumflex.a
ENCODING -1
SWIDTH 600 0
DWIDTH 7 0
BBX 6 10 0 -2
BITMAP
006D40
018190
000000
05DE99
2D3199
590059
2D21A9
07EDA9
041197
07EEA1
ENDCHAR
STARTCHAR gbreve.a
ENCODING -1
SWIDTH 600 0
DWIDTH 7 0
BBX 6 10 0 -2
BITMAP
0381B1
00AE70
000000
05DE99
2D3199
590059
2D21A9
07EDA9
041197
07EEA1
ENDCHAR
STARTCHAR gdotaccent.a
ENCODING -1
SWIDTH 600 0
DWIDTH 7 0
BBX 6 10 0 -2
BITMAP
002D00
000000
000000
05DE99
2D3199
590059
2D21A9
07EDA9
041197
07EEA1
ENDCHAR
STARTCHAR uni0123.a
ENCODING -1
SWIDTH 600 0
DWIDTH 7 0
BBX 6 10 0 -2
BITMAP
003D60
004D00
000000
05DE99
2D3199
590059
2D21A9
07EDA9
041197
07EEA1
ENDCHAR
STARTCHAR gcaron.a
ENCODING -1
SWIDTH 600 0
DWIDTH 7 0
BBX 6 10 0 -2
BITMAP
018190
006D40
000000
05DE99
2D3199
590059
2D21A9
07EDA9
041197
07EEA1
ENDCHAR
STARTCHAR uni1E21.a
ENCODING -1
SWIDTH 600 0
DWIDTH 7 0
BBX 6 9 0 -2
BITMAP
01FFD0
000000
05DE99
2D3199
590059
2D21A9
07EDA9
041197
07EEA1
ENDCHAR
STARTCHAR uni00670303.a
ENCODING -1
SWIDTH 600 0
DWIDTH 7 0
BBX 6 11 0 -2
BITMAP
002011
03D973
0638C0
000000
05DE99
2D3199
590059
2D21A9
07EDA9
041197
07EEA1
ENDCHAR
STARTCHAR i.a
ENCODING -1
SWIDTH 600 0
DWIDTH 7 0
BBX 6 8 1 0
BITMAP
00D300
000000
000000
AFF200
00B200
00B200
00B200
EFFFF3
ENDCHAR
STARTCHAR dotlessi.a
ENCODING -1
SWIDTH 600 0
DWIDTH 7 0
BBX 6 5 1 0
BITMAP
AFF200
00B200
00B200
00B200
EFFFF3
ENDCHAR
STARTCHAR igrave.a
ENCODING -1
SWIDTH 600 0
DWIDTH 7 0
BBX 6 8 1 0
BITMAP
093000
01A100
000000
AFF200
00B200
00B200
00B200
EFFFF3
ENDCHAR
STARTCHAR iacute.a
ENCODING -1
SWIDTH 600 0
DWIDTH 7 0
BBX 6 8 1 0
BITMAP
002A00
00A200
000000
AFF200
00B200
00B200
00B200
EFFFF3
ENDCHAR
STARTCHAR icircumflex.a
ENCODING -1
SWIDTH 600 0
DWIDTH 7 0
BBX 6 8 1 0
BITMAP
04D600
090810
000000
AFF200
00B200
00B200
00B200
EFFFF3
ENDCHAR
STARTCHAR itilde.a
ENCODING -1
SWIDTH 600 0
DWIDTH 7 0
BBX 6 9 1 0
BITMAP
020010
2DB560
456D20
000000
AFF200
00B200
00B200
00B200
EFFFF3
ENDCHAR
STARTCHAR idieresis.a
ENCODING -1
SWIDTH 600 0
DWIDTH 7 0
BBX 6 8 1 0
BITMAP
0C0B20
000000
000000
AFF200
00B200
00B200
00B200
EFFFF3
ENDCHAR
STARTCHAR imacron.a
ENCODING -1
SWIDTH 600 0
DWIDTH 7 0
BBX 6 7 1 0
BITMAP
0DFF00
000000
AFF200
00B200
00B200
00B200
EFFFF3
ENDCHAR
STARTCHAR uni01D0.a
ENCODING -1
SWIDTH 600 0
DWIDTH 7 0
BBX 6 8 1 0
BITMAP
090810
04D600
000000
AFF200
00B200
00B200
00B200
EFFFF3
ENDCHAR
STARTCHAR iogonek.a
ENCODING -1
SWIDTH 600 0
DWIDTH 7 0
BBX 6 11 1 -3
BITMAP
01D200
000000
000000
AFF200
00B200
00B200
00B200
EFFFF3
009000
047100
02E800
ENDCHAR
STARTCHAR uni1EC9.a
ENCODING -1
SWIDTH 600 0
DWIDTH 7 0
BBX 6 9 1 0
BITMAP
02D200
007600
00B200
000000
AFF200
00B200
00B200
00B200
EFFFF3
ENDCHAR
STARTCHAR uni1ECB.a
ENCODING -1
SWIDTH 600 0
DWIDTH 7 0
BBX 6 10 1 -2
BITMAP
00D300
000000
000000
AFF200
00B200
00B200
00B200
EFFFF3
000000
01D200
ENDCHAR
STARTCHAR uni012D.a
ENCODING -1
SWIDTH 600 0
DWIDTH 7 0
BBX 6 8 1 0
BITMAP
1A1930
08E900
000000
AFF200
00B200
00B200
00B200
EFFFF3
ENDCHAR
STARTCHAR uni0268.a
ENCODING -1
SWIDTH 600 0
DWIDTH 7 0
BBX 6 8 1 0
BITMAP
00D300
000000
000000
AFF200
00B200
AEFFF0
00B200
EFFFF3
ENDCHAR
STARTCHAR iogonek.d
ENCODING -1
SWIDTH 600 0
DWIDTH 7 0
BBX 4 8 1 -3
BITMAP
FFF6
0086
0086
0086
0086
0081
0381
01DA
ENDCHAR
STARTCHAR iogonek.da
ENCODING -1
SWIDTH 600 0
DWIDTH 7 0
BBX 6 8 1 -3
BITMAP
AFF200
00B200
00B200
00B200
EFFFF3
009000
047100
02E800
ENDCHAR
STARTCHAR uni0268.d
ENCODING -1
SWIDTH 600 0
DWIDTH 7 0
BBX 6 5 1 0
BITMAP
FFF600
008600
8EFFF3
008600
008600
ENDCHAR
STARTCHAR uni0268.da
ENCODING -1
SWIDTH 600 0
DWIDTH 7 0
BBX 6 5 1 0
BITMAP
AFF200
00B200
AEFFF0
00B200
EFFFF3
ENDCHAR
STARTCHAR uni029D.d
ENCODING -1
SWIDTH 600 0
DWIDTH 7 0
BBX 6 8 0 -3
BITMAP
0FFF60
000860
000860
000860
2DED50
583E70
1CE8C0
000082
ENDCHAR
STARTCHAR l.a
ENCODING -1
SWIDTH 600 0
DWIDTH 7 0
BBX 6 8 1 0
BITMAP
AFF200
00B200
00B200
00B200
00B200
00B200
00B200
EFFFF3
ENDCHAR
STARTCHAR lacute.a
ENCODING -1
SWIDTH 600 0
DWIDTH 7 0
BBX 6 11 1 0
BITMAP
002A00
00A200
000000
AFF200
00B200
00B200
00B200
00B200
00B200
00B200
EFFFF3
ENDCHAR
STARTCHAR lcaron.a
ENCODING -1
SWIDTH 600 0
DWIDTH 7 0
BBX 6 9 1 0
BITMAP
0001B0
AFF3B0
00B3A0
00B200
00B200
00B200
00B200
00B200
EFFFF3
ENDCHAR
STARTCHAR uni013C.a
ENCODING -1
SWIDTH 600 0
DWIDTH 7 0
BBX 6 11 1 -3
BITMAP
AFF200
00B200
00B200
00B200
00B200
00B200
00B200
EFFFF3
00C300
007600
06C200
ENDCHAR
STARTCHAR uni1E37.a
ENCODING -1
SWIDTH 600 0
DWIDTH 7 0
BBX 6 10 1 -2
BITMAP
AFF200
00B200
00B200
00B200
00B200
00B200
00B200
EFFFF3
000000
00D300
ENDCHAR
STARTCHAR uni1E39.a
ENCODING -1
SWIDTH 600 0
DWIDTH 7 0
BBX 6 12 1 -2
BITMAP
0CFF20
000000
AFF200
00B200
00B200
00B200
00B200
00B200
00B200
EFFFF3
000000
00D300
ENDCHAR
STARTCHAR uni1E3B.a
ENCODING -1
SWIDTH 600 0
DWIDTH 7 0
BBX 6 10 1 -2
BITMAP
AFF200
00B200
00B200
00B200
00B200
00B200
00B200
EFFFF3
000000
0DFF10
ENDCHAR
STARTCHAR lslash.a
ENCODING -1
SWIDTH 600 0
DWIDTH 7 0
BBX 6 8 1 0
BITMAP
AFF200
00B200
00B590
02D910
1AC200
00B200
00B200
EFFFF3
ENDCHAR
STARTCHAR ldot.a
ENCODING -1
SWIDTH 600 0
DWIDTH 7 0
BBX 7 8 0 0
BITMAP
3FF90000
00590000
00590000
005904B0
00590000
00590000
00590000
7FFFF900
ENDCHAR
STARTCHAR uni006C00B7006C.a
ENCODING -1
SWIDTH 600 0
DWIDTH 7 0
BBX 8 8 -1 0
BITMAP
0FF08F70
00C00670
00C00670
00C00670
00C3C670
00C00670
00C00670
1FFFAFFA
ENDCHAR
STARTCHAR uni026B.a
ENCODING -1
SWIDTH 600 0
DWIDTH 7 0
BBX 6 8 1 0
BITMAP
AFF200
02C210
2DF4A0
44FF60
00B200
00B200
00B200
EFFFF3
ENDCHAR
STARTCHAR uni026C.a
ENCODING -1
SWIDTH 600 0
DWIDTH 7 0
BBX 6 8 1 0
BITMAP
AFF200
00B200
4EE200
73D200
3DFFB0
00B200
00B200
EFFFF3
ENDCHAR
STARTCHAR phi.a
ENCODING -1
SWIDTH 600 0
DWIDTH 7 0
BBX 7 7 0 -2
BITMAP
0A19E800
681D1D10
852B0B20
5B3B4D00
08EFC300
002B0000
002C0000
ENDCHAR
STARTCHAR anoteleia.cap
ENCODING -1
SWIDTH 600 0
DWIDTH 7 0
BBX 3 2 2 6
BITMAP
6E10
6E10
ENDCHAR
STARTCHAR uni0430.a
ENCODING -1
SWIDTH 600 0
DWIDTH 7 0
BBX 6 5 0 0
BITMAP
05DEA9
2D3199
5A0059
2D21A9
07ED99
ENDCHAR
STARTCHAR uni04D1.a
ENCODING -1
SWIDTH 600 0
DWIDTH 7 0
BBX 6 8 0 0
BITMAP
0581C0
00BE70
000000
05DEA9
2D3199
5A0059
2D21A9
07ED99
ENDCHAR
STARTCHAR uni0431.srb
ENCODING -1
SWIDTH 600 0
DWIDTH 7 0
BBX 5 8 1 0
BITMAP
069B80
6C6410
1A4000
18B800
A30760
C00390
D41A70
3DEA10
ENDCHAR
STARTCHAR uni0456.a
ENCODING -1
SWIDTH 600 0
DWIDTH 7 0
BBX 6 8 1 0
BITMAP
00D300
000000
000000
AFF200
00B200
00B200
00B200
EFFFF3
ENDCHAR
STARTCHAR zero.a
ENCODING -1
SWIDTH 600 0
DWIDTH 7 0
BBX 6 7 0 0
BITMAP
03CE90
0C61A6
2BB13B
3A2A1C
2C069A
0C51C6
03CE90
ENDCHAR
STARTCHAR one.a
ENCODING -1
SWIDTH 600 0
DWIDTH 7 0
BBX 5 7 1 0
BITMAP
06F000
57E000
00E000
00E000
00E000
00E000
EFFFC0
ENDCHAR
STARTCHAR zero.onum
ENCODING -1
SWIDTH 600 0
DWIDTH 7 0
BBX 6 6 0 0
BITMAP
04DEA1
0D5598
2A4C1B
2B002B
0D4198
04DEA1
ENDCHAR
STARTCHAR one.onum
ENCODING -1
SWIDTH 600 0
DWIDTH 7 0
BBX 5 6 1 0
BITMAP
4BF000
11E000
00E000
00E000
00E000
EFFFC0
ENDCHAR
STARTCHAR two.onum
ENCODING -1
SWIDTH 600 0
DWIDTH 7 0
BBX 6 6 0 0
BITMAP
05DE90
1921C4
0000A2
000850
03A411
3FFFFB
ENDCHAR
STARTCHAR three.onum
ENCODING -1
SWIDTH 600 0
DWIDTH 7 0
BBX 6 7 0 -1
BITMAP
05DEA1
0721A6
0002B3
00CF70
000297
282189
07EEB1
ENDCHAR
STARTCHAR four.onum
ENCODING -1
SWIDTH 600 0
DWIDTH 7 0
BBX 6 7 0 -1
BITMAP
0007E0
0049D0
02A0D0
1910D0
8FFFFF
0000D0
0000D0
ENDCHAR
STARTCHAR five.onum
ENCODING -1
SWIDTH 600 0
DWIDTH 7 0
BBX 6 7 0 -1
BITMAP
09FFF6
0A2000
0BAEB1
063198
00003A
2711A7
08EE90
ENDCHAR
STARTCHAR six.onum
ENCODING -1
SWIDTH 600 0
DWIDTH 7 0
BBX 6 7 0 0
BITMAP
01AED4
0A8124
0D0000
2DBED4
1E414C
0B404B
02BEC2
ENDCHAR
STARTCHAR seven.onum
ENCODING -1
SWIDTH 600 0
DWIDTH 7 0
BBX 6 7 0 -1
BITMAP
4FFFFD
000084
000490
000C10
002C00
005900
007700
ENDCHAR
STARTCHAR eight.onum
ENCODING -1
SWIDTH 600 0
DWIDTH 7 0
BBX 6 7 0 0
BITMAP
04DEA0
0B4186
057297
07FFD1
2D2375
2C205C
06DFC4
ENDCHAR
STARTCHAR nine.onum
ENCODING -1
SWIDTH 600 0
DWIDTH 7 0
BBX 6 7 0 -1
BITMAP
06DE80
2C2196
3C117A
08EEAB
000059
0512C4
08ED60
ENDCHAR
STARTCHAR zero.b
ENCODING -1
SWIDTH 600 0
DWIDTH 7 0
BBX 6 6 0 0
BITMAP
04DEA1
0D9198
2A752B
2B0A4B
0D41D8
04DEA1
ENDCHAR
STARTCHAR one.b
ENCODING -1
SWIDTH 600 0
DWIDTH 7 0
BBX 5 6 1 0
BITMAP
05F000
47E000
00E000
00E000
00E000
EFFFC0
ENDCHAR
ENDFONT
